<?xml version="1.0" standalone="no"?>
<!DOCTYPE svg PUBLIC "-//W3C//DTD SVG 20010904//EN"
 "http://www.w3.org/TR/2001/REC-SVG-20010904/DTD/svg10.dtd">
<svg version="1.0" xmlns="http://www.w3.org/2000/svg"
 width="1080.000000pt" height="1724.000000pt" viewBox="0 0 1080.000000 1724.000000"
 preserveAspectRatio="xMidYMid meet">

<g transform="translate(0.000000,1724.000000) scale(0.100000,-0.100000)"
fill="#000000" stroke="none">
<path d="M5015 17220 c-247 -11 -647 -52 -935 -95 -204 -31 -585 -107 -700
-139 -30 -9 -66 -18 -80 -22 -14 -3 -34 -10 -45 -14 -11 -5 -56 -23 -100 -39
-81 -31 -202 -97 -231 -126 -9 -8 -25 -20 -35 -26 -25 -13 -59 -90 -59 -132 0
-18 8 -50 18 -71 17 -38 17 -42 0 -100 -50 -164 -102 -295 -181 -452 -51 -101
-76 -129 -108 -121 -19 5 -21 3 -16 -22 7 -33 -5 -50 -53 -79 -23 -13 -45 -18
-63 -15 -23 4 -27 2 -27 -16 0 -13 -6 -21 -16 -21 -11 0 -14 -5 -10 -16 4 -10
0 -18 -13 -21 -11 -3 -17 -11 -15 -18 3 -7 -6 -21 -19 -31 -13 -11 -22 -25
-19 -32 2 -7 -4 -22 -14 -33 -16 -17 -16 -24 -5 -55 18 -50 7 -53 -33 -10 -27
30 -39 36 -56 31 -14 -4 -19 -12 -16 -22 3 -8 6 -21 6 -28 0 -8 17 -16 39 -20
38 -6 59 -34 45 -57 -9 -14 -26 -9 -21 6 5 13 -40 42 -50 32 -2 -2 5 -7 16
-11 19 -6 25 -25 24 -72 -1 -7 8 -13 18 -13 12 0 19 -7 19 -20 0 -11 -4 -20
-10 -20 -5 0 -10 6 -10 13 0 8 -3 8 -9 -2 -6 -9 -4 -22 5 -36 12 -18 12 -28 3
-49 -14 -30 -24 -33 -38 -8 -10 16 -10 16 -11 0 0 -10 -4 -18 -10 -18 -5 0 -6
-8 -3 -17 4 -11 8 -12 11 -5 8 25 17 10 19 -33 1 -36 -2 -45 -15 -46 -11 0
-13 -2 -4 -6 7 -3 18 0 25 5 14 11 114 15 131 5 6 -4 19 -9 29 -10 22 -4 47
-27 64 -61 17 -32 17 -32 -9 -32 -13 0 -29 -4 -37 -9 -18 -11 -41 -3 -41 14 0
17 -50 29 -63 16 -17 -17 -27 -13 -27 11 0 12 -3 18 -7 15 -3 -4 -13 -2 -20 5
-12 10 -11 14 9 25 22 13 22 13 -7 6 -16 -4 -41 -7 -55 -6 -13 1 -35 -7 -48
-18 -14 -10 -34 -19 -46 -19 -12 0 -16 3 -10 8 7 4 10 18 9 32 -3 33 -2 32
-24 20 -12 -6 -17 -17 -14 -28 6 -25 -22 -48 -41 -33 -10 9 -15 8 -19 -3 -4
-9 -1 -13 6 -11 7 3 18 1 26 -4 22 -14 -5 -42 -33 -35 -13 3 -29 -2 -43 -15
-11 -11 -38 -27 -58 -35 -31 -13 -44 -14 -77 -4 -22 6 -45 20 -52 30 -16 26
-46 24 -39 -3 3 -12 11 -18 19 -15 27 10 14 -10 -36 -57 -27 -26 -58 -47 -69
-47 -10 0 -25 -8 -32 -17 -12 -14 -12 -16 1 -9 11 6 11 4 -1 -6 -22 -18 -2
-40 23 -25 13 9 21 6 37 -14 25 -29 26 -23 5 19 -8 18 -13 36 -9 42 11 18 35
11 35 -10 0 -11 7 -20 15 -20 20 0 19 -26 -1 -34 -8 -3 -12 -11 -9 -17 10 -16
-33 -52 -55 -46 -13 3 -17 0 -13 -9 3 -8 11 -14 18 -14 16 0 37 -25 28 -33 -3
-4 -12 -2 -19 4 -23 19 -35 0 -14 -21 17 -17 18 -23 8 -40 -7 -11 -16 -20 -20
-20 -4 0 -5 -7 -2 -15 5 -12 2 -14 -12 -8 -16 6 -17 4 -7 -9 17 -20 5 -30 -21
-16 -21 11 -21 11 -2 -11 16 -18 17 -25 7 -44 -21 -39 -84 -104 -116 -120 -17
-9 -49 -33 -71 -54 -81 -76 -148 -110 -236 -119 -51 -5 -114 15 -123 39 -10
25 -74 6 -155 -47 -130 -85 -225 -143 -340 -207 -238 -132 -353 -241 -434
-413 -77 -163 -94 -240 -125 -561 -11 -111 -5 -679 9 -950 25 -485 56 -892 80
-1070 5 -38 14 -115 20 -170 6 -55 20 -172 31 -260 12 -88 25 -204 29 -257 4
-53 11 -114 15 -136 3 -21 8 -54 10 -73 2 -19 11 -74 20 -124 8 -49 20 -131
25 -182 5 -50 15 -124 24 -165 8 -40 20 -107 26 -148 7 -41 19 -111 27 -155 9
-44 17 -93 20 -110 2 -16 15 -86 28 -155 13 -69 26 -145 30 -170 6 -44 45
-226 65 -305 11 -41 69 -337 96 -480 8 -44 28 -129 45 -190 16 -60 34 -136 39
-168 6 -33 12 -63 15 -68 3 -4 26 -86 51 -181 25 -95 51 -195 59 -223 8 -27
24 -84 35 -125 12 -41 30 -114 40 -161 10 -47 25 -100 34 -117 9 -17 16 -45
16 -62 0 -18 7 -46 15 -63 8 -18 19 -50 24 -72 33 -134 63 -231 77 -246 8 -9
16 -25 19 -35 23 -115 64 -254 90 -309 8 -16 26 -70 41 -120 15 -49 33 -101
40 -115 7 -14 39 -101 70 -195 33 -100 68 -184 83 -205 16 -21 41 -82 61 -150
19 -63 36 -117 40 -120 13 -12 49 -88 44 -92 -6 -7 60 -181 81 -211 8 -12 15
-30 15 -40 0 -10 11 -35 25 -55 14 -20 25 -42 25 -49 0 -23 20 -14 31 15 10
25 12 26 19 7 13 -30 12 -79 -2 -93 -9 -9 -7 -19 10 -42 12 -16 22 -33 22 -38
0 -5 11 -19 25 -32 14 -13 25 -34 25 -47 0 -31 28 -73 44 -67 9 4 12 -2 9 -18
-4 -28 19 -74 36 -70 7 1 11 -3 8 -10 -5 -14 26 -70 58 -105 11 -13 29 -40 40
-60 25 -50 65 -93 85 -93 22 0 55 -36 41 -45 -15 -9 -14 -21 3 -38 8 -7 23
-34 35 -60 18 -40 57 -93 122 -163 10 -12 19 -25 19 -28 0 -4 11 -17 25 -30
14 -13 25 -28 25 -34 0 -15 41 -53 50 -47 5 3 15 -13 24 -35 10 -25 30 -49 55
-66 22 -14 46 -39 53 -55 7 -17 21 -29 31 -29 14 0 17 -5 12 -19 -4 -14 8 -34
47 -75 28 -31 55 -51 58 -45 4 5 14 7 23 3 18 -7 23 -24 7 -24 -24 0 -5 -27
66 -95 51 -50 81 -72 92 -68 11 3 13 2 5 -4 -8 -6 -9 -14 -3 -23 15 -23 12
-38 -6 -36 -17 1 -48 -84 -74 -204 -6 -30 -21 -75 -32 -99 -11 -25 -21 -69
-23 -98 -1 -32 -9 -61 -19 -72 -16 -17 -17 -65 -2 -89 3 -6 -3 -13 -14 -17
-11 -4 -18 -11 -14 -16 3 -6 -4 -31 -17 -57 -12 -26 -23 -63 -25 -82 -2 -19
-4 -37 -5 -40 -1 -3 -1 -8 0 -12 0 -5 -3 -8 -8 -8 -8 0 -22 -35 -26 -65 -1 -5
-7 -21 -12 -35 -6 -14 -9 -28 -7 -32 2 -3 -5 -27 -16 -53 -11 -25 -19 -49 -18
-53 1 -4 -1 -14 -5 -22 -8 -22 -52 -165 -71 -235 -9 -33 -22 -73 -27 -90 -18
-52 -116 -412 -138 -505 -36 -150 -55 -401 -42 -550 7 -73 16 -112 39 -163 17
-37 35 -67 39 -67 5 0 14 -15 21 -33 6 -17 37 -57 67 -87 31 -30 65 -64 75
-74 13 -13 32 -19 57 -18 40 2 173 -35 173 -47 0 -7 37 -18 170 -48 69 -15
189 -28 360 -38 130 -8 115 -8 175 -1 79 10 554 16 560 7 2 -5 28 -4 57 1 29
5 69 7 88 3 64 -12 470 2 496 17 5 3 43 4 84 3 41 -1 80 1 85 5 6 4 17 7 25 7
8 1 49 3 91 7 42 3 99 2 125 -3 84 -16 604 -15 615 1 3 5 18 4 35 -2 20 -8 30
-8 32 -1 2 6 8 8 13 5 5 -3 103 -5 217 -4 114 1 224 1 245 0 22 0 37 4 37 11
0 8 4 8 13 2 6 -6 48 -9 92 -8 44 2 197 6 340 9 143 4 268 9 278 12 9 3 17 12
17 20 0 19 16 18 32 -4 25 -33 122 -55 131 -29 3 9 7 9 19 0 10 -9 41 -11 104
-7 122 7 166 6 264 -4 47 -4 120 -6 163 -4 75 4 77 5 78 31 l1 26 9 -27 c9
-22 15 -26 37 -23 15 2 55 6 90 9 36 3 94 19 135 36 40 16 88 33 107 36 44 9
79 34 80 57 0 19 40 25 40 6 0 -8 5 -8 15 1 10 9 15 9 15 1 0 -15 23 -14 38 1
7 7 19 13 26 13 25 0 117 95 123 127 3 18 15 33 27 38 21 8 37 43 52 115 4 17
9 109 11 205 5 178 -6 306 -32 385 -30 88 -52 136 -73 160 -24 28 -45 26 -35
-3 5 -13 3 -14 -6 -6 -10 9 -10 17 -2 33 10 17 7 22 -16 36 -19 10 -22 14 -9
13 10 -2 21 3 23 10 3 6 0 12 -6 12 -7 0 -9 10 -5 26 5 21 3 25 -12 22 -15 -2
-18 3 -17 32 1 46 -15 110 -28 110 -6 0 -7 5 -4 10 8 12 -35 120 -47 120 -4 0
-8 10 -8 23 0 12 -7 31 -15 41 -8 11 -15 26 -15 33 0 8 -13 43 -30 78 -16 35
-30 67 -30 70 0 3 -22 52 -49 108 -27 57 -52 114 -56 128 -4 13 -10 26 -14 29
-9 8 -39 71 -55 117 -8 22 -32 79 -54 125 -22 45 -55 118 -74 160 -18 43 -38
78 -44 78 -6 0 -11 11 -11 24 0 25 -57 171 -76 194 -6 8 -21 10 -43 6 -23 -4
-34 -2 -34 5 0 16 88 101 104 101 7 0 40 26 73 58 33 31 91 84 128 117 38 33
76 68 84 78 20 24 74 76 130 127 28 25 41 45 38 55 -4 8 -3 15 1 15 12 0 142
127 142 138 0 6 18 25 40 43 22 18 40 39 40 46 0 8 7 16 15 20 9 3 22 18 31
34 8 16 21 29 28 29 12 0 66 70 66 87 0 5 14 22 31 38 28 27 68 98 75 133 4
19 25 42 38 42 7 0 20 22 30 50 10 27 29 60 42 72 13 13 24 28 24 34 0 6 17
29 38 52 20 23 48 67 62 99 13 32 33 67 43 78 56 59 194 319 313 590 14 33 44
95 65 137 21 43 39 86 39 97 0 11 4 22 9 26 6 3 20 38 33 78 12 39 33 92 46
117 24 44 72 164 114 283 12 35 17 68 14 83 -6 22 -11 25 -36 19 -35 -8 -40
10 -14 50 20 31 31 25 44 -27 7 -23 15 -37 20 -32 5 5 20 43 34 86 13 42 32
91 41 109 10 18 26 64 35 103 10 39 30 107 45 151 39 119 111 352 130 420 9
33 25 87 36 120 10 33 25 85 33 115 7 30 24 96 36 145 13 50 26 99 30 110 4
11 15 49 23 85 9 36 22 90 31 122 8 31 18 67 21 80 10 44 36 153 45 188 28
107 97 419 104 466 3 22 10 52 15 65 6 13 22 83 36 154 14 72 32 157 40 190 8
33 24 112 36 175 11 63 25 138 30 165 5 28 14 75 19 105 5 30 17 93 26 140 9
47 18 105 19 130 1 25 3 45 4 45 1 0 4 24 6 54 2 30 8 57 13 60 5 3 16 65 26
136 10 72 22 137 26 145 13 24 31 200 26 257 -2 35 0 51 7 46 6 -4 8 4 5 20
-3 15 -1 28 4 29 8 3 11 34 23 212 2 33 9 91 16 130 16 89 16 92 27 144 5 24
7 53 4 64 -3 11 0 23 5 27 20 13 52 278 53 436 0 61 5 144 10 185 5 41 12 120
15 175 3 55 8 132 11 171 4 49 3 74 -5 79 -8 4 -9 11 -2 18 14 18 26 293 12
301 -12 8 -15 66 -3 66 12 0 14 320 2 360 -6 22 -6 38 0 44 14 14 13 553 0
561 -6 4 -8 16 -4 27 3 11 2 30 -4 42 -33 70 -40 95 -35 116 5 19 3 22 -10 17
-10 -4 -16 -2 -14 6 1 7 -4 11 -11 9 -10 -2 -10 2 -2 17 14 28 13 36 -5 21 -9
-8 -15 -9 -15 -2 0 6 5 14 10 17 23 14 9 45 -26 60 -20 8 -33 19 -29 25 4 6 1
17 -5 25 -10 12 -9 15 6 15 18 0 17 2 -2 18 -30 24 -41 62 -18 62 13 0 15 3 7
11 -6 6 -9 19 -6 28 4 9 -3 5 -15 -9 -12 -14 -22 -23 -23 -20 -8 30 -5 70 7
70 21 0 17 17 -6 23 -16 4 -19 11 -15 30 4 14 2 28 -4 32 -6 3 -9 11 -6 16 4
5 1 9 -4 9 -6 0 -11 5 -11 10 0 6 7 10 16 10 13 0 15 7 10 30 -4 20 -2 29 5
25 5 -4 -4 16 -21 44 -32 51 -55 76 -44 47 3 -9 1 -16 -5 -16 -6 0 -15 10 -20
23 -14 34 -77 91 -95 84 -10 -4 -13 -1 -9 8 3 9 -3 18 -13 22 -11 3 -22 11
-25 16 -10 14 -29 -1 -22 -18 3 -8 0 -15 -6 -15 -6 0 -11 8 -11 18 0 27 -11
34 -24 16 -10 -13 -12 -12 -13 7 -2 27 -19 39 -56 39 -16 0 -26 4 -22 10 3 5
12 7 20 3 9 -3 15 1 15 11 0 9 5 16 10 16 6 0 10 -4 10 -10 0 -5 4 -10 10 -10
14 0 1 28 -18 35 -9 3 -19 -1 -24 -10 -10 -16 -73 -21 -82 -6 -3 5 -23 12 -43
16 -21 4 -46 14 -55 22 -11 9 -28 13 -44 10 -31 -6 -118 27 -151 56 -13 11
-26 17 -29 14 -7 -7 -74 30 -85 46 -4 5 -4 17 -2 27 4 14 -4 18 -42 22 -29 4
-55 14 -71 29 -16 15 -35 22 -53 21 -34 -3 -81 33 -223 167 -91 86 -110 113
-90 124 4 2 2 2 -5 1 -7 -2 -19 4 -27 12 -9 8 -17 14 -18 12 -2 -1 -11 3 -20
8 -12 6 -15 17 -12 32 4 13 11 19 18 15 12 -8 -14 28 -29 39 -5 4 -17 5 -26 3
-17 -6 -29 29 -29 80 0 14 -7 25 -20 28 -13 3 -20 14 -20 29 0 17 -3 20 -9 9
-5 -8 -7 -19 -5 -26 3 -6 -4 -19 -15 -30 -17 -14 -23 -15 -36 -5 -8 7 -12 17
-9 22 4 6 1 14 -6 18 -9 6 -6 14 11 31 15 15 17 20 6 16 -10 -4 -14 -2 -11 6
5 16 -47 77 -67 77 -18 0 -61 29 -55 38 2 4 -10 8 -27 9 -17 1 -34 7 -37 14
-5 7 -9 5 -13 -5 -6 -14 -10 -14 -27 -4 -22 14 -27 38 -7 39 6 0 -1 5 -16 11
-21 7 -27 15 -24 28 3 11 -2 21 -10 24 -10 4 -13 1 -8 -14 3 -10 1 -28 -4 -39
-9 -17 -8 -18 11 -13 14 3 19 1 14 -6 -13 -21 -70 -12 -110 17 -42 30 -58 77
-31 97 12 9 9 15 -17 37 l-30 27 6 -26 c8 -30 -11 -29 -28 2 -6 10 -15 22 -20
25 -5 4 -6 13 -3 21 3 10 -2 14 -16 14 -22 -1 -30 20 -15 40 4 5 3 23 -1 40
l-9 29 -1 -32 c-1 -17 -5 -34 -10 -38 -9 -5 -24 23 -27 50 0 6 -4 33 -9 62
l-7 51 -52 14 c-35 10 -52 20 -55 34 -2 10 -40 66 -85 124 -46 58 -91 119
-102 137 -10 17 -45 72 -77 122 -72 114 -158 283 -193 380 -42 119 -76 294
-74 389 2 104 -20 156 -88 205 -43 31 -132 77 -149 77 -4 0 -25 9 -47 20 -44
21 -106 38 -256 70 -156 34 -336 55 -640 76 -267 17 -1257 26 -1555 14z
m-2482 -1447 c-11 -31 -15 -34 -29 -22 -11 9 -11 15 -3 25 17 20 40 18 32 -3z
m-45 -38 c12 -26 1 -43 -16 -22 -11 14 -12 47 -2 47 4 0 12 -11 18 -25z m-8
-75 c0 -5 -4 -10 -10 -10 -5 0 -10 5 -10 10 0 6 5 10 10 10 6 0 10 -4 10 -10z
m-140 -131 c-10 -17 -30 -27 -30 -13 0 15 22 44 31 39 5 -4 5 -13 -1 -26z m60
22 c0 -12 -59 -71 -71 -71 -16 0 -10 13 23 47 32 33 48 41 48 24z m-110 -162
c0 -5 -7 -9 -15 -9 -15 0 -20 12 -9 23 8 8 24 -1 24 -14z m6200 -129 c0 -5 -4
-10 -10 -10 -5 0 -10 5 -10 10 0 6 5 10 10 10 6 0 10 -4 10 -10z m-6140 -51
c0 -10 -4 -19 -10 -19 -5 0 -10 12 -10 26 0 14 4 23 10 19 6 -3 10 -15 10 -26z
m6187 -44 c18 -1 35 -4 38 -7 8 -8 -6 -38 -17 -38 -5 0 -6 4 -3 10 3 6 -1 7
-10 4 -12 -5 -15 -14 -11 -33 l6 -26 -23 28 c-21 25 -25 26 -31 12 -4 -12 -13
-15 -30 -11 -15 4 -28 0 -36 -9 -15 -18 -40 -20 -40 -3 0 6 11 26 25 44 25 32
56 46 85 36 8 -3 30 -6 47 -7z m210 -122 c105 -63 113 -70 108 -93 -11 -46
-40 -85 -61 -82 -10 1 0 -10 24 -24 l44 -27 -21 -21 c-20 -20 -21 -20 -35 -1
-8 11 -12 23 -10 27 3 4 -13 16 -35 27 -22 12 -43 25 -46 31 -4 6 -12 7 -18 4
-7 -4 -9 -3 -4 1 10 11 -42 45 -70 45 -12 0 -26 7 -31 16 -6 11 -12 13 -16 6
-4 -8 -15 -8 -31 -2 -16 6 -25 6 -25 0 0 -5 18 -13 40 -16 22 -4 40 -11 40
-16 0 -5 -6 -6 -12 -3 -7 3 -4 0 6 -7 10 -7 30 -25 44 -40 14 -16 34 -28 44
-28 10 0 23 -10 29 -23 9 -19 17 -23 49 -21 31 1 40 -2 49 -22 9 -20 15 -23
43 -17 47 8 66 28 62 63 -2 17 1 30 6 30 6 0 10 5 10 10 0 6 -11 10 -25 10
-25 0 -33 14 -15 25 5 3 7 12 4 20 -4 9 1 18 12 22 10 4 19 2 22 -5 2 -7 9
-12 15 -12 36 0 60 -117 34 -166 -22 -43 -54 -68 -90 -70 -18 -1 -39 -3 -47
-5 -9 -3 -14 3 -14 14 2 19 -32 24 -38 6 -7 -21 -50 0 -45 21 3 11 -1 21 -9
24 -8 3 -14 1 -14 -4 0 -15 -22 -12 -45 6 -16 12 -17 16 -6 23 7 5 10 14 7 20
-10 16 -26 14 -26 -4 0 -20 -9 -19 -34 2 -12 10 -15 11 -8 3 13 -16 16 -34 4
-26 -5 3 -20 -1 -35 -9 -15 -7 -29 -10 -32 -5 -3 5 -19 7 -35 3 -20 -4 -41 1
-65 16 -20 11 -43 21 -52 21 -9 0 -13 3 -10 7 4 3 -1 15 -10 26 -16 17 -16 19
-1 28 10 5 15 16 12 23 -3 8 8 23 26 36 29 20 30 24 16 39 -9 10 -13 21 -9 25
4 4 1 11 -7 17 -13 8 -13 11 3 23 9 7 17 18 17 24 0 6 6 13 13 15 7 4 6 6 -4
6 -9 1 -20 -7 -23 -16 -5 -12 -9 -14 -18 -5 -15 15 22 52 53 52 18 0 21 -5 17
-29 -3 -18 0 -29 6 -28 16 3 20 -45 4 -54 -9 -6 -10 -9 -1 -9 7 0 22 14 35 30
14 20 28 28 39 25 12 -4 19 1 24 14 6 21 43 71 52 71 3 0 57 -30 120 -67z
m-6519 3 c11 -9 32 -40 47 -69 35 -66 32 -62 51 -46 14 12 19 10 40 -14 21
-24 44 -22 29 3 -4 6 -1 18 6 26 10 12 9 17 -6 28 -17 12 -15 14 15 24 47 17
68 15 80 -7 16 -31 12 -43 -12 -37 -13 3 -17 3 -10 0 6 -3 12 -12 12 -20 0 -8
5 -14 12 -14 9 0 9 -3 1 -11 -6 -6 -9 -18 -6 -25 3 -8 0 -21 -7 -29 -7 -8 -8
-15 -3 -15 6 0 18 -16 29 -35 10 -19 24 -35 31 -35 14 0 17 -19 5 -35 -4 -5
-28 -27 -54 -47 -69 -56 -136 -50 -119 11 12 40 5 51 -24 37 -27 -12 -44 -39
-20 -29 9 3 18 -3 22 -13 4 -10 2 -19 -3 -21 -5 -2 -16 -8 -24 -13 -13 -9 -13
-12 3 -21 18 -10 18 -12 1 -30 -24 -27 -43 -24 -50 9 -10 45 -14 55 -22 48 -4
-4 -7 -15 -7 -23 0 -9 -6 -18 -14 -21 -8 -3 -11 0 -7 7 4 7 1 9 -8 5 -8 -3
-13 -11 -11 -17 8 -22 -71 -66 -124 -71 -28 -2 -53 0 -56 5 -4 5 -14 9 -24 9
-44 0 -82 32 -130 113 -19 30 -21 40 -11 52 10 12 10 15 0 15 -7 0 -10 7 -7
15 5 11 0 13 -22 9 -31 -7 -55 14 -45 40 4 11 13 14 33 9 14 -3 28 -10 29 -15
7 -17 24 -7 19 11 -5 19 50 81 72 81 6 0 10 3 10 8 -4 21 3 34 26 44 14 6 25
17 25 24 0 7 15 17 34 24 20 6 36 19 39 32 4 15 11 19 26 15 12 -3 24 1 29 7
16 28 71 29 100 2z m6683 -65 c27 -22 21 -38 -9 -22 -21 11 -37 41 -23 41 5 0
19 -9 32 -19z m-494 -46 c-6 -17 -47 -18 -47 -2 0 10 9 14 25 13 14 0 24 -5
22 -11z m-6652 -15 c-3 -5 -11 -10 -16 -10 -6 0 -7 5 -4 10 3 6 11 10 16 10 6
0 7 -4 4 -10z m57 -32 c-17 -17 -15 -28 6 -21 14 5 15 4 4 -8 -15 -16 -45 -2
-50 25 -3 12 4 16 24 16 22 0 25 -3 16 -12z m738 -28 c0 -11 -4 -20 -10 -20
-5 0 -10 9 -10 20 0 11 5 20 10 20 6 0 10 -9 10 -20z m6480 -21 c0 -26 -3 -29
-14 -20 -8 7 -12 21 -9 31 8 31 23 23 23 -11z m-732 -37 c2 -6 9 -9 17 -6 7 3
24 -2 38 -11 13 -8 35 -18 48 -20 13 -3 25 -9 27 -15 2 -5 9 -10 17 -10 7 0
18 -7 25 -15 10 -12 10 -15 -3 -15 -8 0 -17 -4 -19 -9 -1 -6 -29 8 -61 29 -55
37 -87 43 -87 15 0 -15 -31 -29 -39 -18 -11 15 -45 38 -37 25 4 -7 0 -15 -11
-19 -10 -3 -22 -12 -26 -20 -4 -7 -14 -13 -21 -13 -15 0 -28 -36 -32 -83 -1
-24 4 -31 27 -39 16 -5 27 -14 24 -19 -3 -5 0 -19 7 -32 16 -28 101 -107 115
-107 6 0 17 -10 25 -23 16 -24 100 -53 106 -36 2 5 9 6 14 3 7 -4 8 -2 4 5 -4
6 -11 9 -16 6 -5 -3 -34 18 -64 47 -89 87 -149 133 -169 130 -11 -2 -16 1 -13
6 3 5 -1 15 -9 22 -16 14 -20 40 -6 40 5 0 47 -30 93 -67 108 -86 108 -86 108
-81 0 4 -120 105 -143 119 -15 10 8 42 69 94 39 33 60 46 69 39 32 -24 95 -64
101 -64 4 0 1 7 -7 16 -10 13 -10 17 2 25 18 11 34 6 34 -12 0 -18 26 -38 42
-32 7 3 16 -3 20 -13 10 -27 36 -54 50 -54 7 0 13 -4 13 -10 0 -5 -7 -10 -16
-10 -8 0 -12 -5 -9 -10 4 -6 11 -8 16 -5 5 3 6 -1 3 -10 -5 -11 -14 -15 -28
-11 -16 4 -27 -3 -44 -28 -12 -18 -35 -45 -51 -60 l-30 -28 -28 19 c-51 36
-59 35 -18 -1 59 -53 69 -53 112 -4 47 53 105 108 114 108 12 0 30 -27 27 -41
-2 -8 2 -13 8 -12 7 1 17 -17 23 -40 9 -36 7 -48 -11 -85 -26 -55 -52 -82
-104 -111 -34 -19 -45 -21 -63 -12 -14 8 -21 8 -21 1 0 -17 -54 -11 -111 12
-68 27 -65 25 -46 46 20 21 22 32 6 32 -5 0 -8 -4 -5 -9 3 -5 -1 -15 -10 -22
-13 -10 -21 -9 -46 5 -22 13 -32 15 -37 7 -5 -8 -21 -2 -50 19 l-43 31 26 24
c18 17 21 25 12 28 -8 3 -19 0 -25 -6 -9 -9 -15 -8 -22 6 -6 9 -15 17 -20 17
-6 0 -7 -5 -4 -10 4 -6 -3 -27 -14 -46 -21 -35 -21 -35 -1 -29 25 8 26 -7 3
-27 -32 -28 -74 -30 -118 -7 -53 28 -85 58 -85 81 0 20 11 23 26 9 5 -6 9 1
10 19 1 20 -3 27 -12 23 -24 -9 -15 15 12 36 30 23 74 27 107 10 21 -12 21
-11 5 8 -29 32 -19 60 10 31 9 -9 12 -9 12 0 0 7 -5 12 -11 12 -6 0 -9 7 -6
14 4 10 1 13 -9 9 -7 -3 -14 -1 -14 3 -1 5 -3 31 -5 57 -4 38 0 56 19 86 29
45 92 97 126 104 40 7 104 1 108 -11z m322 -65 c0 -21 -11 -27 -31 -16 -27 14
-23 29 6 29 14 0 25 -6 25 -13z m-6910 -22 c0 -8 -4 -15 -10 -15 -5 0 -10 7
-10 15 0 8 5 15 10 15 6 0 10 -7 10 -15z m1055 -15 c80 -39 147 -115 176 -202
13 -39 14 -52 3 -77 -7 -17 -19 -31 -26 -32 -7 0 -3 -4 9 -9 13 -5 36 -5 57 1
48 13 73 -1 82 -49 4 -20 14 -42 23 -49 14 -10 13 -15 -14 -43 -56 -59 -132
-76 -179 -39 -31 24 -34 39 -6 32 19 -5 19 -4 4 26 -9 18 -13 40 -9 52 5 15 4
19 -4 15 -6 -4 -11 -18 -11 -30 0 -28 -22 -49 -43 -40 -8 3 -18 1 -22 -5 -3
-6 -1 -11 4 -11 22 0 10 -26 -20 -43 -28 -16 -31 -16 -25 -1 5 14 4 15 -8 5
-8 -7 -13 -18 -10 -25 7 -18 -39 -46 -65 -39 -16 4 -20 2 -16 -9 8 -21 -11
-33 -83 -53 -60 -17 -63 -17 -84 1 -15 14 -22 16 -25 7 -6 -18 -38 -16 -53 2
-22 26 -40 18 -40 -18 0 -25 -9 -42 -39 -71 -35 -34 -38 -41 -29 -62 6 -13 15
-24 20 -24 19 0 6 -20 -14 -21 -21 -1 -21 -2 -3 -6 11 -3 31 -16 44 -29 13
-13 28 -24 32 -24 5 0 9 -8 9 -19 0 -10 7 -24 15 -31 8 -7 15 -18 15 -25 0 -7
7 -18 16 -26 9 -7 13 -21 10 -33 -3 -11 2 -28 11 -38 14 -16 14 -20 -1 -43
-16 -24 -16 -25 4 -25 23 0 24 -1 8 -35 -6 -14 -18 -25 -26 -25 -9 0 -7 -6 8
-18 20 -17 22 -22 11 -53 -6 -19 -11 -38 -12 -44 -3 -30 -44 -86 -95 -134 -40
-37 -92 -70 -162 -103 -127 -60 -220 -72 -328 -43 -74 20 -126 57 -117 82 4
10 2 14 -4 10 -11 -7 -29 11 -51 52 -12 20 -12 25 0 32 10 7 9 9 -4 9 -23 0
-23 16 0 29 16 10 16 10 0 11 -28 0 -24 48 5 60 17 7 18 9 5 9 -10 1 -18 6
-18 12 0 7 11 9 29 6 25 -5 29 -3 28 13 -1 22 -13 27 -19 8 -5 -13 -38 -4 -38
11 0 16 47 40 69 34 19 -5 21 -10 16 -32 -17 -61 -9 -86 44 -143 30 -34 118
-68 169 -67 37 2 37 2 -8 9 -25 4 -57 12 -71 18 -34 14 -79 68 -80 95 -1 60
-8 87 -28 108 -15 16 -18 25 -9 30 7 4 -3 9 -22 11 -41 4 -50 25 -17 37 14 6
28 14 31 20 4 6 14 7 24 4 14 -5 14 -3 -2 9 -25 20 -13 37 24 36 34 -1 50 9
33 20 -15 10 -5 23 31 42 16 8 31 23 34 33 5 20 22 22 41 5 11 -11 13 -10 8 5
-5 12 -1 17 12 17 12 0 17 7 17 23 -1 17 5 23 25 25 15 2 35 12 45 23 19 21
60 27 48 7 -4 -7 2 -5 13 5 12 10 28 15 39 11 14 -4 16 -3 5 4 -21 15 -4 32
32 32 21 0 36 7 45 20 11 18 8 21 -23 34 -39 17 -51 52 -13 40 21 -6 21 -6 5
10 -9 10 -15 22 -12 27 4 5 1 9 -4 9 -27 0 -8 41 29 66 32 21 46 25 76 20 29
-6 35 -11 31 -27 -3 -10 -1 -22 4 -25 5 -3 6 -10 3 -16 -4 -6 -2 -8 3 -5 6 4
13 18 15 31 4 19 -1 28 -26 41 -17 10 -48 38 -68 63 -38 47 -68 134 -49 140 6
2 11 10 11 17 0 7 10 16 23 20 21 7 21 7 2 12 -11 3 -25 9 -31 14 -5 4 -20 6
-32 2 -32 -8 -26 7 19 46 36 31 39 32 39 12 0 -12 6 -21 15 -21 8 0 15 -4 15
-10 0 -5 5 -10 11 -10 11 0 166 -132 185 -159 16 -21 37 -10 140 79 156 134
161 139 144 149 -8 6 -11 14 -6 18 5 4 11 2 13 -4 3 -7 13 -13 23 -13 9 0 23
-7 31 -16 10 -13 10 -17 -2 -25 -11 -8 -10 -9 6 -7 19 4 21 12 13 62 -4 24
-89 111 -128 131 -38 19 -61 19 -54 0 9 -22 -3 -18 -34 10 -15 14 -34 25 -42
25 -11 -1 -9 -4 5 -12 32 -18 99 -80 110 -103 6 -11 17 -20 25 -20 10 0 15
-12 15 -40 0 -38 -4 -43 -108 -132 l-108 -93 -28 19 c-15 11 -54 45 -87 75
-32 31 -65 56 -71 56 -7 0 -13 4 -13 10 0 5 -6 7 -14 4 -15 -6 -50 42 -41 56
3 6 13 10 21 10 8 0 14 7 14 15 0 18 16 20 23 3 3 -7 6 -3 6 8 1 25 44 73 84
93 15 8 27 18 27 22 0 9 57 41 65 37 2 -2 12 8 21 20 12 18 23 23 45 20 16 -3
29 -1 29 3 0 23 99 16 155 -11z m6293 0 c32 -20 44 -50 19 -50 -7 0 -20 9 -30
20 -20 24 -37 26 -37 5 0 -18 49 -43 75 -37 16 3 18 1 8 -9 -19 -19 -16 -28 9
-21 14 3 19 2 14 -6 -15 -25 -79 -13 -120 21 l-39 34 28 31 c16 18 31 32 34
32 3 0 21 -9 39 -20z m-7186 -97 c10 -9 18 -23 18 -31 0 -8 6 -12 15 -8 25 9
17 -4 -30 -55 -50 -54 -55 -71 -24 -92 l20 -15 -23 -16 c-12 -9 -17 -16 -10
-16 8 0 12 -16 12 -44 0 -25 4 -47 9 -50 9 -6 7 -46 -4 -83 -4 -12 -17 -24
-29 -26 -17 -3 -15 -5 7 -6 19 -1 27 -6 27 -19 0 -10 -3 -22 -7 -26 -4 -3 -8
-15 -10 -25 -1 -10 -7 -30 -13 -45 -8 -22 -15 -26 -33 -22 -12 3 -16 3 -9 0
26 -12 9 -42 -63 -116 -51 -52 -94 -85 -137 -106 -160 -77 -159 -77 -244 -75
-51 1 -92 7 -110 16 -42 22 -109 90 -112 113 -1 10 -3 26 -4 34 0 8 0 30 0 48
2 26 6 32 25 32 20 1 21 2 5 14 -10 7 -18 17 -18 21 0 14 43 55 57 55 16 0 17
-22 1 -38 -7 -7 -8 -12 -2 -12 5 0 10 -18 10 -40 1 -28 10 -49 30 -74 26 -31
54 -50 40 -27 -3 4 7 6 22 4 23 -4 25 -3 11 9 -41 34 -50 64 -48 152 2 54 -2
91 -9 98 -15 15 4 52 24 44 15 -6 48 21 56 45 3 8 11 10 22 6 18 -7 18 -8 0
-28 -13 -15 -3 -11 34 12 61 38 67 45 47 52 -9 4 -12 1 -8 -9 3 -9 -2 -14 -16
-14 -12 0 -21 6 -21 15 0 17 46 39 61 29 5 -3 14 8 20 24 8 24 14 28 35 24 17
-3 31 2 45 17 11 12 25 19 30 15 6 -3 20 3 32 14 12 11 33 21 47 22 24 1 96 6
133 9 24 2 22 43 -3 59 -42 26 -13 119 44 142 29 12 27 12 48 -7z m7006 5 c19
-19 14 -28 -13 -28 -24 0 -34 18 -18 33 9 10 17 9 31 -5z m-208 -42 c0 -12 -5
-7 -19 24 -11 24 -11 24 3 6 9 -11 16 -24 16 -30z m376 -2 c-3 -7 -1 -16 5
-20 14 -9 -9 -34 -32 -34 -23 0 -24 13 -4 30 9 7 13 21 10 31 -5 14 -2 17 10
13 9 -4 14 -13 11 -20z m-6871 -24 c-3 -5 -11 -10 -16 -10 -6 0 -7 5 -4 10 3
6 11 10 16 10 6 0 7 -4 4 -10z m6585 -10 c0 -5 -10 -10 -22 -9 -22 0 -22 1 -3
9 11 5 21 9 23 9 1 1 2 -3 2 -9z m427 -23 c28 -4 73 -36 53 -36 -9 -1 -21 4
-26 9 -6 6 -23 13 -37 16 -21 3 -27 0 -27 -13 0 -10 -9 -24 -21 -31 -14 -9
-18 -19 -13 -34 5 -16 3 -20 -9 -15 -8 3 -23 -2 -33 -11 -22 -20 -66 -22 -72
-4 -2 6 2 12 8 12 7 0 9 8 5 19 -3 11 -1 22 4 25 6 4 8 13 5 20 -5 13 42 66
59 66 4 0 4 -12 0 -27 l-6 -28 33 34 c30 29 35 31 45 17 7 -9 21 -17 32 -19z
m-372 -7 c0 -9 -11 -16 -27 -18 -27 -3 -38 14 -21 32 12 12 48 2 48 -14z
m-6747 -50 c-14 -22 -18 -23 -42 -14 -30 12 -18 34 19 34 33 0 34 -1 23 -20z
m7236 11 c3 -5 -1 -14 -8 -20 -16 -13 -32 2 -21 19 8 12 22 13 29 1z m-497 -7
c-3 -3 -12 -4 -19 -1 -8 3 -5 6 6 6 11 1 17 -2 13 -5z m503 -45 c114 -62 250
-177 250 -210 0 -10 4 -20 9 -24 6 -3 9 -13 9 -23 -1 -9 2 -32 6 -49 7 -29 5
-34 -21 -45 -15 -7 -29 -13 -31 -14 -2 -1 1 -12 8 -23 6 -12 16 -19 22 -15 7
4 6 9 -2 14 -8 5 -1 10 21 15 22 5 34 4 37 -4 2 -6 9 -11 15 -11 8 0 8 3 -1
12 -8 8 -8 15 -1 24 18 22 28 73 16 77 -7 2 -12 16 -12 31 -1 25 0 26 12 9 6
-10 20 -26 29 -35 14 -14 15 -18 3 -19 -9 0 -10 -2 -2 -5 7 -3 9 -12 6 -20 -3
-10 0 -12 10 -8 25 9 31 -16 8 -32 -27 -19 -27 -34 1 -26 16 4 19 2 12 -9 -4
-8 -7 -24 -6 -35 4 -28 -51 -74 -86 -74 l-27 1 25 14 c14 8 34 14 44 15 11 0
17 3 13 6 -8 9 -110 -16 -118 -29 -4 -5 -15 -7 -24 -3 -14 5 -15 9 -5 21 10
12 9 15 -4 15 -9 0 -16 -7 -16 -15 0 -37 -105 -6 -200 59 -56 39 -65 42 -75
26 -4 -6 -11 -8 -16 -4 -6 3 -5 11 3 21 10 12 9 17 -7 25 -24 13 -145 137
-145 149 0 5 4 9 10 9 16 0 60 42 54 52 -3 4 -10 8 -15 8 -6 0 -8 -4 -5 -9 7
-11 -22 -36 -32 -27 -4 4 -7 11 -7 14 -1 4 -6 17 -13 30 -7 12 -10 28 -6 34 5
8 2 9 -9 5 -21 -8 -22 8 -2 25 9 7 24 21 34 31 20 20 28 14 49 -35 8 -19 8
-29 1 -34 -6 -4 3 -13 20 -22 28 -13 30 -16 14 -27 -15 -11 -13 -13 18 -20 19
-4 49 -21 68 -39 25 -23 21 -15 -17 33 -62 78 -83 147 -58 186 23 35 49 31
136 -16z m-6330 1 c0 -11 -4 -20 -10 -20 -5 0 -10 9 -10 20 0 11 5 20 10 20 6
0 10 -9 10 -20z m-851 -29 c12 -8 12 -12 -1 -25 -15 -14 -17 -14 -22 0 -13 33
-4 42 23 25z m-59 -11 c19 -10 54 -70 46 -78 -17 -17 -102 48 -93 71 7 19 20
21 47 7z m5764 -8 c6 -4 20 -7 31 -8 27 -1 75 -25 75 -37 0 -5 7 -7 15 -3 24
9 48 -4 35 -19 -9 -10 -6 -16 9 -24 11 -6 27 -11 35 -11 8 0 19 -7 24 -16 8
-14 10 -12 16 10 4 18 13 26 27 26 16 0 19 -4 14 -17 -17 -43 -17 -54 6 -73
20 -16 21 -19 7 -20 -29 0 -21 -17 18 -35 34 -16 35 -17 18 -36 -14 -15 -14
-19 -3 -19 20 0 52 -39 45 -55 -3 -8 -1 -15 5 -17 13 -4 -6 -101 -20 -106 -6
-2 -11 -10 -11 -18 0 -8 -12 -24 -26 -37 -48 -41 -49 -55 -7 -72 45 -19 83
-53 83 -73 0 -8 -8 -21 -17 -29 -17 -14 -17 -14 0 -9 20 6 21 5 5 -28 -6 -14
-20 -28 -30 -32 -37 -11 -16 -39 32 -42 48 -4 74 -18 66 -37 -2 -6 5 -17 15
-23 10 -7 19 -8 19 -3 0 5 -6 12 -12 14 -7 3 -2 6 12 6 14 0 34 -6 44 -14 11
-8 27 -13 36 -10 9 3 31 -6 50 -20 19 -14 38 -25 44 -25 5 0 18 -8 28 -17 18
-16 18 -17 -9 -28 -23 -9 -24 -12 -10 -18 9 -3 17 -2 17 3 0 16 56 11 71 -6
10 -13 10 -17 0 -24 -9 -5 1 -10 28 -15 30 -5 45 -13 51 -29 4 -12 15 -28 24
-35 31 -26 77 -104 80 -136 2 -18 6 -36 9 -41 9 -15 7 -133 -2 -139 -5 -2 -12
-17 -16 -32 -8 -32 -81 -123 -100 -123 -7 0 -23 -9 -37 -19 -44 -35 -192 -50
-273 -28 -154 41 -164 46 -281 165 -71 72 -83 88 -89 127 -3 25 -4 49 -1 54 4
5 2 11 -2 13 -17 6 -22 55 -7 68 12 10 12 15 -2 37 -16 24 -16 26 0 38 19 14
22 32 6 37 -16 5 1 39 25 48 17 7 18 9 4 9 -24 1 -22 17 5 45 12 12 32 40 44
62 12 21 31 44 43 50 17 9 18 12 6 17 -21 8 -20 23 4 47 20 20 20 20 -20 45
-41 26 -60 52 -60 81 0 11 6 15 20 11 13 -3 20 0 20 10 0 8 -4 12 -9 8 -5 -3
-12 -1 -16 5 -3 5 9 19 27 30 19 11 26 20 17 20 -9 0 -24 -9 -34 -20 -10 -11
-31 -20 -47 -20 -15 0 -28 -4 -28 -9 0 -18 -45 -21 -57 -4 -10 13 -15 14 -27
4 -21 -17 -79 -5 -72 15 4 10 -2 14 -22 13 -15 -1 -40 3 -56 10 -23 9 -26 14
-16 26 10 12 9 15 -4 15 -9 0 -16 -5 -16 -11 0 -5 -16 2 -35 17 -33 25 -34 28
-18 41 16 13 15 13 -14 8 -25 -5 -34 -2 -47 17 -10 13 -12 24 -6 26 16 6 11
22 -7 22 -9 0 -25 7 -35 17 -17 15 -18 15 -18 -5 0 -12 -4 -22 -10 -22 -5 0
-10 -4 -10 -10 0 -5 7 -10 15 -10 8 0 15 5 15 12 0 6 2 9 5 6 10 -10 -8 -39
-21 -34 -8 3 -18 -4 -24 -14 -18 -35 -143 -20 -178 20 -48 56 -48 60 -11 91
29 24 31 27 10 22 -21 -5 -22 -4 -12 15 6 12 20 26 31 32 27 14 92 12 115 -4
19 -13 20 -11 20 43 1 31 5 65 9 76 5 11 9 29 10 40 1 13 9 21 24 23 15 2 22
9 18 17 -11 29 92 98 174 116 37 8 106 3 124 -9z m1316 -2 c0 -5 -4 -10 -10
-10 -5 0 -10 5 -10 10 0 6 5 10 10 10 6 0 10 -4 10 -10z m305 0 c3 -5 -1 -10
-9 -10 -9 0 -16 5 -16 10 0 6 4 10 9 10 6 0 13 -4 16 -10z m-7285 -76 c0 -2
-6 -4 -14 -4 -15 0 -29 38 -19 52 4 8 33 -34 33 -48z m7360 25 c0 -5 -7 -9
-15 -9 -15 0 -20 12 -9 23 8 8 24 -1 24 -14z m-1330 -14 c12 -15 7 -45 -8 -45
-20 0 -45 28 -39 44 8 20 31 21 47 1z m-4900 -40 c5 -14 17 -25 27 -25 17 1
17 1 1 11 -10 5 -18 16 -18 24 0 17 53 10 85 -12 11 -7 27 -13 37 -13 30 0
162 -114 180 -156 25 -60 30 -83 21 -96 -4 -7 -8 -27 -8 -44 l0 -32 24 19 c16
13 40 19 73 19 40 0 53 -5 73 -26 13 -14 22 -31 19 -39 -3 -7 2 -15 10 -18 39
-15 1 -107 -44 -107 -10 0 -20 -5 -22 -12 -6 -18 -89 -17 -121 1 -20 11 -29
26 -34 55 -6 37 -7 38 -22 19 -9 -11 -24 -23 -33 -26 -10 -4 -16 -12 -13 -19
2 -7 -23 -42 -56 -78 -33 -36 -58 -57 -55 -47 8 26 -13 21 -23 -6 -12 -31 -28
-43 -79 -58 -31 -9 -51 -10 -77 -2 -21 7 -37 7 -41 2 -8 -14 -40 -11 -54 6 -7
8 -22 15 -34 15 -12 0 -32 7 -44 16 -13 9 -26 14 -29 11 -2 -3 4 -10 15 -16
62 -33 70 -91 21 -140 -17 -17 -35 -31 -41 -31 -6 0 0 -9 13 -21 13 -11 24
-25 24 -29 0 -5 20 -22 45 -38 54 -34 184 -177 175 -192 -3 -5 -2 -10 4 -10
13 0 44 -58 36 -69 -2 -5 2 -11 10 -15 9 -3 15 -18 15 -36 0 -24 -4 -30 -22
-31 -22 -1 -22 -1 2 -8 24 -7 25 -11 24 -72 -1 -35 -9 -84 -18 -109 -20 -51
-84 -140 -102 -140 -7 0 -14 -7 -18 -15 -3 -8 -12 -15 -19 -15 -8 0 -21 -7
-28 -16 -35 -43 -208 -88 -330 -86 -68 0 -85 5 -149 38 -78 40 -160 113 -160
142 0 10 -4 22 -9 27 -20 22 -22 53 -4 71 17 17 17 17 1 11 -15 -5 -18 0 -18
33 0 22 5 40 11 40 5 0 7 5 4 11 -12 18 36 151 56 156 10 3 15 11 13 18 -6 14
152 179 205 216 49 33 98 57 132 64 50 11 84 65 40 65 -16 0 -81 61 -81 75 0
14 33 85 40 85 4 0 18 16 29 36 l21 35 -44 42 c-24 23 -52 58 -62 77 -18 36
-28 140 -13 140 4 0 11 16 15 36 4 19 13 38 20 41 9 3 12 13 7 31 -4 18 -1 29
13 39 16 12 17 16 6 34 -10 16 -10 24 -1 35 10 12 15 10 36 -11 26 -26 60 -41
70 -31 4 3 -1 6 -10 6 -9 0 -17 6 -17 13 0 12 34 47 46 47 3 0 14 10 24 22 13
17 15 25 7 31 -8 6 -5 7 6 3 11 -4 31 2 47 14 15 11 39 20 52 20 12 0 30 5 38
10 30 19 70 12 80 -15z m5450 -2 c27 -22 31 -31 26 -57 -4 -17 -7 -40 -7 -50
0 -11 -7 -25 -16 -31 -8 -6 -14 -20 -11 -30 3 -17 11 -19 66 -17 34 1 62 -1
61 -5 -3 -21 3 -22 26 -7 20 13 25 13 25 3 0 -17 45 -39 78 -39 13 0 48 -20
79 -45 30 -25 60 -45 67 -45 7 0 22 -13 34 -30 13 -16 31 -30 41 -30 9 0 28
-11 41 -25 20 -21 21 -25 6 -25 -9 0 -26 5 -37 10 -26 15 -25 10 21 -63 39
-62 40 -65 34 -132 -3 -38 -7 -72 -10 -77 -3 -4 -24 -13 -47 -19 -23 -6 -36
-14 -29 -16 6 -3 12 -11 12 -19 0 -21 60 -17 88 5 12 11 22 24 22 30 0 6 7 11
16 11 11 0 14 6 9 20 -5 14 -2 20 9 20 21 0 20 17 -1 29 -16 9 -16 12 -3 20
13 9 12 12 -4 24 -11 8 -16 19 -12 25 10 17 46 15 46 -3 0 -8 5 -15 10 -15 6
0 10 -6 10 -12 0 -7 7 -26 15 -41 10 -20 12 -34 5 -46 -6 -12 -5 -22 2 -29 5
-5 7 -16 3 -22 -5 -8 -10 -9 -18 -1 -6 6 -18 11 -26 10 -10 0 -7 -4 7 -9 12
-5 22 -18 22 -28 0 -24 -46 -75 -60 -67 -6 3 -10 1 -10 -4 0 -6 -17 -11 -37
-11 -51 0 -88 -11 -73 -20 27 -17 -50 -20 -114 -6 -110 26 -231 95 -315 181
-68 68 -73 77 -69 110 2 19 0 35 -4 35 -4 0 -8 10 -8 23 0 18 -2 19 -10 7 -8
-12 -10 -9 -10 13 0 15 -5 27 -11 27 -8 0 -7 5 1 15 11 13 10 14 -3 10 -18 -8
-32 11 -20 28 10 14 10 68 -1 85 -3 6 -2 13 4 17 5 3 10 16 10 28 0 12 7 34
14 49 13 25 13 29 -2 37 -15 9 -15 11 1 28 9 11 17 25 17 31 0 7 6 12 13 12 6
1 -4 9 -23 19 -50 27 -77 58 -62 73 7 7 12 18 12 26 0 18 29 41 52 42 9 0 31
-12 48 -27z m-572 -52 c3 -8 -1 -12 -9 -9 -7 2 -15 10 -17 17 -3 8 1 12 9 9 7
-2 15 -10 17 -17z m33 -33 c11 -21 11 -22 -4 -9 -10 7 -17 17 -17 22 0 15 9
10 21 -13z m-5337 6 c23 -9 20 -31 -5 -45 -17 -9 -25 -8 -37 5 -13 12 -13 18
-2 30 14 18 21 19 44 10z m5303 -16 c-3 -8 -6 -5 -6 6 -1 11 2 17 5 13 3 -3 4
-12 1 -19z m287 6 c16 -6 23 -44 9 -44 -5 1 -21 12 -38 25 -28 23 -28 25 -8
25 12 0 28 -3 37 -6z m-196 -34 c12 -16 22 -40 22 -54 0 -13 6 -27 13 -29 17
-7 -7 -24 -32 -22 -35 2 -95 65 -62 65 5 0 7 9 4 20 -4 15 -2 19 10 14 12 -4
14 -1 10 15 -8 30 10 26 35 -9z m-7028 -20 c0 -13 -38 -32 -50 -25 -22 14 -10
35 20 35 17 0 30 -4 30 -10z m1620 -39 c-6 -20 -5 -31 3 -34 16 -5 -9 -84 -39
-124 -23 -30 -64 -45 -64 -24 0 5 -10 11 -22 13 -21 3 -20 4 10 38 18 19 30
40 28 47 -3 6 6 18 18 27 14 9 26 29 30 50 5 26 12 36 26 36 16 0 17 -4 10
-29z m7305 19 c-3 -5 -11 -10 -16 -10 -6 0 -7 5 -4 10 3 6 11 10 16 10 6 0 7
-4 4 -10z m-95 -10 c0 -5 -5 -10 -11 -10 -5 0 -7 5 -4 10 3 6 8 10 11 10 2 0
4 -4 4 -10z m-7390 -19 c0 -24 -18 -37 -32 -23 -8 8 -7 16 2 27 17 21 30 19
30 -4z m5760 -36 c5 3 10 2 10 -4 0 -10 -31 -31 -45 -31 -4 0 -5 6 -2 14 3 7
0 19 -6 25 -9 9 -8 14 3 21 11 7 17 4 22 -11 4 -11 12 -17 18 -14z m-5790 -17
c0 -4 -10 -8 -21 -8 -18 0 -19 -3 -9 -15 10 -12 9 -16 -4 -21 -9 -3 -16 -12
-16 -20 0 -8 -5 -14 -11 -14 -6 0 -9 7 -5 15 3 9 0 15 -10 15 -9 0 -18 9 -21
20 -3 11 -14 20 -24 20 -10 0 -20 4 -23 8 -2 4 29 8 70 8 41 0 74 -4 74 -8z
m5688 -5 c2 -8 -5 -13 -17 -13 -21 0 -35 13 -24 24 10 10 36 3 41 -11z m-1272
-23 c8 0 13 -6 12 -12 -2 -7 8 -14 22 -15 14 -1 19 0 13 3 -7 3 -13 13 -13 21
0 19 50 13 110 -13 30 -14 40 -24 40 -42 0 -13 4 -21 9 -17 5 3 12 1 16 -4 3
-6 12 -8 19 -5 17 6 41 -22 26 -31 -14 -9 -13 -25 3 -25 6 0 23 -9 37 -20 23
-17 24 -21 11 -42 -13 -20 -12 -22 1 -11 12 10 18 8 35 -15 35 -47 57 -96 60
-131 3 -41 3 -42 32 -34 19 5 22 10 16 32 -3 14 -8 37 -9 51 -3 21 -2 21 1 2
4 -22 5 -22 17 -6 14 19 36 12 36 -12 0 -8 5 -14 11 -14 5 0 2 14 -8 30 -10
17 -22 29 -28 26 -20 -7 -37 32 -25 55 13 24 30 16 23 -11 -4 -15 2 -22 21
-30 18 -7 35 -27 51 -62 30 -63 30 -73 8 -84 -26 -11 -72 -13 -78 -3 -9 13
-48 -31 -68 -75 -18 -40 -91 -116 -111 -116 -25 -1 -38 -17 -28 -36 5 -11 19
-38 31 -60 26 -52 26 -80 2 -121 -13 -21 -29 -33 -48 -35 -19 -2 -29 -9 -31
-23 -3 -20 23 -37 79 -50 15 -4 36 -16 47 -28 12 -12 38 -35 60 -52 21 -16 50
-44 63 -61 13 -17 35 -38 49 -46 14 -8 39 -41 55 -74 17 -32 37 -68 46 -79 47
-60 56 -247 15 -309 -9 -14 -16 -30 -16 -36 0 -19 -93 -120 -110 -120 -9 0
-33 -9 -54 -19 -36 -19 -133 -38 -166 -34 -8 2 -40 5 -70 7 -104 8 -260 72
-252 104 1 7 -5 12 -12 12 -33 0 -116 114 -116 158 0 11 -7 25 -15 32 -20 17
-19 60 3 76 16 13 16 13 0 14 -13 0 -18 8 -18 29 0 17 4 32 9 35 5 3 7 15 4
25 -3 11 2 32 10 48 8 15 19 41 23 58 6 19 18 32 34 36 18 5 20 7 6 8 -12 1
-16 6 -13 16 12 29 82 115 94 115 7 0 13 4 13 10 0 14 120 90 143 90 10 0 15
5 12 11 -4 5 3 19 15 29 l22 19 -36 32 c-29 25 -36 38 -36 68 0 20 7 46 15 58
13 19 13 21 -8 27 -12 3 -26 1 -31 -4 -15 -15 -52 -12 -66 5 -7 9 -20 13 -28
10 -26 -10 -84 6 -78 21 3 8 1 14 -3 14 -5 0 -11 -5 -13 -12 -6 -17 -59 23
-105 78 -30 37 -34 47 -22 55 11 7 9 9 -7 9 -23 0 -59 44 -49 60 11 18 -8 10
-26 -11 -16 -18 -23 -20 -48 -11 -17 6 -33 7 -36 3 -18 -31 -144 -16 -177 21
-9 10 -19 14 -22 9 -9 -14 5 -44 29 -63 15 -12 17 -19 9 -28 -9 -9 -8 -19 2
-40 8 -15 15 -44 16 -64 1 -23 6 -36 15 -36 7 0 13 -7 13 -15 0 -8 -4 -15 -8
-15 -4 0 -7 -12 -7 -27 1 -22 7 -29 28 -31 25 -3 27 0 27 32 0 20 5 36 11 36
6 0 9 9 6 20 -3 11 -1 23 4 26 5 3 9 0 9 -7 0 -10 3 -10 12 -1 10 10 10 15 -1
21 -20 13 -9 44 16 46 30 2 43 15 16 15 -11 0 -26 7 -33 15 -21 25 -43 -1 -35
-42 9 -47 -11 -41 -23 7 -9 36 -8 42 11 55 21 14 21 15 2 16 -14 0 -10 4 10
10 19 5 31 5 33 -1 2 -6 14 -7 26 -4 25 6 49 -15 44 -40 -2 -8 6 -22 17 -30
l20 -16 -20 2 c-55 4 -68 -1 -61 -24 4 -13 14 -52 22 -88 7 -36 20 -70 28 -76
13 -9 13 -17 1 -56 -7 -26 -11 -49 -8 -52 4 -3 23 -6 44 -6 33 0 41 5 54 30 9
17 12 30 7 30 -5 0 -14 -10 -21 -22 -9 -18 -10 -19 -6 -3 4 11 7 24 8 30 3 17
27 36 36 30 6 -3 8 -13 4 -23 -3 -9 7 0 21 21 15 21 31 35 37 32 13 -8 12 -45
-2 -45 -15 0 -36 -23 -40 -45 -2 -10 -19 -28 -37 -38 -56 -33 -152 -19 -138
20 4 9 -3 13 -19 13 -16 0 -25 6 -25 15 0 11 11 15 38 15 34 1 35 2 18 15 -13
10 -25 11 -42 5 -15 -6 -24 -6 -24 0 0 6 -18 10 -40 10 -35 0 -47 -7 -101 -59
-35 -34 -67 -57 -75 -54 -7 3 -21 -2 -29 -11 -9 -9 -33 -16 -53 -17 l-37 -1
33 -10 c34 -12 37 -15 23 -37 -6 -9 -2 -27 11 -52 17 -33 18 -43 8 -74 -12
-37 -43 -65 -71 -65 -13 0 -16 -6 -11 -22 7 -30 21 -43 54 -51 15 -4 33 -14
42 -22 8 -8 18 -15 23 -15 14 0 148 -142 181 -193 18 -26 35 -60 39 -75 3 -15
12 -32 19 -39 18 -18 35 -109 36 -191 1 -107 -58 -216 -151 -278 -62 -41 -60
-40 -121 -57 -103 -30 -265 -17 -365 27 -63 28 -146 101 -195 172 -30 42 -65
157 -54 175 3 6 7 31 9 57 1 26 6 61 10 77 10 42 57 136 71 142 7 2 15 16 18
29 4 16 18 29 37 36 19 6 26 13 19 18 -27 17 177 159 232 161 12 0 17 3 10 6
-10 4 -8 9 7 20 20 14 20 15 -19 52 -30 28 -40 46 -40 68 0 29 22 96 31 93 13
-5 59 14 52 21 -5 5 -22 4 -39 -3 -18 -6 -39 -8 -50 -3 -10 4 -23 7 -29 6 -27
-8 -58 -2 -75 14 -10 9 -24 14 -30 10 -17 -11 -81 27 -75 43 3 10 0 12 -10 8
-14 -5 -60 44 -60 65 0 5 -6 14 -14 18 -8 5 -15 25 -16 44 -1 19 -10 45 -19
58 -21 30 -20 49 2 49 14 0 13 4 -6 18 -17 14 -23 26 -20 47 4 39 -15 42 -29
5 -23 -60 -147 -86 -211 -44 -13 8 -29 29 -36 46 -17 39 -25 18 -15 -37 4 -22
5 -43 3 -47 -2 -4 -6 -31 -8 -60 -3 -29 -10 -66 -17 -83 -7 -16 -11 -36 -10
-43 1 -8 -3 -20 -10 -28 -9 -11 -8 -14 8 -14 10 0 24 -5 30 -11 14 -14 33 -3
33 17 0 8 18 43 40 76 35 55 40 59 40 35 0 -15 -7 -30 -15 -33 -20 -8 -20
-111 0 -138 18 -23 20 -87 4 -103 -8 -8 -4 -15 17 -27 26 -14 27 -15 7 -16
-42 0 -76 19 -70 40 4 17 0 20 -29 20 -27 0 -34 4 -34 19 0 11 5 23 10 26 6 3
10 1 10 -5 0 -6 10 -10 23 -9 12 2 29 -1 37 -6 13 -8 13 -7 1 8 -7 9 -22 17
-32 17 -11 0 -19 4 -19 9 0 5 -16 15 -35 22 -19 7 -35 20 -35 29 0 11 -5 10
-18 -6 -20 -25 -77 -56 -86 -47 -3 3 -15 -2 -26 -12 -11 -10 -34 -19 -52 -20
-18 -1 -42 -5 -52 -10 -11 -5 -31 -4 -49 3 -22 8 -34 9 -44 1 -7 -6 -24 -8
-38 -5 -18 5 -25 2 -25 -9 0 -9 9 -15 24 -15 13 0 30 -2 38 -3 7 -2 10 -2 6 0
-16 9 -7 23 12 23 11 0 23 -7 26 -15 4 -8 15 -15 26 -15 18 0 19 -2 7 -16 -8
-9 -12 -35 -10 -65 2 -46 -1 -53 -32 -83 -33 -31 -34 -34 -20 -59 7 -15 17
-27 22 -27 4 0 24 -11 44 -24 19 -13 37 -23 39 -21 4 4 114 -100 137 -129 41
-54 82 -125 101 -179 12 -34 26 -70 31 -79 5 -10 7 -56 4 -103 -3 -63 -11 -98
-30 -139 -25 -52 -117 -156 -139 -156 -5 0 -17 -6 -25 -13 -9 -8 -52 -24 -95
-37 -69 -20 -94 -22 -185 -17 -126 7 -184 26 -270 92 -84 64 -117 113 -131
193 -19 104 -6 188 44 292 43 90 52 102 118 171 80 83 124 115 190 141 29 11
56 25 60 31 12 19 9 37 -6 37 -8 0 -28 16 -45 35 -36 42 -40 81 -11 118 13 17
17 28 10 32 -14 8 5 33 35 46 14 7 10 8 -17 4 -30 -5 -40 -2 -49 14 -7 10 -19
17 -26 14 -19 -8 -73 17 -73 33 0 8 -9 14 -20 14 -13 0 -32 19 -57 56 -36 54
-37 58 -37 152 -1 88 -3 99 -23 115 -39 32 -23 77 19 56 21 -11 32 18 20 52
l-9 24 -7 -22 c-11 -35 -64 -61 -123 -61 -66 0 -123 42 -123 89 0 79 59 139
136 139 62 0 124 -60 124 -120 0 -27 27 -26 35 3 8 24 104 114 117 109 5 -1
22 5 39 14 36 18 252 23 272 6 7 -6 28 -12 47 -14 25 -2 38 -10 45 -25 11 -25
28 -32 19 -8 -10 26 10 16 58 -27 48 -43 87 -104 89 -136 0 -9 7 1 15 23 40
111 171 120 250 17 31 -41 34 -43 35 -21 3 54 7 68 28 97 11 17 21 35 21 41 0
6 7 11 14 11 8 0 27 11 41 24 26 24 87 41 93 25 2 -5 13 -8 25 -8 17 1 18 2 5
6 -32 8 -19 31 20 36 20 3 70 10 111 16 71 10 76 10 99 -12 17 -15 26 -18 29
-9 3 6 14 12 25 12 33 0 128 -49 128 -65 0 -13 33 -55 43 -55 2 0 1 15 -1 34
-7 64 50 116 127 116 33 0 49 -7 80 -35 44 -40 56 -44 48 -15 -11 44 57 199
89 200 6 0 21 11 34 25 13 14 31 25 40 25 9 0 21 5 27 11 15 15 125 49 141 43
8 -2 20 -4 28 -4z m1324 -10 c-20 -13 -50 -13 -50 0 0 6 15 10 33 10 24 0 28
-3 17 -10z m-5755 -58 c6 -4 16 -19 22 -34 9 -21 9 -28 0 -32 -7 -2 3 -5 21
-5 44 -1 41 -21 -3 -21 -26 0 -43 7 -60 26 -28 30 -31 44 -13 62 14 14 19 15
33 4z m81 -23 c35 3 64 -23 46 -41 -15 -15 -74 6 -90 33 -11 17 -11 20 0 13 7
-4 27 -7 44 -5z m1543 -41 c100 -34 176 -90 208 -151 17 -34 22 -126 10 -193
-9 -54 -82 -199 -109 -218 -12 -9 -19 -18 -16 -21 8 -9 -31 -47 -73 -73 -38
-23 -89 -30 -89 -12 0 6 -4 10 -10 10 -5 0 -10 -7 -10 -15 0 -17 -45 -21 -55
-5 -10 16 -41 12 -65 -8 -20 -16 -21 -21 -10 -41 10 -19 9 -31 -5 -67 -9 -24
-25 -49 -34 -54 -16 -8 -17 -14 -8 -43 8 -26 25 -42 75 -72 35 -21 69 -47 75
-57 7 -10 17 -18 22 -18 6 0 18 -13 28 -29 13 -22 14 -30 5 -34 -7 -3 -3 -6 9
-6 13 -1 29 -15 44 -38 39 -65 70 -137 73 -169 2 -17 6 -36 10 -42 8 -14 0
-104 -15 -165 -8 -29 -30 -70 -60 -106 -26 -33 -45 -62 -42 -65 3 -3 -8 -8
-23 -12 -16 -4 -36 -12 -44 -19 -40 -34 -138 -68 -217 -76 -45 -4 -86 -10 -90
-12 -13 -8 -139 20 -176 39 -61 31 -135 95 -153 132 -9 20 -24 48 -34 62 -24
35 -26 171 -4 235 34 101 68 157 138 228 115 117 199 175 272 191 45 10 56 56
13 56 -25 0 -69 57 -69 89 0 16 10 44 23 62 13 19 22 40 19 47 -2 6 4 20 14
29 16 16 15 18 -10 24 -35 10 -132 104 -146 143 -6 17 -16 39 -21 49 -5 10 -6
23 -2 29 3 7 8 26 10 43 2 16 10 45 19 63 9 19 13 36 10 39 -3 3 6 19 19 35
19 23 23 34 15 48 -13 25 -13 43 1 38 15 -5 71 51 63 63 -3 5 3 12 13 16 10 3
30 17 45 31 14 13 31 21 37 18 6 -4 11 -3 11 3 0 9 41 25 90 35 48 9 126 -4
219 -36z m3296 -23 c0 -12 -8 -21 -20 -23 -28 -3 -49 13 -42 33 10 25 62 16
62 -10z m-80 5 c4 -6 1 -18 -6 -26 -19 -24 -20 -46 -2 -66 9 -10 13 -21 9 -26
-13 -12 -66 60 -66 89 0 21 6 29 23 32 12 2 25 5 29 6 4 0 10 -4 13 -9z m1837
-51 c-3 -22 2 -27 28 -33 20 -3 30 -11 27 -18 -2 -7 -10 -12 -16 -10 -6 1 -11
-3 -11 -9 0 -6 -16 6 -35 25 -19 20 -35 41 -35 46 0 6 -4 10 -10 10 -5 0 -10
5 -10 11 0 6 14 9 33 7 28 -3 32 -6 29 -29z m-5640 -71 c32 1 47 -16 21 -24
-10 -3 -30 -12 -45 -20 -37 -20 -47 -18 -54 10 -8 34 3 49 30 41 11 -4 33 -7
48 -7z m4173 -23 c48 -14 48 -15 10 -10 -22 3 -48 5 -57 5 -10 0 -18 5 -18 10
0 13 5 13 65 -5z m-4105 -12 c0 -12 -62 -103 -71 -103 -16 0 -10 38 12 74 12
21 29 36 40 36 10 0 19 -3 19 -7z m4065 -36 c19 -15 13 -37 -9 -37 -18 0 -39
27 -31 40 8 13 17 13 40 -3z m-4155 -21 c0 -7 -9 -25 -21 -40 -11 -14 -16 -26
-10 -26 5 0 13 5 17 11 10 16 24 -10 24 -44 0 -53 -55 -152 -70 -127 -4 6 -18
12 -31 13 -48 3 -57 57 -9 57 20 0 43 23 33 33 -3 4 2 31 11 62 10 30 17 57
16 61 -2 10 23 24 32 18 4 -3 8 -11 8 -18z m-207 -68 c-5 -9 -63 19 -63 30 0
5 5 13 12 20 9 9 17 6 34 -15 12 -16 20 -31 17 -35z m-166 1 c13 -5 25 -4 28
1 9 15 55 12 55 -4 0 -9 -16 -15 -45 -18 -61 -7 -109 4 -113 25 -3 15 1 17 25
11 15 -4 38 -11 50 -15z m4485 -5 c16 29 29 17 14 -13 -17 -32 -90 -63 -125
-54 -33 8 -24 23 13 23 29 0 36 5 45 31 10 29 12 30 27 14 16 -15 18 -15 26
-1z m-105 -11 c6 -17 -45 -29 -60 -14 -9 9 -8 14 3 21 19 13 52 9 57 -7z
m-4247 -23 c0 -5 -5 -10 -11 -10 -5 0 -7 5 -4 10 3 6 8 10 11 10 2 0 4 -4 4
-10z m5830 0 c0 -5 -4 -10 -10 -10 -5 0 -10 5 -10 10 0 6 5 10 10 10 6 0 10
-4 10 -10z m-5674 -27 c-10 -10 -19 5 -10 18 6 11 8 11 12 0 2 -7 1 -15 -2
-18z m-195 8 c-11 -7 -9 -13 8 -30 12 -12 26 -19 32 -15 12 7 61 -35 54 -47
-3 -4 2 -15 11 -24 15 -14 18 -14 33 0 21 18 57 20 67 3 12 -18 -25 -39 -49
-27 -15 9 -23 7 -36 -6 -15 -16 -14 -17 12 -11 16 4 27 2 27 -4 0 -15 -67 -12
-98 4 -29 15 -66 69 -55 80 4 3 13 -8 21 -26 9 -21 16 -28 19 -19 7 18 -27 63
-60 79 -40 19 -35 52 7 52 16 0 18 -2 7 -9z m3433 -100 c-6 -6 -24 19 -24 34
1 6 7 1 15 -9 8 -11 12 -22 9 -25z m2483 3 c-3 -3 -12 -4 -19 -1 -8 3 -5 6 6
6 11 1 17 -2 13 -5z m-4631 -37 c3 -2 -5 -30 -17 -61 -20 -51 -21 -61 -9 -96
15 -47 7 -130 -15 -146 -8 -6 -15 -15 -15 -20 -1 -25 -18 -36 -39 -25 -30 17
-27 41 7 41 24 1 25 2 8 11 -14 9 -22 7 -34 -5 -14 -14 -15 -20 -4 -37 8 -12
12 -22 10 -23 -2 -1 -20 -9 -42 -19 -36 -17 -40 -17 -75 0 -21 11 -44 33 -56
56 -11 20 -28 40 -38 43 -10 3 -17 13 -15 22 4 21 57 26 65 6 3 -7 9 -12 13
-9 13 8 32 -23 28 -47 -2 -13 -9 -22 -16 -20 -8 1 -11 -2 -7 -8 3 -6 11 -8 16
-4 6 3 19 -3 30 -15 11 -12 24 -21 29 -21 15 0 32 40 27 62 -7 24 26 61 41 46
14 -14 52 0 52 20 0 13 -2 13 -14 -3 -12 -17 -13 -17 -18 9 -3 14 -1 29 3 32
5 3 9 20 9 39 0 18 4 35 9 37 4 2 12 29 15 61 7 57 7 58 -13 48 -30 -17 -49
-13 -57 11 -11 36 18 49 73 33 25 -8 47 -16 49 -18z m2194 -12 c19 -19 29 -35
23 -35 -6 0 -23 16 -37 35 -15 19 -25 35 -23 35 1 0 18 -16 37 -35z m-1090
-11 c18 -46 11 -55 -23 -29 -13 9 -17 20 -12 34 9 28 23 26 35 -5z m1011 -36
c16 -30 3 -20 -27 20 -23 30 -24 33 -5 17 13 -11 27 -28 32 -37z m-2256 12
c-3 -5 -12 -10 -18 -10 -7 0 -6 4 3 10 19 12 23 12 15 0z m-715 -40 c22 -27
27 -40 17 -40 -13 0 -67 60 -67 74 0 17 22 2 50 -34z m-3702 -13 c-13 -19 -28
-43 -35 -53 -11 -18 -12 -18 -12 3 -1 21 57 99 66 90 2 -3 -6 -20 -19 -40z
m5576 -17 c7 -25 30 -73 53 -106 51 -75 61 -107 38 -125 -9 -8 -25 -22 -36
-31 -27 -26 -30 -23 -24 25 12 90 4 134 -31 186 -13 19 -20 39 -17 44 3 6 1 7
-5 3 -15 -9 -62 11 -62 27 0 23 21 35 47 28 20 -5 29 -17 37 -51z m-1161 21
c-9 -12 -22 -21 -27 -21 -5 0 1 11 14 25 28 30 39 26 13 -4z m2587 -8 c0 -12
-8 -14 -41 -10 -44 6 -54 11 -46 24 10 15 87 2 87 -14z m-2660 -13 c-6 -11
-13 -20 -16 -20 -2 0 0 9 6 20 6 11 13 20 16 20 2 0 0 -9 -6 -20z m2420 1 c0
-6 -4 -13 -10 -16 -5 -3 -10 1 -10 9 0 9 5 16 10 16 6 0 10 -4 10 -9z m-1058
-38 c3 -21 8 -47 12 -58 4 -11 0 -7 -9 9 -19 32 -28 86 -16 86 5 0 11 -17 13
-37z m-1440 15 c2 -6 15 -12 29 -13 22 -2 24 -6 22 -45 -2 -42 -8 -58 -19 -48
-3 3 -6 15 -7 27 -1 11 -8 21 -17 21 -8 0 -23 7 -33 14 -15 12 -16 18 -7 35
12 23 26 27 32 9z m108 -3 c-7 -8 -16 -12 -21 -9 -13 8 -1 24 18 24 13 0 13
-3 3 -15z m1174 -28 c-2 -7 -13 -18 -24 -25 -17 -10 -20 -10 -20 3 0 12 19 26
47 34 1 1 0 -5 -3 -12z m-1334 -26 c0 -6 -6 -13 -12 -18 -21 -12 -158 -31
-164 -22 -7 13 22 22 47 16 12 -3 32 1 44 9 12 8 29 12 38 9 8 -4 18 -2 22 4
8 14 25 14 25 2z m1380 -33 c0 -6 -7 -5 -15 2 -8 7 -15 17 -15 22 0 6 7 5 15
-2 8 -7 15 -17 15 -22z m760 -63 c-19 -19 -41 -35 -49 -35 -9 0 3 16 29 39 54
47 67 44 20 -4z m-590 25 c0 -5 -5 -10 -11 -10 -5 0 -7 5 -4 10 3 6 8 10 11
10 2 0 4 -4 4 -10z m-250 -63 c0 -5 -4 -5 -10 -2 -5 3 -10 14 -10 23 0 15 2
15 10 2 5 -8 10 -19 10 -23z m-715 -76 c-6 -6 -55 28 -82 57 -43 46 -23 44 31
-5 30 -26 53 -49 51 -52z m1087 54 c29 -14 61 -25 71 -25 9 0 17 -5 17 -10 0
-15 -72 -5 -115 16 -19 9 -35 23 -35 30 0 18 -1 18 62 -11z m-574 -7 c-7 -19
-62 -54 -113 -72 -39 -13 -45 -13 -45 0 0 8 9 14 20 14 26 0 92 33 109 54 16
19 34 21 29 4z m380 -35 c-2 -20 -8 -27 -20 -25 -10 2 -18 -3 -18 -11 0 -16
-57 -47 -84 -47 -15 0 -15 2 0 25 19 29 92 84 112 85 9 0 12 -10 10 -27z m342
-3 c0 -5 -4 -10 -10 -10 -5 0 -10 5 -10 10 0 6 5 10 10 10 6 0 10 -4 10 -10z
m4646 -37 c-10 -10 -19 5 -10 18 6 11 8 11 12 0 2 -7 1 -15 -2 -18z m-1058
-124 c-2 -6 -8 -10 -13 -10 -5 0 -11 4 -13 10 -2 6 4 11 13 11 9 0 15 -5 13
-11z m-9673 -379 c-3 -5 -11 -10 -16 -10 -6 0 -7 5 -4 10 3 6 11 10 16 10 6 0
7 -4 4 -10z m4265 -330 c0 -5 -7 -10 -15 -10 -8 0 -15 5 -15 10 0 6 7 10 15
10 8 0 15 -4 15 -10z m-2135 -2190 c-3 -5 -11 -10 -16 -10 -6 0 -7 5 -4 10 3
6 11 10 16 10 6 0 7 -4 4 -10z m-1864 -283 c-13 -13 -26 -3 -16 12 3 6 11 8
17 5 6 -4 6 -10 -1 -17z m99 -327 c0 -5 -4 -10 -10 -10 -5 0 -10 5 -10 10 0 6
5 10 10 10 6 0 10 -4 10 -10z m56 -157 c-10 -10 -19 5 -10 18 6 11 8 11 12 0
2 -7 1 -15 -2 -18z m305 -706 c-8 -8 -11 -5 -11 9 0 27 14 41 18 19 2 -9 -1
-22 -7 -28z m9477 -133 c-10 -10 -28 6 -28 24 0 15 1 15 17 -1 9 -9 14 -19 11
-23z m-9618 -144 c0 -5 -5 -10 -11 -10 -5 0 -7 5 -4 10 3 6 8 10 11 10 2 0 4
-4 4 -10z m20 -178 c0 -13 -12 -22 -22 -16 -10 6 -1 24 13 24 5 0 9 -4 9 -8z
m0 -63 c0 -6 -4 -7 -10 -4 -5 3 -10 11 -10 16 0 6 5 7 10 4 6 -3 10 -11 10
-16z m20 -34 c0 -8 -4 -15 -10 -15 -5 0 -7 7 -4 15 4 8 8 15 10 15 2 0 4 -7 4
-15z m98 -128 c-5 -9 -6 -23 -3 -30 4 -6 0 -4 -8 5 -11 14 -12 25 -3 53 10 32
12 34 17 13 3 -13 2 -31 -3 -41z m-38 -31 c0 -16 -18 -31 -27 -22 -8 8 5 36
17 36 5 0 10 -6 10 -14z m50 -179 c0 -10 -4 -15 -10 -12 -5 3 -10 18 -10 33 0
21 2 24 10 12 5 -8 10 -23 10 -33z m25 -36 c3 -5 1 -12 -5 -16 -5 -3 -10 1
-10 9 0 18 6 21 15 7z m31 -119 c-4 -3 -11 -1 -18 6 -8 8 -8 15 3 28 13 16 14
16 17 -5 2 -13 1 -25 -2 -29z m24 -102 c0 -5 -5 -10 -11 -10 -5 0 -7 5 -4 10
3 6 8 10 11 10 2 0 4 -4 4 -10z m60 -215 c0 -8 -4 -15 -9 -15 -13 0 -22 16
-14 24 11 11 23 6 23 -9z m59 -209 c9 -11 8 -15 -5 -20 -11 -4 -15 -2 -11 8 3
8 1 17 -6 20 -8 3 -8 5 -1 5 6 1 17 -5 23 -13z m11 -76 c-24 -16 -31 -11 -19
11 8 16 14 18 22 10 9 -9 8 -14 -3 -21z m80 -54 c0 -3 -4 -8 -10 -11 -5 -3
-10 -1 -10 4 0 6 5 11 10 11 6 0 10 -2 10 -4z m-29 -219 c-13 -13 -26 -3 -16
12 3 6 11 8 17 5 6 -4 6 -10 -1 -17z m8714 -7 c3 -5 2 -10 -4 -10 -5 0 -13 5
-16 10 -3 6 -2 10 4 10 5 0 13 -4 16 -10z m-8563 -182 c-7 -7 -12 -8 -12 -2 0
14 12 26 19 19 2 -3 -1 -11 -7 -17z m-72 -103 c0 -8 -4 -15 -10 -15 -5 0 -10
7 -10 15 0 8 5 15 10 15 6 0 10 -7 10 -15z m1580 -534 c0 -6 -4 -13 -10 -16
-5 -3 -10 1 -10 9 0 9 5 16 10 16 6 0 10 -4 10 -9z m6768 -167 c-10 -10 -28 6
-28 24 0 15 1 15 17 -1 9 -9 14 -19 11 -23z m-7588 -494 c0 -5 -4 -10 -10 -10
-5 0 -10 5 -10 10 0 6 5 10 10 10 6 0 10 -4 10 -10z m-190 -40 c0 -5 -4 -10
-10 -10 -5 0 -10 5 -10 10 0 6 5 10 10 10 6 0 10 -4 10 -10z m-30 -150 c0 -5
-4 -10 -10 -10 -5 0 -10 5 -10 10 0 6 5 10 10 10 6 0 10 -4 10 -10z m105 -150
c-3 -5 -11 -10 -16 -10 -6 0 -7 5 -4 10 3 6 11 10 16 10 6 0 7 -4 4 -10z m235
-410 c0 -5 -5 -10 -11 -10 -5 0 -7 5 -4 10 3 6 8 10 11 10 2 0 4 -4 4 -10z
m6780 -28 c0 -13 -12 -22 -22 -16 -10 6 -1 24 13 24 5 0 9 -4 9 -8z m-6680
-97 c0 -8 -4 -15 -10 -15 -5 0 -10 7 -10 15 0 8 5 15 10 15 6 0 10 -7 10 -15z
m50 -96 c0 -20 -15 -26 -25 -9 -9 15 3 43 15 35 5 -3 10 -15 10 -26z m100 -41
c0 -19 -18 -43 -25 -36 -4 3 -2 16 5 27 12 24 20 27 20 9z m111 -127 c-6 -11
-11 -31 -11 -45 0 -16 -6 -26 -14 -26 -12 0 -11 10 5 55 10 30 20 69 21 87 1
27 2 26 5 -9 2 -23 -1 -51 -6 -62z m-152 30 c-3 -6 -10 -7 -18 -2 -7 5 -10 14
-6 21 9 14 29 -2 24 -19z m206 -121 c-3 -5 -12 -10 -18 -10 -7 0 -6 4 3 10 19
12 23 12 15 0z m-40 -106 c9 -26 10 -40 3 -43 -14 -5 -27 19 -21 37 4 8 -1 19
-10 24 -9 5 -14 15 -10 24 8 21 21 6 38 -42z m135 -133 c0 -6 -4 -13 -10 -16
-5 -3 -10 1 -10 9 0 9 5 16 10 16 6 0 10 -4 10 -9z m2195 -1812 c11 -17 -1
-21 -15 -4 -8 9 -8 15 -2 15 6 0 14 -5 17 -11z m-2215 -168 c0 -11 -4 -23 -10
-26 -6 -4 -10 5 -10 19 0 14 5 26 10 26 6 0 10 -9 10 -19z m-45 -90 c-3 -6
-11 -11 -17 -11 -6 0 -6 6 2 15 14 17 26 13 15 -4z m-24 -34 c-1 -4 -1 -16 -1
-27 0 -13 -5 -18 -16 -13 -10 4 -12 9 -5 16 5 5 7 16 4 25 -4 9 -1 13 6 11 7
-3 12 -8 12 -12z m-8 -82 c-3 -8 -9 -15 -14 -15 -10 0 -12 24 -3 33 11 11 24
-3 17 -18z"/>
<path d="M8460 15151 c0 -5 -8 -12 -17 -14 -15 -4 -15 -5 -2 -6 9 0 22 6 29
14 9 10 9 15 1 15 -6 0 -11 -4 -11 -9z"/>
<path d="M8530 14979 c0 -15 30 -23 43 -10 6 6 7 11 2 12 -6 0 -18 2 -27 4
-10 2 -18 -1 -18 -6z"/>
<path d="M8620 14986 c0 -2 8 -10 18 -17 15 -13 16 -12 3 4 -13 16 -21 21 -21
13z"/>
<path d="M8672 14944 c18 -19 125 -33 114 -15 -4 6 -16 9 -26 6 -10 -3 -37 1
-60 9 -38 13 -41 13 -28 0z"/>
<path d="M8530 14920 c0 -5 5 -10 11 -10 5 0 7 5 4 10 -3 6 -8 10 -11 10 -2 0
-4 -4 -4 -10z"/>
<path d="M8515 14890 c3 -5 11 -10 16 -10 6 0 7 5 4 10 -3 6 -11 10 -16 10 -6
0 -7 -4 -4 -10z"/>
<path d="M8443 14872 c-16 -10 5 -37 35 -46 21 -7 23 -6 13 11 -15 28 -35 43
-48 35z"/>
<path d="M8520 14840 c0 -5 5 -10 10 -10 15 0 12 -21 -7 -42 -15 -17 -15 -18
0 -18 10 0 20 0 25 -1 4 0 10 10 13 23 3 14 12 22 21 20 22 -3 34 18 17 29 -8
5 -16 3 -21 -4 -6 -9 -12 -9 -28 1 -24 15 -30 15 -30 2z"/>
<path d="M8850 14730 c0 -5 5 -10 11 -10 5 0 7 5 4 10 -3 6 -8 10 -11 10 -2 0
-4 -4 -4 -10z"/>
<path d="M2090 14990 c-9 -6 -10 -10 -3 -10 6 0 15 5 18 10 8 12 4 12 -15 0z"/>
<path d="M2019 14933 c-13 -16 -12 -17 4 -4 9 7 17 15 17 17 0 8 -8 3 -21 -13z"/>
<path d="M1943 14872 l-22 -17 24 -24 c28 -26 33 -50 10 -52 -8 -1 -19 -3 -25
-4 -5 -1 -13 -3 -17 -4 -5 -1 -1 -6 7 -11 12 -8 13 -13 2 -30 -11 -18 -10 -20
8 -20 11 0 20 -4 20 -10 0 -19 38 -47 73 -54 43 -8 53 4 25 28 l-21 19 21 16
c24 18 26 14 -43 118 -40 60 -41 61 -62 45z m45 -114 c-6 -18 -28 -21 -28 -4
0 9 7 16 16 16 9 0 14 -5 12 -12z"/>
<path d="M2332 14878 c-7 -7 -12 -18 -12 -25 0 -13 -36 -37 -57 -38 -6 0 -21
-13 -33 -28 -14 -18 -25 -25 -29 -18 -5 8 -13 6 -27 -4 -16 -13 -16 -14 -1 -9
26 9 21 -11 -8 -30 -31 -21 -39 -20 -31 2 5 15 4 14 -9 -2 -8 -10 -12 -23 -9
-28 3 -5 -2 -16 -12 -23 -24 -18 -7 -18 26 -1 21 12 29 12 53 0 27 -14 27 -14
15 5 -11 17 -10 23 5 38 14 15 21 16 37 5 18 -11 20 -10 20 13 0 29 38 55 50
35 5 -9 9 -9 14 -1 4 6 2 11 -4 11 -16 0 -2 42 18 58 14 10 14 14 3 21 -11 7
-10 11 5 20 11 6 14 11 9 11 -6 0 -16 -5 -23 -12z"/>
<path d="M2219 14843 c-13 -16 -12 -17 4 -4 9 7 17 15 17 17 0 8 -8 3 -21 -13z"/>
<path d="M2440 14850 c-9 -6 -10 -10 -3 -10 6 0 15 5 18 10 8 12 4 12 -15 0z"/>
<path d="M2381 14787 c-13 -21 -12 -21 5 -5 10 10 16 20 13 22 -3 3 -11 -5
-18 -17z"/>
<path d="M2126 14775 c-11 -8 -17 -17 -14 -20 2 -3 13 4 23 15 21 23 18 25 -9
5z"/>
<path d="M2423 14756 c1 -26 4 -32 18 -29 26 7 33 35 13 50 -27 20 -32 16 -31
-21z"/>
<path d="M2285 14660 c-3 -5 -1 -10 4 -10 6 0 11 5 11 10 0 6 -2 10 -4 10 -3
0 -8 -4 -11 -10z"/>
<path d="M2170 14620 c0 -5 5 -10 10 -10 6 0 10 5 10 10 0 6 -4 10 -10 10 -5
0 -10 -4 -10 -10z"/>
<path d="M2080 14569 c0 -5 5 -7 10 -4 6 3 10 8 10 11 0 2 -4 4 -10 4 -5 0
-10 -5 -10 -11z"/>
<path d="M8215 14790 l-30 -8 33 -1 c17 0 32 4 32 9 0 6 -1 9 -2 9 -2 -1 -16
-5 -33 -9z"/>
<path d="M8168 14753 c7 -3 16 -2 19 1 4 3 -2 6 -13 5 -11 0 -14 -3 -6 -6z"/>
<path d="M8350 14680 c0 -5 5 -10 10 -10 6 0 35 -18 65 -40 71 -53 71 -44 -1
14 -56 46 -74 55 -74 36z"/>
<path d="M8520 14636 c0 -2 8 -10 18 -17 15 -13 16 -12 3 4 -13 16 -21 21 -21
13z"/>
<path d="M8095 14600 c-3 -5 -1 -10 4 -10 6 0 11 5 11 10 0 6 -2 10 -4 10 -3
0 -8 -4 -11 -10z"/>
<path d="M8490 14586 c0 -2 8 -10 18 -17 15 -13 16 -12 3 4 -13 16 -21 21 -21
13z"/>
<path d="M8130 14540 c0 -5 4 -10 9 -10 6 0 13 5 16 10 3 6 -1 10 -9 10 -9 0
-16 -4 -16 -10z"/>
<path d="M8130 14470 c0 -5 7 -10 16 -10 8 0 12 5 9 10 -3 6 -10 10 -16 10 -5
0 -9 -4 -9 -10z"/>
<path d="M8645 14470 c3 -5 8 -10 11 -10 2 0 4 5 4 10 0 6 -5 10 -11 10 -5 0
-7 -4 -4 -10z"/>
<path d="M8537 14401 c-32 -32 -57 -64 -57 -70 0 -13 2 -14 34 -1 22 8 26 7
27 -8 0 -10 3 -12 6 -4 2 6 11 12 18 12 21 0 70 50 67 68 -2 8 1 18 7 21 6 4
-1 14 -18 24 l-28 16 -56 -58z m73 8 c0 -5 -4 -9 -10 -9 -5 0 -10 7 -10 16 0
8 5 12 10 9 6 -3 10 -10 10 -16z"/>
<path d="M8020 14430 c0 -5 5 -10 10 -10 6 0 10 -7 10 -15 0 -8 6 -15 14 -15
8 0 22 -3 32 -7 14 -5 13 0 -6 25 -22 30 -60 44 -60 22z"/>
<path d="M8270 14350 c0 -5 5 -10 10 -10 6 0 10 5 10 10 0 6 -4 10 -10 10 -5
0 -10 -4 -10 -10z"/>
<path d="M8415 14320 c3 -5 11 -10 16 -10 6 0 7 5 4 10 -3 6 -11 10 -16 10 -6
0 -7 -4 -4 -10z"/>
<path d="M8620 14310 c0 -5 5 -10 11 -10 5 0 7 5 4 10 -3 6 -8 10 -11 10 -2 0
-4 -4 -4 -10z"/>
<path d="M2559 14553 l-24 -28 28 24 c25 23 32 31 24 31 -2 0 -14 -12 -28 -27z"/>
<path d="M2460 14560 c0 -5 7 -7 15 -4 8 4 15 8 15 10 0 2 -7 4 -15 4 -8 0
-15 -4 -15 -10z"/>
<path d="M2395 14510 c-8 -13 5 -13 25 0 13 8 13 10 -2 10 -9 0 -20 -4 -23
-10z"/>
<path d="M2800 14419 c-8 -8 -63 -57 -122 -108 -60 -52 -108 -100 -108 -106 0
-12 35 -13 65 0 40 17 217 175 196 175 -5 0 -11 12 -13 27 -3 24 -5 25 -18 12z"/>
<path d="M2356 14336 c3 -9 -2 -17 -15 -21 -19 -6 -20 -7 -3 -40 9 -19 23 -35
30 -35 6 0 12 -6 12 -14 0 -7 7 -19 15 -26 11 -10 15 -10 15 0 0 6 6 10 13 7
6 -2 11 -9 10 -16 -2 -6 8 -13 22 -16 14 -3 36 -7 49 -10 14 -3 26 0 29 8 5
16 -123 136 -145 137 -10 0 -18 6 -18 14 0 8 -4 18 -10 21 -5 3 -7 0 -4 -9z"/>
<path d="M2949 14333 c-13 -16 -12 -17 4 -4 16 13 21 21 13 21 -2 0 -10 -8
-17 -17z"/>
<path d="M2966 14298 c-20 -28 -21 -44 -1 -28 8 6 18 9 23 7 4 -3 14 3 21 15
7 11 8 17 2 13 -6 -3 -11 -1 -11 4 0 18 -18 12 -34 -11z"/>
<path d="M2272 14058 c-17 -17 -15 -28 6 -28 11 0 27 9 37 20 18 19 17 20 -6
20 -14 0 -30 -5 -37 -12z"/>
<path d="M2268 13983 c7 -3 16 -2 19 1 4 3 -2 6 -13 5 -11 0 -14 -3 -6 -6z"/>
<path d="M2230 13882 c0 -6 9 -12 20 -15 11 -3 20 -3 20 -1 0 2 -9 8 -20 14
-11 6 -20 7 -20 2z"/>
<path d="M2295 13850 c3 -5 8 -10 11 -10 2 0 4 5 4 10 0 6 -5 10 -11 10 -5 0
-7 -4 -4 -10z"/>
<path d="M2210 13822 c0 -18 14 -51 34 -81 47 -69 59 -113 54 -185 -8 -97 -62
-178 -158 -235 -44 -26 -32 -27 18 -2 55 29 114 84 137 127 10 22 27 51 37 65
9 14 15 35 12 45 -4 14 2 24 20 33 l25 14 -22 18 c-20 16 -20 18 -4 24 25 10
21 28 -4 20 -20 -7 -21 -5 -15 31 5 31 4 35 -5 21 -10 -18 -12 -18 -31 3 -15
16 -17 25 -9 33 8 8 11 8 11 -1 0 -7 4 -12 10 -12 5 0 7 7 4 15 -4 8 -15 15
-26 15 -16 0 -19 5 -15 21 4 15 2 19 -8 15 -8 -3 -18 0 -22 7 -5 7 -16 18 -25
26 -16 12 -18 11 -18 -17z m50 -59 c0 -3 -7 0 -15 7 -8 7 -15 22 -15 34 0 18
2 17 15 -8 8 -15 15 -31 15 -33z"/>
<path d="M2345 13810 c3 -5 8 -10 11 -10 2 0 4 5 4 10 0 6 -5 10 -11 10 -5 0
-7 -4 -4 -10z"/>
<path d="M2385 13760 c-3 -5 -1 -10 4 -10 6 0 11 5 11 10 0 6 -2 10 -4 10 -3
0 -8 -4 -11 -10z"/>
<path d="M2420 13630 c0 -5 5 -10 10 -10 6 0 10 5 10 10 0 6 -4 10 -10 10 -5
0 -10 -4 -10 -10z"/>
<path d="M2420 13568 c0 -7 5 -20 10 -28 8 -12 10 -11 10 7 0 12 -4 25 -10 28
-5 3 -10 0 -10 -7z"/>
<path d="M2360 13551 c0 -10 19 -25 25 -20 1 2 -3 10 -11 17 -8 7 -14 8 -14 3z"/>
<path d="M2060 13290 c-21 -7 -21 -8 -5 -9 11 0 27 4 35 9 18 11 5 11 -30 0z"/>
<path d="M1819 14553 c-7 -13 -10 -25 -7 -28 6 -6 58 33 58 44 0 17 -40 5 -51
-16z"/>
<path d="M1735 14390 c-3 -5 -1 -10 4 -10 6 0 11 5 11 10 0 6 -2 10 -4 10 -3
0 -8 -4 -11 -10z"/>
<path d="M1640 14353 c-35 -12 -180 -82 -180 -87 0 -3 30 9 68 26 37 17 84 37
105 44 34 12 38 12 43 -4 3 -9 10 -26 16 -37 6 -11 11 -47 10 -79 -3 -108 -80
-233 -178 -291 -51 -30 -60 -44 -11 -19 87 45 192 169 216 255 15 53 48 81 66
55 7 -8 15 -13 19 -9 3 4 -6 14 -21 24 -20 13 -31 15 -40 7 -10 -8 -13 -6 -13
5 0 9 12 23 28 31 l27 14 -27 7 c-16 4 -26 11 -23 16 3 4 -2 17 -12 29 -17 19
-58 25 -93 13z"/>
<path d="M1798 14323 c7 -3 16 -2 19 1 4 3 -2 6 -13 5 -11 0 -14 -3 -6 -6z"/>
<path d="M1746 14174 c-5 -12 -2 -15 10 -10 8 3 21 6 27 6 7 0 6 4 -3 10 -21
14 -27 12 -34 -6z"/>
<path d="M1305 14159 c-11 -17 1 -21 15 -4 8 9 8 15 2 15 -6 0 -14 -5 -17 -11z"/>
<path d="M1797 14153 c-4 -3 -7 -11 -7 -17 0 -6 5 -5 12 2 6 6 9 14 7 17 -3 3
-9 2 -12 -2z"/>
<path d="M1735 14120 c3 -5 13 -10 21 -10 8 0 12 5 9 10 -3 6 -13 10 -21 10
-8 0 -12 -4 -9 -10z"/>
<path d="M1817 14099 c7 -7 15 -10 18 -7 3 3 -2 9 -12 12 -14 6 -15 5 -6 -5z"/>
<path d="M1710 14060 c0 -5 5 -10 11 -10 5 0 7 5 4 10 -3 6 -8 10 -11 10 -2 0
-4 -4 -4 -10z"/>
<path d="M1220 13880 c0 -5 5 -10 10 -10 6 0 10 5 10 10 0 6 -4 10 -10 10 -5
0 -10 -4 -10 -10z"/>
<path d="M9070 14458 c0 -7 -3 -24 -6 -38 -5 -17 -4 -22 4 -15 16 15 26 65 13
65 -6 0 -11 -6 -11 -12z"/>
<path d="M9095 14330 c-3 -5 -1 -10 4 -10 6 0 11 5 11 10 0 6 -2 10 -4 10 -3
0 -8 -4 -11 -10z"/>
<path d="M9360 14326 c0 -3 9 -10 20 -16 11 -6 20 -8 20 -6 0 3 -9 10 -20 16
-11 6 -20 8 -20 6z"/>
<path d="M9224 14157 c3 -10 6 -22 6 -27 0 -4 15 -14 33 -21 17 -7 35 -14 40
-17 4 -2 7 1 7 7 0 6 -7 11 -16 11 -8 0 -29 15 -46 33 -19 19 -28 25 -24 14z"/>
<path d="M9380 14115 c0 -2 10 -10 23 -16 20 -11 21 -11 8 4 -13 16 -31 23
-31 12z"/>
<path d="M9379 14076 c11 -12 51 -29 51 -21 0 2 -14 10 -31 19 -23 12 -28 12
-20 2z"/>
<path d="M9468 14068 c26 -13 28 -25 5 -31 -10 -3 -7 -4 7 -3 49 3 55 18 14
32 -46 16 -58 17 -26 2z"/>
<path d="M9345 14056 c17 -7 32 -11 35 -9 8 7 -24 23 -45 22 -15 0 -13 -3 10
-13z"/>
<path d="M9390 14030 c0 -5 5 -10 11 -10 5 0 7 5 4 10 -3 6 -8 10 -11 10 -2 0
-4 -4 -4 -10z"/>
<path d="M9455 14001 c22 -9 56 -21 75 -24 32 -6 33 -5 17 7 -11 8 -25 12 -33
9 -8 -3 -25 2 -39 11 -13 9 -32 16 -42 16 -10 0 0 -9 22 -19z"/>
<path d="M9670 14000 c0 -5 -9 -10 -19 -10 -11 0 -23 -5 -27 -11 -10 -17 44
-2 63 16 13 13 12 15 -1 15 -9 0 -16 -4 -16 -10z"/>
<path d="M9580 13980 c0 -5 5 -10 11 -10 5 0 7 5 4 10 -3 6 -8 10 -11 10 -2 0
-4 -4 -4 -10z"/>
<path d="M7690 14346 c0 -2 7 -7 16 -10 8 -3 12 -2 9 4 -6 10 -25 14 -25 6z"/>
<path d="M7746 14305 c5 -12 -2 -15 -30 -15 -27 0 -34 -3 -30 -15 4 -9 -3 -16
-19 -20 -14 -4 -28 -13 -31 -21 -3 -8 -12 -14 -21 -14 -8 0 -15 -9 -15 -20 0
-11 -4 -20 -9 -20 -5 0 -11 -9 -14 -19 -6 -24 37 -69 48 -50 5 7 1 16 -9 21
-22 12 -20 25 4 31 12 3 20 0 20 -7 0 -10 161 -174 231 -235 l27 -22 112 76
c62 42 115 73 119 70 6 -7 -87 -94 -101 -95 -4 0 -38 -21 -75 -46 l-67 -46
-102 105 c-56 58 -108 115 -117 127 l-16 23 -24 -28 -24 -28 20 -24 c11 -13
26 -23 32 -23 7 0 17 -11 23 -25 7 -14 23 -30 37 -37 14 -6 25 -17 25 -25 0
-7 4 -13 9 -13 4 0 20 -11 35 -25 21 -20 31 -23 50 -15 20 7 27 5 40 -15 9
-14 22 -22 30 -19 8 3 17 1 21 -5 3 -6 17 -8 32 -5 16 4 28 2 34 -7 7 -9 8 -5
3 13 -6 26 -5 27 34 23 32 -3 40 -1 35 11 -5 13 6 18 33 15 6 -1 10 9 10 21
-1 13 4 22 12 21 16 -4 15 9 -3 33 -20 26 -19 27 15 64 34 36 36 42 15 34 -10
-4 -15 0 -15 12 -1 18 -1 18 -11 2 -5 -10 -19 -18 -29 -18 -11 0 -52 -25 -91
-55 -108 -84 -104 -85 -220 31 -54 54 -99 104 -99 112 0 7 16 22 35 33 19 12
35 22 35 24 0 8 -41 -9 -51 -21 -12 -15 -39 -19 -39 -6 0 4 12 15 28 25 53 34
127 86 152 106 21 17 21 20 5 14 -11 -3 -25 -10 -32 -15 -8 -6 -20 -4 -35 6
-28 20 -39 20 -32 1z"/>
<path d="M7933 14263 c9 -9 20 -13 24 -9 4 4 1 11 -7 16 -25 16 -35 11 -17 -7z"/>
<path d="M7814 14244 c-18 -14 -18 -15 4 -4 12 6 22 13 22 15 0 8 -5 6 -26
-11z"/>
<path d="M7980 14220 c11 -11 26 -20 33 -20 6 1 1 10 -12 20 -30 26 -47 26
-21 0z"/>
<path d="M7545 14220 c-3 -5 -2 -10 4 -10 5 0 13 5 16 10 3 6 2 10 -4 10 -5 0
-13 -4 -16 -10z"/>
<path d="M8052 14149 c2 -6 8 -10 13 -10 5 0 11 4 13 10 2 6 -4 11 -13 11 -9
0 -15 -5 -13 -11z"/>
<path d="M8081 14117 c2 -1 13 -9 24 -17 19 -14 19 -14 6 3 -7 9 -18 17 -24
17 -6 0 -8 -1 -6 -3z"/>
<path d="M7530 14018 c0 -9 5 -20 11 -23 17 -11 18 -2 3 19 -12 17 -14 17 -14
4z"/>
<path d="M8145 13890 c3 -5 8 -10 11 -10 2 0 4 5 4 10 0 6 -5 10 -11 10 -5 0
-7 -4 -4 -10z"/>
<path d="M7960 13790 c0 -5 5 -10 10 -10 6 0 10 5 10 10 0 6 -4 10 -10 10 -5
0 -10 -4 -10 -10z"/>
<path d="M8126 13721 c-10 -16 5 -41 26 -41 14 0 19 6 16 22 -3 24 -32 36 -42
19z"/>
<path d="M8118 13643 c7 -3 16 -2 19 1 4 3 -2 6 -13 5 -11 0 -14 -3 -6 -6z"/>
<path d="M8190 13520 c-8 -5 -10 -10 -5 -10 6 0 17 5 25 10 8 5 11 10 5 10 -5
0 -17 -5 -25 -10z"/>
<path d="M8224 13481 c-11 -10 -30 -22 -41 -25 -15 -5 -19 -13 -16 -26 4 -14
0 -20 -11 -20 -21 0 -21 -16 0 -28 23 -13 9 -32 -24 -32 -24 0 -25 -1 -7 -14
12 -8 16 -20 13 -34 -4 -12 -2 -57 3 -99 15 -121 60 -193 151 -239 26 -13 51
-24 55 -24 4 1 -14 12 -42 27 -96 49 -133 104 -142 212 -5 56 -2 76 19 128 25
60 25 63 7 79 -18 16 -17 18 22 65 42 51 47 63 13 30z"/>
<path d="M8390 13460 c-6 -4 7 -7 30 -8 22 -1 40 0 40 2 0 7 -60 12 -70 6z"/>
<path d="M8098 13443 c7 -3 16 -2 19 1 4 3 -2 6 -13 5 -11 0 -14 -3 -6 -6z"/>
<path d="M8445 13410 c3 -5 8 -10 11 -10 2 0 4 5 4 10 0 6 -5 10 -11 10 -5 0
-7 -4 -4 -10z"/>
<path d="M8100 13280 c0 -5 5 -10 11 -10 5 0 7 5 4 10 -3 6 -8 10 -11 10 -2 0
-4 -4 -4 -10z"/>
<path d="M8670 13260 c0 -5 5 -10 11 -10 5 0 7 5 4 10 -3 6 -8 10 -11 10 -2 0
-4 -4 -4 -10z"/>
<path d="M8094 13225 c3 -21 16 -31 16 -12 0 9 -4 18 -9 21 -5 4 -8 -1 -7 -9z"/>
<path d="M8704 13214 c3 -9 6 -18 6 -20 0 -2 7 -4 15 -4 13 0 14 4 5 20 -13
24 -35 27 -26 4z"/>
<path d="M8102 13160 c0 -14 2 -19 5 -12 2 6 2 18 0 25 -3 6 -5 1 -5 -13z"/>
<path d="M8650 13076 c0 -41 -47 -109 -92 -132 -35 -18 -101 -23 -163 -12 -35
7 -37 6 -15 -4 44 -20 160 -14 208 11 69 35 122 147 77 165 -11 4 -15 -2 -15
-28z"/>
<path d="M8165 12960 c-3 -5 -1 -10 4 -10 6 0 11 5 11 10 0 6 -2 10 -4 10 -3
0 -8 -4 -11 -10z"/>
<path d="M8330 12909 c0 -9 48 -24 55 -17 2 2 -9 9 -25 15 -17 6 -30 7 -30 2z"/>
<path d="M8418 12878 c9 -9 15 -9 24 0 9 9 7 12 -12 12 -19 0 -21 -3 -12 -12z"/>
<path d="M8498 12883 c7 -3 16 -2 19 1 4 3 -2 6 -13 5 -11 0 -14 -3 -6 -6z"/>
<path d="M8268 12873 c7 -3 16 -2 19 1 4 3 -2 6 -13 5 -11 0 -14 -3 -6 -6z"/>
<path d="M3258 14243 c6 -2 18 -2 25 0 6 3 1 5 -13 5 -14 0 -19 -2 -12 -5z"/>
<path d="M3380 14232 c0 -12 19 -26 26 -19 2 2 -2 10 -11 17 -9 8 -15 8 -15 2z"/>
<path d="M3216 14212 c-3 -5 8 -13 25 -19 35 -14 37 -10 5 11 -14 9 -27 12
-30 8z"/>
<path d="M3180 14190 c-9 -6 -10 -10 -3 -10 6 0 15 5 18 10 8 12 4 12 -15 0z"/>
<path d="M3280 14181 c0 -5 57 -44 126 -87 103 -64 124 -81 120 -97 -3 -11 -1
-16 4 -11 23 24 2 89 -32 99 -16 6 -22 17 -19 38 0 4 -10 7 -24 7 -14 0 -30 9
-37 20 -7 11 -23 20 -35 20 -12 0 -25 5 -28 10 -8 12 -75 13 -75 1z"/>
<path d="M3134 14155 c-10 -8 -14 -15 -8 -15 6 0 17 7 24 15 16 19 9 19 -16 0z"/>
<path d="M3082 14114 c-8 -9 -8 -14 3 -17 7 -3 20 2 29 12 14 15 14 17 -3 17
-10 0 -23 -6 -29 -12z"/>
<path d="M2960 14075 c-7 -9 -11 -18 -8 -20 3 -3 11 1 18 10 7 9 11 18 8 20
-3 3 -11 -1 -18 -10z"/>
<path d="M3159 14073 c-13 -16 -12 -17 4 -4 9 7 17 15 17 17 0 8 -8 3 -21 -13z"/>
<path d="M3060 14065 c-7 -8 -19 -15 -27 -15 -9 0 -13 -6 -10 -14 3 -7 0 -20
-6 -27 -7 -8 7 4 31 26 23 21 42 40 42 42 0 9 -19 1 -30 -12z"/>
<path d="M3365 13913 c-44 -52 -86 -105 -93 -117 -7 -11 4 -1 25 24 21 25 61
70 88 100 64 70 80 90 69 90 -5 0 -45 -44 -89 -97z"/>
<path d="M2970 13980 c0 -5 4 -10 9 -10 6 0 13 5 16 10 3 6 -1 10 -9 10 -9 0
-16 -4 -16 -10z"/>
<path d="M3451 13911 c-20 -22 -61 -67 -91 -101 -81 -92 -89 -100 -98 -100
-10 0 -171 100 -217 134 -16 12 -37 26 -45 31 -12 6 -13 5 -2 -6 16 -18 15
-29 -3 -29 -49 0 19 -72 118 -124 70 -37 101 -44 112 -26 4 6 15 8 24 5 10 -3
29 4 44 15 17 13 28 17 32 10 5 -8 12 -7 23 3 10 8 25 17 35 20 9 4 20 15 24
24 4 10 18 30 32 45 44 46 59 66 75 96 14 27 14 31 0 36 -23 9 -24 9 -63 -33z"/>
<path d="M3016 13923 c-3 -3 27 -29 67 -57 111 -79 158 -108 165 -102 7 7 8 6
-51 40 -26 15 -76 49 -111 76 -36 26 -67 46 -70 43z"/>
<path d="M3595 13870 c-3 -5 -2 -10 4 -10 5 0 13 5 16 10 3 6 2 10 -4 10 -5 0
-13 -4 -16 -10z"/>
<path d="M3700 13871 c0 -6 4 -13 10 -16 6 -3 7 1 4 9 -7 18 -14 21 -14 7z"/>
<path d="M3640 13803 c0 -6 8 -17 18 -24 16 -13 16 -13 2 6 -8 11 -16 22 -17
24 -2 2 -3 0 -3 -6z"/>
<path d="M3086 13547 c3 -10 9 -15 12 -12 3 3 0 11 -7 18 -10 9 -11 8 -5 -6z"/>
<path d="M2959 13477 c5 -5 19 -7 32 -5 20 3 19 5 -9 9 -20 3 -29 2 -23 -4z"/>
<path d="M3060 13340 c0 -5 7 -7 15 -4 8 4 15 8 15 10 0 2 -7 4 -15 4 -8 0
-15 -4 -15 -10z"/>
<path d="M3040 13306 c0 -2 7 -9 15 -16 9 -7 15 -8 15 -2 0 5 -7 12 -15 16 -8
3 -15 4 -15 2z"/>
<path d="M3104 13251 c16 -17 32 -29 34 -26 7 7 -18 34 -42 47 -16 8 -14 3 8
-21z"/>
<path d="M3195 13250 c-3 -5 -2 -10 4 -10 5 0 13 5 16 10 3 6 2 10 -4 10 -5 0
-13 -4 -16 -10z"/>
<path d="M2755 13240 c-3 -5 1 -10 9 -10 9 0 16 5 16 10 0 6 -4 10 -9 10 -6 0
-13 -4 -16 -10z"/>
<path d="M3162 13190 c14 -22 24 -19 15 5 -4 8 -11 15 -17 15 -6 0 -6 -7 2
-20z"/>
<path d="M3235 13190 c3 -5 10 -10 16 -10 5 0 9 5 9 10 0 6 -7 10 -16 10 -8 0
-12 -4 -9 -10z"/>
<path d="M3207 13114 c14 -24 29 -44 34 -44 15 0 10 15 -11 33 -11 9 -20 23
-20 31 0 8 -6 16 -14 19 -9 4 -5 -10 11 -39z"/>
<path d="M2660 13089 c-19 -11 -28 -19 -19 -19 9 0 27 9 40 20 29 23 25 23
-21 -1z"/>
<path d="M2595 13040 c-3 -5 1 -10 9 -10 9 0 16 5 16 10 0 6 -4 10 -9 10 -6 0
-13 -4 -16 -10z"/>
<path d="M3240 13032 c0 -12 19 -26 26 -19 2 2 -2 10 -11 17 -9 8 -15 8 -15 2z"/>
<path d="M2608 13003 c6 -2 18 -2 25 0 6 3 1 5 -13 5 -14 0 -19 -2 -12 -5z"/>
<path d="M3180 12953 c0 -52 -5 -68 -32 -109 -59 -88 -156 -132 -263 -121 -95
10 -169 65 -191 142 l-8 30 -4 -37 c-4 -48 18 -81 77 -116 41 -24 56 -27 141
-27 76 0 104 4 141 21 98 46 163 131 161 213 0 24 -5 48 -11 54 -8 8 -11 -6
-11 -50z"/>
<path d="M3250 12950 c0 -5 5 -10 11 -10 5 0 7 5 4 10 -3 6 -8 10 -11 10 -2 0
-4 -4 -4 -10z"/>
<path d="M2608 12933 c7 -3 16 -2 19 1 4 3 -2 6 -13 5 -11 0 -14 -3 -6 -6z"/>
<path d="M2610 12836 c0 -2 7 -7 16 -10 8 -3 12 -2 9 4 -6 10 -25 14 -25 6z"/>
<path d="M2938 12673 c7 -3 16 -2 19 1 4 3 -2 6 -13 5 -11 0 -14 -3 -6 -6z"/>
<path d="M2853 12573 c9 -2 25 -2 35 0 9 3 1 5 -18 5 -19 0 -27 -2 -17 -5z"/>
<path d="M8713 14223 c-7 -2 -9 -11 -6 -19 7 -18 43 -18 43 0 0 16 -19 25 -37
19z"/>
<path d="M8765 14040 c-3 -5 -2 -10 4 -10 5 0 13 5 16 10 3 6 2 10 -4 10 -5 0
-13 -4 -16 -10z"/>
<path d="M8842 14014 c-12 -8 -22 -12 -22 -7 0 4 -7 -5 -15 -21 -8 -15 -15
-37 -15 -47 0 -10 -5 -21 -10 -24 -6 -4 -4 -12 5 -21 10 -11 12 -21 6 -32 -9
-16 8 -42 28 -42 21 0 11 -19 -11 -23 -21 -4 -20 -5 10 -18 17 -7 32 -18 32
-24 0 -5 28 -39 61 -75 65 -69 67 -65 6 11 -46 57 -76 124 -77 168 0 40 20
101 33 101 4 0 5 9 2 20 -4 12 -1 27 5 35 17 21 -8 20 -38 -1z"/>
<path d="M8740 13990 c0 -5 7 -7 15 -4 8 4 15 8 15 10 0 2 -7 4 -15 4 -8 0
-15 -4 -15 -10z"/>
<path d="M8965 13905 c117 -59 179 -96 208 -123 27 -26 46 -30 26 -5 -21 24
-146 102 -214 133 -102 46 -115 43 -20 -5z"/>
<path d="M8730 13880 c0 -5 5 -10 10 -10 6 0 10 5 10 10 0 6 -4 10 -10 10 -5
0 -10 -4 -10 -10z"/>
<path d="M9033 13823 c9 -2 17 -9 17 -14 0 -6 5 -7 11 -3 14 8 -8 24 -31 23
-11 -1 -10 -3 3 -6z"/>
<path d="M8748 13813 c7 -3 16 -2 19 1 4 3 -2 6 -13 5 -11 0 -14 -3 -6 -6z"/>
<path d="M8805 13690 c3 -5 11 -10 16 -10 6 0 7 5 4 10 -3 6 -11 10 -16 10 -6
0 -7 -4 -4 -10z"/>
<path d="M8920 13616 c0 -2 7 -7 16 -10 8 -3 12 -2 9 4 -6 10 -25 14 -25 6z"/>
<path d="M8980 13617 c0 -3 12 -12 26 -22 15 -9 23 -12 20 -6 -7 11 -46 35
-46 28z"/>
<path d="M9060 13565 c14 -8 30 -14 35 -14 6 0 -1 6 -15 14 -14 8 -29 14 -35
14 -5 0 1 -6 15 -14z"/>
<path d="M9039 13541 c13 -12 28 -21 35 -21 12 0 -5 14 -39 31 -16 8 -15 6 4
-10z"/>
<path d="M9120 13540 c8 -5 28 -10 44 -10 39 0 30 6 -19 13 -27 4 -35 3 -25
-3z"/>
<path d="M9108 13508 c5 -5 16 -8 23 -6 8 3 3 7 -10 11 -17 4 -21 3 -13 -5z"/>
<path d="M9350 13500 c0 -5 5 -10 10 -10 6 0 10 5 10 10 0 6 -4 10 -10 10 -5
0 -10 -4 -10 -10z"/>
<path d="M9048 13483 c7 -3 16 -2 19 1 4 3 -2 6 -13 5 -11 0 -14 -3 -6 -6z"/>
<path d="M9117 13455 c-4 -8 3 -10 19 -7 29 5 30 8 5 15 -11 3 -22 -1 -24 -8z"/>
<path d="M9180 13451 c0 -5 6 -11 13 -14 8 -3 14 1 14 9 0 8 -6 14 -14 14 -7
0 -13 -4 -13 -9z"/>
<path d="M8246 14092 c-2 -4 -1 -14 3 -21 6 -10 10 -9 14 3 6 16 -8 32 -17 18z"/>
<path d="M2841 13974 c0 -11 3 -14 6 -6 3 7 2 16 -1 19 -3 4 -6 -2 -5 -13z"/>
<path d="M7052 13904 c-8 -8 -24 -14 -35 -12 -12 2 -30 -5 -40 -15 -12 -12
-27 -17 -42 -13 -17 4 -22 2 -21 -12 1 -12 -8 -18 -32 -20 -26 -3 -31 -6 -22
-17 8 -10 4 -16 -19 -26 l-29 -13 19 -24 c21 -27 27 -78 7 -66 -8 5 -9 2 -4
-12 5 -10 11 -27 13 -36 3 -10 9 -18 14 -18 4 0 17 -19 27 -42 27 -61 97 -137
120 -131 10 2 24 -3 31 -11 8 -9 24 -16 37 -16 17 0 22 -4 17 -15 -4 -13 2
-15 43 -10 94 11 105 13 122 28 9 8 22 13 27 11 6 -2 28 13 50 33 32 30 37 38
23 41 -22 4 -24 32 -3 32 8 0 15 4 15 10 0 5 -16 2 -35 -7 -25 -12 -32 -19
-23 -26 9 -6 8 -7 -5 -3 -9 3 -58 -12 -109 -34 -50 -22 -103 -40 -117 -40 -22
0 -41 23 -128 155 -57 85 -103 161 -103 168 0 6 12 17 28 24 15 6 79 33 142
60 90 38 109 49 88 51 -16 2 -28 8 -28 13 0 13 -13 10 -28 -7z"/>
<path d="M7246 13842 c-3 -5 22 -51 54 -103 33 -52 67 -109 76 -127 17 -34 34
-50 34 -33 0 5 8 12 18 14 11 3 7 5 -10 6 -28 1 -50 22 -30 29 7 2 12 11 12
19 0 9 -6 13 -15 9 -16 -6 -42 33 -29 43 11 8 14 41 4 41 -4 0 -11 -8 -15 -17
-6 -16 -9 -15 -27 7 -19 23 -19 25 -2 37 17 13 10 18 -21 14 -16 -1 -40 42
-26 47 6 2 9 8 5 13 -7 11 -21 12 -28 1z"/>
<path d="M6808 13803 c7 -3 16 -2 19 1 4 3 -2 6 -13 5 -11 0 -14 -3 -6 -6z"/>
<path d="M6891 13754 c2 -5 44 -69 92 -143 82 -124 89 -133 113 -127 48 12
259 111 243 114 -8 1 -60 -20 -116 -47 -97 -48 -115 -55 -139 -52 -7 0 -48 57
-93 125 -44 69 -86 128 -92 132 -6 4 -10 3 -8 -2z"/>
<path d="M6160 13690 c0 -5 5 -10 11 -10 5 0 7 5 4 10 -3 6 -8 10 -11 10 -2 0
-4 -4 -4 -10z"/>
<path d="M6280 13666 c0 -2 7 -9 15 -16 13 -11 14 -10 9 4 -5 14 -24 23 -24
12z"/>
<path d="M6196 13635 c-6 -17 -66 -21 -66 -5 0 6 -4 10 -10 10 -5 0 -9 -5 -7
-11 3 -16 -56 -36 -61 -20 -2 6 -8 11 -13 11 -6 0 -7 -5 -4 -10 9 -15 -45 -34
-59 -20 -16 16 -25 12 -19 -9 3 -13 -2 -21 -17 -26 -47 -15 -11 -12 70 5 47
11 123 27 170 37 47 9 76 19 65 21 -11 2 -25 10 -31 18 -10 13 -12 13 -18 -1z"/>
<path d="M6290 13622 c0 -5 7 -15 15 -22 8 -7 15 -8 15 -2 0 5 -7 15 -15 22
-8 7 -15 8 -15 2z"/>
<path d="M6713 13597 c-1 -23 5 -37 18 -45 19 -12 20 -10 17 33 -2 32 -7 45
-18 45 -10 0 -16 -11 -17 -33z"/>
<path d="M7567 13624 c-8 -8 1 -24 14 -24 5 0 9 7 9 15 0 15 -12 20 -23 9z"/>
<path d="M5010 13578 c0 -9 -10 -19 -22 -23 -15 -5 20 -11 97 -16 66 -5 144
-13 173 -17 49 -8 51 -8 37 8 -8 9 -15 22 -15 28 0 15 -13 15 -27 1 -14 -14
-63 -1 -63 17 0 8 -4 14 -10 14 -5 0 -9 -6 -7 -12 4 -20 -39 -21 -58 -1 -13
13 -20 14 -23 5 -5 -15 -54 -16 -70 0 -9 9 -12 8 -12 -4z"/>
<path d="M6333 13555 c16 -32 46 -125 78 -239 16 -56 17 -71 7 -78 -17 -12 31
1 52 14 11 6 9 7 -7 3 -20 -5 -23 -2 -23 20 0 18 4 25 13 22 8 -3 13 3 13 14
0 11 -6 18 -16 16 -11 -1 -15 7 -15 31 0 17 -3 32 -6 32 -4 0 -12 14 -18 30
-8 25 -7 30 5 30 8 0 12 5 9 10 -4 6 -11 8 -16 5 -5 -4 -14 6 -21 20 -10 22
-9 28 3 36 13 8 6 13 -14 10 -4 -1 -19 11 -33 26 l-25 28 14 -30z"/>
<path d="M4885 13519 c-4 -6 -5 -12 -2 -15 2 -3 7 2 10 11 7 17 1 20 -8 4z"/>
<path d="M5904 13497 c5 -20 1 -33 -14 -49 -17 -19 -18 -23 -5 -31 8 -4 15
-17 15 -28 0 -23 36 -140 58 -187 8 -19 20 -31 28 -28 7 3 15 -2 18 -10 3 -8
11 -14 17 -14 8 0 6 7 -4 18 -10 10 -17 24 -17 30 0 16 -91 315 -98 322 -2 3
-2 -7 2 -23z"/>
<path d="M5003 13503 c9 -2 23 -2 30 0 6 3 -1 5 -18 5 -16 0 -22 -2 -12 -5z"/>
<path d="M5331 13494 c0 -11 3 -14 6 -6 3 7 2 16 -1 19 -3 4 -6 -2 -5 -13z"/>
<path d="M5135 13485 c50 -6 95 -9 100 -6 12 7 -83 19 -145 19 -30 -1 -14 -5
45 -13z"/>
<path d="M5870 13490 c0 -5 5 -10 10 -10 6 0 10 5 10 10 0 6 -4 10 -10 10 -5
0 -10 -4 -10 -10z"/>
<path d="M4877 13468 c-19 -14 -25 -23 -17 -28 9 -5 8 -15 -4 -39 -9 -17 -12
-31 -6 -31 16 0 12 -46 -5 -60 -11 -9 -12 -16 -4 -26 6 -7 8 -22 4 -34 -4 -12
-1 -27 5 -35 6 -8 9 -19 5 -25 -9 -14 13 -40 34 -40 13 0 13 2 2 9 -14 9 -12
58 6 191 5 40 4 44 -10 32 -27 -23 -28 5 -1 37 14 17 24 39 22 50 -3 19 -4 19
-31 -1z"/>
<path d="M6003 13381 c17 -61 32 -109 34 -107 6 6 -46 199 -56 209 -5 5 5 -41
22 -102z"/>
<path d="M5352 13427 c-13 -18 -32 -264 -22 -290 8 -21 9 -20 20 11 7 17 16
32 20 32 4 0 6 9 3 20 -3 11 -2 28 2 37 4 10 8 50 7 88 0 39 4 72 9 75 5 3 0
13 -11 22 -14 13 -21 14 -28 5z"/>
<path d="M6329 13280 c-8 -5 -70 -20 -138 -36 -103 -22 -124 -25 -132 -13 -7
11 -9 11 -9 -3 0 -10 7 -18 15 -18 19 0 297 59 302 64 8 8 -24 13 -38 6z"/>
<path d="M6198 13197 c-82 -17 -148 -34 -148 -39 0 -5 10 -8 22 -6 11 2 23 -3
25 -9 3 -8 -4 -13 -17 -13 -13 0 -19 -4 -14 -11 5 -8 35 -10 98 -6 93 6 136
16 193 45 34 17 55 46 26 35 -12 -5 -14 -1 -8 15 8 27 12 27 -177 -11z m45
-14 c-7 -2 -19 -2 -25 0 -7 3 -2 5 12 5 14 0 19 -2 13 -5z m-53 -13 c0 -5 -8
-10 -17 -10 -15 0 -16 2 -3 10 19 12 20 12 20 0z"/>
<path d="M4947 13199 c7 -7 15 -10 18 -7 3 3 -2 9 -12 12 -14 6 -15 5 -6 -5z"/>
<path d="M6630 13200 c0 -5 7 -7 15 -4 8 4 15 8 15 10 0 2 -7 4 -15 4 -8 0
-15 -4 -15 -10z"/>
<path d="M5008 13183 c12 -2 32 -2 45 0 12 2 2 4 -23 4 -25 0 -35 -2 -22 -4z"/>
<path d="M5113 13173 c9 -2 25 -2 35 0 9 3 1 5 -18 5 -19 0 -27 -2 -17 -5z"/>
<path d="M5230 13170 c-13 -8 -13 -10 2 -10 9 0 20 5 23 10 8 13 -5 13 -25 0z"/>
<path d="M4930 13150 c0 -5 6 -10 13 -13 9 -3 9 -7 -1 -20 -11 -13 -10 -18 10
-30 63 -40 301 -45 304 -7 2 36 5 41 17 34 8 -5 9 -4 2 3 -13 13 -130 24 -142
13 -4 -5 -26 -2 -48 5 -50 16 -155 26 -155 15z"/>
<path d="M5531 13044 c0 -11 3 -14 6 -6 3 7 2 16 -1 19 -3 4 -6 -2 -5 -13z"/>
<path d="M6250 13010 c-9 -6 -10 -10 -3 -10 6 0 15 5 18 10 8 12 4 12 -15 0z"/>
<path d="M7098 12858 c-29 -39 -41 -58 -35 -58 2 0 18 20 36 45 37 51 36 62
-1 13z"/>
<path d="M7026 12745 c-3 -8 -1 -15 4 -15 6 0 10 7 10 15 0 8 -2 15 -4 15 -2
0 -6 -7 -10 -15z"/>
<path d="M7007 12685 c-4 -8 -2 -17 3 -20 6 -4 10 3 10 14 0 25 -6 27 -13 6z"/>
<path d="M5010 12649 c0 -5 5 -7 10 -4 6 3 10 8 10 11 0 2 -4 4 -10 4 -5 0
-10 -5 -10 -11z"/>
<path d="M5070 12640 c20 -13 33 -13 25 0 -3 6 -14 10 -23 10 -15 0 -15 -2 -2
-10z"/>
<path d="M4966 12621 c-4 -5 3 -7 14 -4 23 6 26 13 6 13 -8 0 -17 -4 -20 -9z"/>
<path d="M7001 12614 c0 -11 3 -14 6 -6 3 7 2 16 -1 19 -3 4 -6 -2 -5 -13z"/>
<path d="M6095 12600 c-3 -5 -2 -10 4 -10 5 0 13 5 16 10 3 6 2 10 -4 10 -5 0
-13 -4 -16 -10z"/>
<path d="M6039 12543 c-13 -16 -12 -17 4 -4 16 13 21 21 13 21 -2 0 -10 -8
-17 -17z"/>
<path d="M4924 12518 l-19 -23 23 19 c21 18 27 26 19 26 -2 0 -12 -10 -23 -22z"/>
<path d="M5201 12525 c0 -5 6 -19 14 -29 8 -11 15 -15 15 -10 0 6 -7 19 -15
30 -8 10 -14 15 -14 9z"/>
<path d="M5990 12495 c-7 -9 -11 -17 -9 -20 3 -2 10 5 17 15 14 24 10 26 -8 5z"/>
<path d="M7090 12488 c0 -12 62 -78 84 -89 11 -6 7 1 -11 15 -17 15 -41 39
-52 54 -11 15 -21 24 -21 20z"/>
<path d="M7542 12460 c-15 -34 -62 -72 -107 -88 -19 -7 -23 -11 -11 -11 47 -2
146 85 134 119 -2 6 -9 -3 -16 -20z"/>
<path d="M4866 12464 c-5 -14 -4 -15 9 -4 17 14 19 20 6 20 -5 0 -12 -7 -15
-16z"/>
<path d="M5250 12476 c0 -15 29 -62 49 -80 17 -16 21 -16 21 -4 0 9 -9 18 -20
21 -11 3 -20 14 -20 25 0 11 -7 25 -15 32 -8 7 -15 9 -15 6z"/>
<path d="M6480 12461 c0 -5 5 -13 10 -16 6 -3 10 -2 10 4 0 5 -4 13 -10 16 -5
3 -10 2 -10 -4z"/>
<path d="M5946 12423 c-6 -14 -5 -15 5 -6 7 7 10 15 7 18 -3 3 -9 -2 -12 -12z"/>
<path d="M4816 12405 c-9 -26 -7 -32 5 -12 6 10 9 21 6 23 -2 3 -7 -2 -11 -11z"/>
<path d="M7210 12380 c8 -5 20 -10 25 -10 6 0 3 5 -5 10 -8 5 -19 10 -25 10
-5 0 -3 -5 5 -10z"/>
<path d="M7258 12363 c7 -3 16 -2 19 1 4 3 -2 6 -13 5 -11 0 -14 -3 -6 -6z"/>
<path d="M7328 12353 c12 -2 32 -2 45 0 12 2 2 4 -23 4 -25 0 -35 -2 -22 -4z"/>
<path d="M4775 12339 c-4 -6 -5 -12 -2 -15 2 -3 7 2 10 11 7 17 1 20 -8 4z"/>
<path d="M5346 12337 c3 -10 9 -15 12 -12 3 3 0 11 -7 18 -10 9 -11 8 -5 -6z"/>
<path d="M7210 12336 c0 -2 7 -6 15 -10 8 -3 15 -1 15 4 0 6 -7 10 -15 10 -8
0 -15 -2 -15 -4z"/>
<path d="M5382 12270 c0 -14 2 -19 5 -12 2 6 2 18 0 25 -3 6 -5 1 -5 -13z"/>
<path d="M4747 12273 c-4 -3 -7 -11 -7 -17 0 -6 5 -5 12 2 6 6 9 14 7 17 -3 3
-9 2 -12 -2z"/>
<path d="M7280 12230 c0 -5 7 -10 15 -10 8 0 15 5 15 10 0 6 -7 10 -15 10 -8
0 -15 -4 -15 -10z"/>
<path d="M5395 12209 c-4 -6 -5 -12 -2 -15 2 -3 7 2 10 11 7 17 1 20 -8 4z"/>
<path d="M4731 12194 c0 -11 3 -14 6 -6 3 7 2 16 -1 19 -3 4 -6 -2 -5 -13z"/>
<path d="M5435 12130 c-3 -5 1 -10 10 -10 9 0 13 5 10 10 -3 6 -8 10 -10 10
-2 0 -7 -4 -10 -10z"/>
<path d="M6030 12112 c14 -18 41 -43 60 -54 19 -12 33 -19 30 -17 -3 3 -30 28
-60 55 -44 40 -50 43 -30 16z"/>
<path d="M6431 12087 l-34 -42 38 37 c22 21 37 39 34 42 -2 2 -19 -14 -38 -37z"/>
<path d="M5302 12079 c-15 -42 -50 -82 -94 -109 -18 -11 -28 -20 -23 -20 39 0
140 111 133 146 -2 11 -7 6 -16 -17z"/>
<path d="M4820 12081 c0 -33 121 -131 161 -131 7 0 -12 12 -42 28 -33 16 -67
44 -86 70 -18 24 -33 39 -33 33z"/>
<path d="M6370 12040 c-9 -6 -10 -10 -3 -10 6 0 15 5 18 10 8 12 4 12 -15 0z"/>
<path d="M6155 12025 c17 -8 41 -14 55 -14 15 0 5 6 -25 14 -62 17 -69 17 -30
0z"/>
<path d="M6290 12020 c-34 -7 -34 -7 -5 -8 17 0 39 3 50 8 24 10 4 10 -45 0z"/>
<path d="M6198 11973 c7 -3 16 -2 19 1 4 3 -2 6 -13 5 -11 0 -14 -3 -6 -6z"/>
<path d="M5008 11943 c6 -2 18 -2 25 0 6 3 1 5 -13 5 -14 0 -19 -2 -12 -5z"/>
<path d="M5148 11943 c7 -3 16 -2 19 1 4 3 -2 6 -13 5 -11 0 -14 -3 -6 -6z"/>
<path d="M4920 11920 c0 -6 7 -10 15 -10 8 0 15 2 15 4 0 2 -7 6 -15 10 -8 3
-15 1 -15 -4z"/>
<path d="M4225 13820 c3 -5 8 -10 11 -10 2 0 4 5 4 10 0 6 -5 10 -11 10 -5 0
-7 -4 -4 -10z"/>
<path d="M4110 13801 c0 -6 -9 -11 -19 -11 -47 0 -22 -18 67 -49 53 -19 123
-44 155 -57 32 -13 66 -20 75 -16 14 5 12 7 -8 12 -14 3 -29 16 -35 28 -5 12
-14 21 -20 20 -20 -4 -55 14 -49 24 5 7 1 9 -9 5 -22 -8 -70 10 -62 24 5 7 -4
8 -27 4 -26 -5 -39 -2 -51 10 -10 9 -17 12 -17 6z"/>
<path d="M3995 13790 c-3 -6 1 -7 9 -4 18 7 21 14 7 14 -6 0 -13 -4 -16 -10z"/>
<path d="M3958 13744 c-4 -3 -14 -7 -25 -8 -12 -2 -17 -10 -15 -25 2 -13 -3
-24 -15 -28 -10 -4 -24 -13 -31 -20 -11 -11 -11 -13 3 -13 12 0 15 -5 11 -16
-3 -9 -6 -18 -6 -20 0 -3 -12 -9 -27 -15 -16 -7 -23 -13 -15 -16 21 -8 13 -36
-15 -60 -16 -13 -20 -20 -10 -17 22 8 23 -13 1 -37 -15 -16 -13 -19 18 -34
l33 -16 -25 21 c-17 15 -21 23 -12 27 6 2 12 9 12 14 0 5 28 68 63 139 35 72
63 130 62 130 -1 0 -4 -3 -7 -6z"/>
<path d="M4241 13505 c-34 -69 -68 -128 -77 -132 -9 -3 -32 -1 -52 5 -47 15
-54 7 -7 -8 64 -21 74 -12 143 126 35 69 61 128 59 131 -3 2 -32 -53 -66 -122z"/>
<path d="M4325 13529 c-17 -34 -29 -69 -27 -77 2 -8 -5 -20 -16 -28 -11 -7
-29 -36 -41 -63 -11 -27 -25 -52 -30 -55 -9 -6 -123 31 -256 83 -82 32 -100
37 -75 21 12 -7 12 -11 -3 -28 -21 -23 -17 -27 60 -67 96 -49 233 -73 233 -40
0 9 9 15 24 15 13 0 27 7 30 16 3 9 12 14 20 11 20 -8 53 35 103 132 44 87 56
138 29 128 -8 -3 -16 -1 -18 4 -2 6 -17 -17 -33 -52z"/>
<path d="M3930 13441 c19 -10 46 -21 60 -25 14 -3 1 5 -29 19 -62 29 -83 33
-31 6z"/>
<path d="M4030 13400 c8 -5 20 -10 25 -10 6 0 3 5 -5 10 -8 5 -19 10 -25 10
-5 0 -3 -5 5 -10z"/>
<path d="M3921 13186 c12 -10 99 -16 99 -7 0 7 -22 11 -52 11 -28 0 -49 -2
-47 -4z"/>
<path d="M3992 12824 c10 -10 20 -16 22 -13 3 3 -5 11 -17 18 -21 13 -21 12
-5 -5z"/>
<path d="M3815 12799 c-51 -39 -57 -46 -19 -24 42 24 81 55 69 54 -5 0 -28
-14 -50 -30z"/>
<path d="M4090 12790 c0 -5 7 -10 16 -10 8 0 12 5 9 10 -3 6 -10 10 -16 10 -5
0 -9 -4 -9 -10z"/>
<path d="M4068 12762 c27 -37 62 -68 62 -54 0 6 -11 19 -25 28 -14 9 -25 22
-25 29 0 7 -7 16 -16 19 -12 5 -11 0 4 -22z"/>
<path d="M3690 12769 c0 -5 5 -7 10 -4 6 3 10 8 10 11 0 2 -4 4 -10 4 -5 0
-10 -5 -10 -11z"/>
<path d="M3669 12663 c-13 -16 -12 -17 4 -4 16 13 21 21 13 21 -2 0 -10 -8
-17 -17z"/>
<path d="M4150 12675 c0 -15 18 -40 24 -34 3 3 -1 14 -9 25 -8 10 -14 15 -15
9z"/>
<path d="M3628 12663 c7 -3 16 -2 19 1 4 3 -2 6 -13 5 -11 0 -14 -3 -6 -6z"/>
<path d="M4198 12663 c7 -3 16 -2 19 1 4 3 -2 6 -13 5 -11 0 -14 -3 -6 -6z"/>
<path d="M4180 12613 c0 -5 5 -15 10 -23 8 -12 10 -11 10 8 0 12 -4 22 -10 22
-5 0 -10 -3 -10 -7z"/>
<path d="M3585 12600 c-3 -6 1 -7 9 -4 18 7 21 14 7 14 -6 0 -13 -4 -16 -10z"/>
<path d="M4211 12534 c0 -11 3 -14 6 -6 3 7 2 16 -1 19 -3 4 -6 -2 -5 -13z"/>
<path d="M4226 12474 c-7 -19 0 -34 17 -34 9 0 8 3 -1 8 -7 5 -10 16 -6 25 3
9 4 17 1 17 -3 0 -8 -7 -11 -16z"/>
<path d="M4141 12387 c-9 -29 -32 -68 -60 -100 -26 -30 -33 -41 -16 -27 57 49
98 117 93 153 -2 15 -7 7 -17 -26z"/>
<path d="M3548 12373 c7 -3 16 -2 19 1 4 3 -2 6 -13 5 -11 0 -14 -3 -6 -6z"/>
<path d="M3651 12366 c-1 -26 36 -88 67 -111 24 -17 23 -14 -8 22 -19 22 -40
56 -46 74 -8 20 -13 26 -13 15z"/>
<path d="M3747 12189 c7 -7 15 -10 18 -7 3 3 -2 9 -12 12 -14 6 -15 5 -6 -5z"/>
<path d="M3995 12190 c-16 -7 -17 -9 -3 -9 9 -1 20 4 23 9 7 11 7 11 -20 0z"/>
<path d="M3611 12164 c0 -11 3 -14 6 -6 3 7 2 16 -1 19 -3 4 -6 -2 -5 -13z"/>
<path d="M3910 12170 c-13 -8 -13 -10 2 -10 9 0 20 5 23 10 8 13 -5 13 -25 0z"/>
<path d="M3868 12073 c7 -3 16 -2 19 1 4 3 -2 6 -13 5 -11 0 -14 -3 -6 -6z"/>
<path d="M3560 13441 c0 -6 4 -13 10 -16 6 -3 7 1 4 9 -7 18 -14 21 -14 7z"/>
<path d="M8277 15783 c-16 -15 6 -153 24 -153 4 0 16 14 27 32 l20 32 -24 29
c-13 16 -24 37 -24 48 0 19 -11 25 -23 12z m38 -83 c3 -5 1 -10 -4 -10 -6 0
-11 5 -11 10 0 6 2 10 4 10 3 0 8 -4 11 -10z"/>
<path d="M2157 15416 c-14 -11 -15 -15 -3 -19 8 -3 16 2 19 14 3 10 4 19 4 19
-1 0 -10 -7 -20 -14z"/>
<path d="M8490 15414 c0 -3 7 -12 15 -20 8 -9 15 -24 15 -35 0 -10 6 -19 14
-19 8 0 16 -6 18 -12 4 -10 9 -9 20 3 24 23 2 59 -44 75 -21 7 -38 11 -38 8z"/>
<path d="M2100 15400 c0 -5 5 -10 10 -10 6 0 10 -21 10 -47 0 -25 3 -43 7 -40
9 10 43 -23 44 -42 0 -10 2 -12 6 -3 2 6 13 12 24 12 10 0 19 4 19 9 0 5 -9 7
-20 4 -11 -3 -20 -1 -20 5 0 14 25 33 33 25 4 -3 7 -2 7 4 0 6 -7 14 -16 17
-9 4 -12 11 -7 18 4 7 9 21 10 30 3 16 1 16 -28 0 -30 -17 -31 -16 -46 6 -16
23 -33 29 -33 12z"/>
<path d="M8590 15235 c0 -12 6 -15 23 -10 12 3 17 3 11 -2 -16 -12 -14 -45 3
-38 8 3 19 5 24 5 26 0 -6 45 -38 55 -17 5 -23 2 -23 -10z"/>
<path d="M2070 15190 c0 -5 7 -10 15 -10 8 0 15 5 15 10 0 6 -7 10 -15 10 -8
0 -15 -4 -15 -10z"/>
<path d="M2010 15120 c6 -11 16 -20 22 -20 6 0 3 9 -7 20 -10 11 -20 20 -22
20 -2 0 1 -9 7 -20z"/>
<path d="M2335 15100 c-4 -6 7 -10 27 -10 25 0 29 3 18 10 -19 13 -37 13 -45
0z"/>
<path d="M2396 15055 c10 -8 25 -15 33 -15 11 0 9 4 -5 15 -10 8 -25 15 -33
15 -11 0 -9 -4 5 -15z"/>
<path d="M1935 15010 c-3 -5 -2 -10 4 -10 5 0 13 5 16 10 3 6 2 10 -4 10 -5 0
-13 -4 -16 -10z"/>
<path d="M1860 14970 c-9 -6 -10 -10 -3 -10 6 0 15 5 18 10 8 12 4 12 -15 0z"/>
<path d="M1687 14930 c-5 -18 -4 -18 19 -3 29 19 30 23 5 23 -10 0 -21 -9 -24
-20z"/>
<path d="M1596 14703 c-6 -14 -5 -15 5 -6 7 7 10 15 7 18 -3 3 -9 -2 -12 -12z"/>
<path d="M1616 14615 c4 -8 11 -15 16 -15 6 0 5 6 -2 15 -7 8 -14 15 -16 15
-2 0 -1 -7 2 -15z"/>
<path d="M1526 14580 c-21 -36 -21 -35 21 -43 25 -5 31 -3 27 8 -3 8 -15 12
-30 9 -23 -4 -24 -3 -14 16 6 11 15 18 20 15 5 -3 12 0 16 6 4 7 3 9 -4 5 -5
-3 -12 -1 -14 4 -2 6 -12 -3 -22 -20z"/>
<path d="M9410 14565 c13 -14 26 -25 28 -25 3 0 -5 11 -18 25 -13 14 -26 25
-28 25 -3 0 5 -11 18 -25z"/>
<path d="M1528 14483 c7 -3 16 -2 19 1 4 3 -2 6 -13 5 -11 0 -14 -3 -6 -6z"/>
<path d="M10336 14102 c-2 -4 -1 -14 4 -22 7 -11 9 -9 7 8 -1 24 -3 26 -11 14z"/>
<path d="M7110 51 c0 -5 14 -11 31 -15 45 -9 65 -8 54 3 -14 12 -85 22 -85 12z"/>
<path d="M7220 40 c0 -5 5 -10 11 -10 5 0 7 5 4 10 -3 6 -8 10 -11 10 -2 0 -4
-4 -4 -10z"/>
<path d="M7345 40 c-3 -5 7 -8 25 -7 16 1 30 5 30 10 0 11 -48 9 -55 -3z"/>
<path d="M7440 40 c0 -5 5 -10 11 -10 5 0 7 5 4 10 -3 6 -8 10 -11 10 -2 0 -4
-4 -4 -10z"/>
<path d="M4015 10 c-3 -5 -1 -10 4 -10 6 0 11 5 11 10 0 6 -2 10 -4 10 -3 0
-8 -4 -11 -10z"/>
</g>
</svg>
