<?xml version="1.0" standalone="no"?>
<!DOCTYPE svg PUBLIC "-//W3C//DTD SVG 20010904//EN"
 "http://www.w3.org/TR/2001/REC-SVG-20010904/DTD/svg10.dtd">
<svg version="1.0" xmlns="http://www.w3.org/2000/svg"
 width="1636.000000pt" height="2551.000000pt" viewBox="0 0 1636.000000 2551.000000"
 preserveAspectRatio="xMidYMid meet">

<g transform="translate(0.000000,2551.000000) scale(0.100000,-0.100000)"
fill="#000000" stroke="none">
<path d="M7850 25454 c-119 -3 -491 -22 -570 -29 -366 -33 -428 -40 -480 -50
-14 -3 -54 -7 -90 -10 -36 -4 -101 -13 -145 -22 -44 -8 -102 -15 -130 -15 -27
0 -54 -3 -59 -6 -5 -3 -21 -6 -35 -8 -32 -3 -185 -30 -261 -45 -30 -6 -102
-20 -160 -31 -58 -11 -144 -28 -191 -39 -48 -10 -99 -19 -115 -19 -15 0 -41
-5 -58 -10 -52 -18 -287 -81 -356 -96 -70 -16 -126 -32 -150 -44 -9 -4 -31
-11 -50 -15 -19 -4 -40 -11 -46 -16 -6 -5 -42 -18 -80 -30 -103 -32 -409 -178
-426 -204 -4 -6 -33 -29 -65 -50 -66 -46 -67 -47 -129 -138 -71 -105 -76 -190
-16 -304 26 -51 26 -53 10 -81 -10 -16 -24 -56 -32 -88 -8 -33 -26 -97 -41
-144 -15 -47 -33 -107 -41 -135 -7 -27 -18 -59 -23 -70 -79 -171 -91 -211 -86
-297 3 -57 8 -82 22 -96 22 -22 53 -35 53 -22 0 16 46 12 86 -7 35 -17 36 -17
50 2 8 11 21 28 29 38 8 9 15 24 15 32 0 31 43 106 73 127 l30 21 30 -34 c73
-83 126 -139 130 -139 18 0 13 38 -11 73 -39 57 -49 90 -57 172 -11 121 -6
175 24 244 43 97 78 133 150 154 99 28 115 25 180 -40 71 -72 95 -137 95 -263
0 -72 -4 -93 -27 -140 -56 -114 -87 -134 -200 -125 l-82 6 24 -19 c28 -23 119
-49 179 -51 81 -3 129 19 215 97 4 4 19 24 32 45 l25 38 -28 10 c-66 23 -117
136 -110 248 3 64 7 72 53 133 49 64 85 88 132 88 35 0 82 -47 96 -98 13 -44
16 -47 53 -50 22 -2 91 1 154 7 106 9 120 8 178 -11 48 -16 71 -31 95 -60 35
-44 47 -48 47 -14 0 29 48 77 100 101 36 16 41 16 71 1 18 -9 44 -16 58 -16
32 0 44 -8 60 -38 14 -27 31 -20 31 13 0 39 43 77 142 127 132 67 254 102 351
103 79 0 79 0 119 40 61 61 89 109 82 142 -3 15 0 57 6 93 6 36 15 96 21 135
17 129 88 276 151 315 39 24 84 25 223 5 112 -15 254 -69 292 -110 13 -13 29
-23 36 -20 6 2 52 16 100 31 79 24 89 30 101 58 7 18 37 65 65 104 28 40 51
76 51 80 0 10 87 85 169 145 101 75 155 66 314 -55 42 -32 95 -83 117 -113 22
-29 44 -56 50 -60 6 -4 23 -32 39 -64 l29 -57 102 -28 101 -28 22 20 c45 42
199 94 349 119 118 20 163 10 209 -46 46 -57 109 -234 129 -370 5 -29 13 -58
19 -64 16 -16 13 -63 -4 -77 -8 -7 -15 -16 -15 -21 0 -5 32 -42 71 -83 62 -65
75 -74 99 -70 15 3 58 -3 96 -14 38 -10 114 -30 169 -42 140 -33 239 -79 266
-125 31 -52 54 -62 75 -30 9 14 21 25 26 25 6 0 27 10 47 22 67 42 133 17 175
-66 l28 -56 20 25 c11 14 25 25 33 25 7 0 20 11 29 25 23 34 71 43 223 41 102
-2 134 1 137 11 3 7 9 13 13 12 29 -5 40 3 36 25 -3 16 3 29 19 42 12 11 28
29 34 39 6 11 23 27 38 35 26 14 28 14 56 -20 16 -19 30 -40 30 -46 0 -6 9
-19 19 -28 11 -10 22 -36 25 -59 3 -23 8 -59 12 -80 10 -59 -30 -167 -83 -222
-48 -51 -52 -71 -23 -108 11 -14 20 -30 20 -36 0 -17 60 -81 91 -97 15 -7 46
-14 67 -14 38 0 40 1 45 38 4 33 -2 44 -49 104 -51 64 -54 70 -54 125 0 32 7
85 15 118 8 33 14 72 15 86 0 34 55 116 91 134 65 34 151 2 203 -77 56 -84 60
-124 34 -355 -1 -7 -5 -13 -10 -13 -4 0 -8 -10 -8 -22 0 -36 -34 -79 -80 -99
-23 -10 -46 -16 -51 -13 -5 3 0 23 11 45 12 22 25 37 30 34 6 -4 10 5 10 18 0
29 -23 41 -50 27 -10 -6 -30 -10 -44 -10 -29 0 -33 -11 -11 -30 17 -14 20 -56
5 -65 -5 -3 -10 -14 -10 -24 0 -14 6 -17 24 -14 13 3 27 0 30 -6 11 -17 34
-13 56 9 16 16 20 17 20 4 0 -33 36 -6 70 53 45 76 60 94 71 87 5 -3 25 -36
43 -72 19 -37 52 -88 75 -114 39 -44 44 -46 87 -43 53 4 74 -2 74 -21 0 -25
17 -15 29 16 24 64 30 87 36 130 4 25 18 73 31 108 28 70 25 94 -23 201 -27
62 -105 293 -128 381 -38 148 -68 349 -70 470 -1 124 -12 177 -49 248 -24 46
-209 212 -235 212 -12 0 -83 32 -91 41 -9 9 -75 34 -84 31 -5 -2 -16 4 -25 11
-13 12 -77 31 -132 41 -8 1 -24 7 -36 14 -12 6 -47 18 -77 26 -31 8 -60 17
-64 20 -5 3 -27 6 -50 7 -23 2 -42 6 -42 10 0 4 -15 7 -34 7 -18 0 -43 5 -56
12 -12 6 -49 13 -83 15 -34 2 -95 10 -134 19 -40 9 -96 16 -125 17 -29 1 -57
5 -63 9 -9 7 -49 12 -180 25 -22 2 -119 9 -215 15 -96 6 -200 13 -230 15 -30
2 -118 5 -195 5 -77 1 -169 5 -205 10 -63 8 -1332 20 -1560 14z m3111 -1419
c5 4 9 -4 9 -17 0 -18 -2 -20 -10 -8 -8 13 -13 13 -40 -2 -29 -16 -30 -16 -30
2 0 23 53 53 58 33 2 -7 8 -11 13 -8z"/>
<path d="M8080 25065 c-13 -14 -18 -26 -12 -26 7 -1 16 -2 22 -3 5 0 19 -9 30
-18 27 -24 72 -23 87 2 16 25 8 44 -23 59 -41 18 -78 13 -104 -14z"/>
<path d="M7019 24799 c-7 -33 -4 -42 21 -59 15 -11 33 -20 38 -20 10 0 28 58
20 65 -5 5 -78 18 -79 14z"/>
<path d="M9247 24773 c-4 -3 -7 -17 -7 -30 0 -12 -6 -23 -12 -23 -7 -1 6 -10
30 -21 64 -30 83 -6 40 51 -21 29 -38 37 -51 23z"/>
<path d="M7150 24754 c0 -8 5 -12 10 -9 6 4 8 11 5 16 -9 14 -15 11 -15 -7z"/>
<path d="M8527 24663 c-2 -5 -10 -25 -17 -46 -27 -86 -143 -191 -238 -216 -25
-7 -39 -16 -36 -24 3 -9 -14 -12 -62 -12 -43 0 -69 -4 -71 -12 -8 -23 37 -34
130 -31 l92 3 -40 18 c-33 15 -37 20 -24 27 25 14 114 -13 139 -41 34 -39 70
-121 64 -145 -8 -30 4 -64 21 -64 8 0 21 12 29 28 32 62 121 122 179 122 14 0
41 -7 62 -16 20 -8 40 -13 43 -10 3 3 -17 29 -45 58 -43 46 -52 64 -72 138
-22 81 -23 87 -8 134 18 56 16 66 -19 66 -14 0 -41 7 -61 15 -39 17 -60 19
-66 8z"/>
<path d="M7601 24636 c-30 -12 -56 -27 -58 -33 -2 -6 3 -28 11 -48 13 -31 14
-43 2 -88 -19 -72 -58 -156 -89 -193 -15 -18 -27 -34 -27 -37 0 -3 21 1 47 9
65 20 97 18 152 -11 49 -24 82 -60 95 -101 5 -16 12 -20 26 -17 16 4 20 14 20
44 0 68 35 142 84 177 24 18 53 32 63 32 10 0 25 4 33 10 12 7 11 10 -5 15
-96 32 -167 71 -188 104 -38 57 -67 118 -67 141 0 26 -27 25 -99 -4z"/>
<path d="M7521 24196 c-16 -19 2 -30 27 -17 11 6 23 7 27 3 4 -4 6 0 3 8 -6
20 -42 24 -57 6z"/>
<path d="M9367 24174 c-41 -56 -201 -97 -294 -76 -24 5 -43 6 -43 2 0 -5 18
-22 39 -39 69 -55 91 -169 46 -237 -17 -26 -20 -70 -5 -79 5 -3 29 5 53 19 28
17 59 26 86 26 45 0 118 -32 128 -55 12 -34 21 -10 26 78 5 100 19 141 73 219
l34 50 -32 22 c-18 12 -43 37 -56 56 -29 44 -33 45 -55 14z"/>
<path d="M8788 24183 c6 -2 10 -9 6 -14 -3 -5 -2 -9 3 -10 4 0 19 -2 32 -5 13
-2 30 1 38 8 13 10 12 13 -4 19 -10 4 -34 8 -53 8 -19 -1 -29 -3 -22 -6z"/>
<path d="M6778 24114 c-27 -31 -48 -59 -48 -63 0 -4 9 -16 21 -27 55 -50 96
-203 83 -307 l-7 -51 44 46 c57 59 111 77 177 59 26 -7 57 -22 70 -33 18 -17
25 -19 35 -9 9 9 5 25 -21 74 -17 35 -32 70 -32 79 0 9 12 43 26 76 20 46 35
65 70 87 62 39 62 44 1 32 -29 -5 -98 -7 -155 -4 -112 6 -145 19 -178 68 -10
16 -23 29 -29 29 -5 0 -31 -26 -57 -56z"/>
<path d="M7886 24155 c-3 -9 -6 -24 -5 -33 0 -9 5 -4 10 12 9 32 6 48 -5 21z"/>
<path d="M8910 24150 c0 -5 5 -10 11 -10 5 0 7 5 4 10 -3 6 -8 10 -11 10 -2 0
-4 -4 -4 -10z"/>
<path d="M8547 24068 c-4 -12 -4 -24 -2 -26 7 -8 35 20 35 34 0 23 -27 16 -33
-8z"/>
<path d="M8397 23968 c-33 -67 -110 -159 -164 -198 -13 -9 -23 -31 -27 -57
l-6 -43 57 0 c36 0 75 -8 102 -20 24 -11 53 -20 65 -20 11 0 36 -9 54 -20 42
-26 47 -25 62 9 10 25 8 35 -11 72 -35 69 -49 136 -49 236 0 81 -2 94 -19 103
-11 5 -22 10 -24 10 -2 0 -20 -33 -40 -72z"/>
<path d="M7783 24023 c-8 -3 -10 -25 -6 -74 6 -73 -15 -195 -44 -253 -10 -20
-13 -43 -8 -77 4 -27 9 -49 12 -49 3 0 18 11 33 24 16 13 49 27 76 31 26 4 58
14 71 22 12 8 47 16 75 17 52 1 53 2 60 36 5 26 3 38 -9 45 -8 6 -34 22 -58
38 -23 15 -55 46 -71 69 -16 23 -37 50 -46 60 -9 9 -22 35 -29 58 -13 41 -33
61 -56 53z"/>
<path d="M6335 23996 c-16 -6 -44 -19 -62 -29 -18 -9 -38 -17 -46 -17 -8 0
-25 -8 -37 -18 l-23 -18 29 -23 29 -23 20 26 c12 14 25 26 29 26 5 0 31 10 57
23 36 16 48 28 49 45 0 24 -2 25 -45 8z"/>
<path d="M9903 23986 c-22 -12 -22 -13 17 -35 22 -12 63 -44 92 -70 77 -70
108 -83 108 -44 0 21 -44 83 -59 83 -8 0 -21 7 -30 15 -22 21 -90 65 -99 64
-4 -1 -17 -7 -29 -13z"/>
<path d="M11450 23980 c0 -5 5 -10 10 -10 6 0 10 5 10 10 0 6 -4 10 -10 10 -5
0 -10 -4 -10 -10z"/>
<path d="M11482 23958 c3 -7 13 -15 24 -17 16 -3 17 -1 5 13 -16 19 -34 21
-29 4z"/>
<path d="M4790 23930 c0 -5 10 -15 23 -21 22 -12 22 -12 3 10 -21 23 -26 26
-26 11z"/>
<path d="M10635 23898 c-46 -33 -95 -81 -95 -92 1 -6 10 0 21 13 11 13 22 21
26 17 3 -3 14 1 24 10 10 9 49 21 87 26 59 9 70 14 69 30 -2 27 -92 25 -132
-4z"/>
<path d="M10813 23905 c-3 -9 2 -24 12 -35 9 -10 14 -24 10 -29 -3 -6 -1 -11
4 -11 6 0 11 7 11 15 0 8 6 15 14 15 7 0 19 7 26 15 10 12 9 16 -6 21 -11 3
-27 10 -36 15 -24 12 -28 12 -35 -6z m47 -25 c0 -5 -2 -10 -4 -10 -3 0 -8 5
-11 10 -3 6 -1 10 4 10 6 0 11 -4 11 -10z"/>
<path d="M11005 23897 c-31 -15 -56 -101 -48 -165 3 -30 9 -48 13 -42 6 9 17
8 44 -5 20 -9 34 -21 31 -25 -11 -18 19 -22 32 -5 19 27 16 37 -9 30 -20 -5
-21 -4 -5 5 9 6 17 17 17 24 0 7 9 21 21 32 29 26 60 94 53 116 -9 28 -19 22
-48 -32 -17 -32 -36 -52 -51 -56 -35 -9 -46 2 -34 33 6 15 8 37 5 49 -4 13 -2
26 4 29 12 7 14 26 3 24 -5 -1 -17 -6 -28 -12z"/>
<path d="M4850 23838 c10 -23 16 -46 14 -50 -3 -4 0 -8 5 -8 6 0 11 7 11 15 0
24 -28 85 -39 85 -6 0 -2 -19 9 -42z"/>
<path d="M6120 23840 c0 -17 4 -38 9 -48 5 -9 12 -26 16 -36 11 -37 12 -10 2
52 -11 65 -27 84 -27 32z"/>
<path d="M10390 23830 c-10 -18 -9 -24 1 -31 18 -11 33 16 21 38 -9 14 -11 14
-22 -7z"/>
<path d="M5350 23820 c0 -11 2 -20 5 -20 2 0 9 9 15 20 9 16 8 20 -5 20 -8 0
-15 -9 -15 -20z"/>
<path d="M5030 23808 c0 -30 51 -127 80 -152 21 -17 28 -30 24 -43 -6 -17 -6
-17 7 -1 8 9 38 29 67 43 58 29 62 42 40 115 -15 47 -28 51 -46 11 -22 -51
-80 -46 -139 12 -23 22 -33 26 -33 15z"/>
<path d="M10445 23787 c-12 -14 -19 -34 -17 -52 4 -45 12 -78 18 -72 4 4 34
132 34 144 0 10 -18 -1 -35 -20z"/>
<path d="M5697 23773 c-3 -4 1 -17 9 -28 10 -13 14 -15 14 -4 0 20 -16 43 -23
32z"/>
<path d="M5774 23728 c4 -13 10 -40 13 -61 8 -50 19 -55 27 -12 5 25 2 44 -11
65 -20 35 -38 40 -29 8z"/>
<path d="M5840 23718 c0 -24 16 -56 23 -48 3 3 2 20 0 38 -6 36 -23 44 -23 10z"/>
<path d="M10366 23731 c-14 -5 -16 -10 -7 -15 15 -9 41 -1 41 14 0 11 -7 12
-34 1z"/>
<path d="M10138 23698 c2 -10 -3 -29 -12 -43 -9 -13 -16 -39 -16 -57 0 -21
-17 -63 -45 -112 -34 -59 -42 -82 -35 -92 6 -7 10 -18 9 -26 -2 -13 -1 -19 21
-78 20 -56 23 -86 10 -110 -10 -18 -9 -21 2 -18 24 9 85 -30 129 -84 24 -29
73 -85 109 -123 65 -71 140 -185 140 -212 0 -8 -9 -27 -21 -41 -11 -15 -37
-52 -57 -83 -99 -152 -172 -226 -259 -266 -51 -24 -54 -27 -48 -54 4 -18 3
-29 -4 -29 -6 0 -11 -8 -11 -18 0 -10 -4 -22 -8 -27 -5 -6 -17 -37 -26 -71
l-18 -61 26 -29 c39 -44 62 -67 81 -83 12 -10 16 -25 13 -54 -3 -30 1 -46 14
-59 19 -19 24 -48 8 -48 -5 0 -10 -4 -10 -10 0 -16 64 1 81 22 8 11 24 19 35
17 10 -2 29 3 42 10 13 7 47 16 75 21 43 7 54 6 65 -8 11 -14 12 -13 12 9 2
86 81 225 143 250 35 14 49 28 43 44 -7 19 51 14 72 -6 21 -19 66 -24 108 -13
23 6 54 52 54 80 0 14 -5 12 -25 -10 -22 -24 -31 -26 -100 -26 -76 0 -76 0
-89 32 l-14 31 -13 -36 c-13 -38 -36 -50 -63 -35 -26 15 -19 44 27 107 9 13
17 35 17 48 0 13 11 40 25 60 13 20 32 62 42 92 9 31 19 58 22 61 11 9 31 50
31 61 0 11 19 33 35 40 26 10 105 76 116 97 11 20 18 22 54 16 36 -5 43 -3 57
18 22 33 27 118 8 118 -5 0 -10 -17 -10 -39 0 -32 -4 -40 -22 -45 -45 -12
-119 -6 -146 12 l-27 17 16 -25 c9 -14 25 -30 37 -36 11 -5 17 -15 14 -21 -11
-18 -87 60 -126 129 -19 35 -48 95 -64 133 -62 149 -75 175 -94 175 -23 0 -37
29 -31 61 3 15 0 30 -6 33 -16 10 -13 56 4 62 22 9 19 24 -18 79 -50 75 -79
136 -74 156 4 15 1 16 -27 7 -17 -6 -37 -18 -43 -26 -19 -23 -26 -12 -32 52
-1 5 -16 6 -33 3 -44 -7 -100 21 -108 53 -5 20 -12 25 -36 25 -24 0 -30 -4
-26 -17z m280 -141 c4 -20 -25 -34 -40 -19 -15 15 -1 44 19 40 10 -2 19 -11
21 -21z m42 -142 c0 -16 -27 -32 -37 -22 -3 4 -3 13 0 22 8 20 37 20 37 0z
m-6 -1351 c9 -23 8 -24 -14 -24 -11 0 -20 2 -20 4 0 12 13 36 20 36 4 0 11 -7
14 -16z"/>
<path d="M6920 23680 c-19 -11 -33 -20 -30 -21 3 0 24 -2 47 -4 41 -3 62 13
47 36 -8 13 -25 10 -64 -11z"/>
<path d="M8940 23654 c-64 -40 -162 -74 -223 -79 -31 -2 -43 -8 -45 -21 -2
-11 -8 -23 -13 -28 -14 -15 -11 -26 6 -26 8 0 15 -4 15 -9 0 -5 11 -11 24 -15
12 -3 47 -35 77 -72 30 -36 62 -74 72 -82 9 -9 17 -22 17 -29 0 -23 19 -24 45
-2 19 17 25 32 25 64 0 72 40 195 87 267 16 26 16 28 -2 47 -10 12 -21 21 -24
20 -3 0 -31 -16 -61 -35z"/>
<path d="M9327 23683 c-13 -12 -7 -21 18 -27 14 -4 25 -12 25 -20 0 -17 34
-48 43 -39 4 3 7 2 7 -4 0 -6 9 -13 21 -16 20 -5 20 -5 2 16 -24 29 -97 96
-104 97 -3 0 -9 -3 -12 -7z"/>
<path d="M7217 23653 c-9 -21 -9 -27 1 -31 7 -2 31 -41 54 -85 37 -73 42 -91
46 -169 l4 -88 30 0 c18 0 31 -6 35 -17 6 -15 7 -15 12 0 12 33 127 159 185
203 24 18 27 24 17 42 -6 11 -11 29 -11 39 0 15 -7 18 -51 14 -108 -7 -150 5
-222 65 -36 29 -70 54 -76 54 -6 0 -17 -12 -24 -27z"/>
<path d="M6072 23663 c-8 -3 -39 -30 -69 -59 -58 -57 -58 -58 -143 -58 -54 -1
-54 -1 -61 -36 -9 -55 -54 -143 -88 -172 -16 -15 -44 -31 -62 -35 l-32 -9 41
-33 c45 -35 50 -52 28 -91 -8 -14 -55 -104 -106 -200 -96 -184 -132 -240 -154
-240 -7 0 -25 -9 -40 -21 -21 -17 -24 -24 -15 -35 6 -8 19 -14 28 -14 36 0
102 -87 184 -245 46 -88 94 -180 108 -204 17 -32 21 -45 12 -48 -7 -3 -13 -10
-13 -18 0 -7 -7 -18 -15 -25 -23 -19 -19 -28 25 -50 23 -12 51 -38 67 -63 28
-44 65 -152 55 -161 -3 -3 26 -6 64 -6 42 0 80 -6 98 -15 15 -8 38 -15 49 -15
12 0 32 -11 46 -24 15 -13 38 -26 53 -30 23 -5 28 -2 37 26 6 17 11 43 11 58
0 15 8 52 18 83 17 49 28 71 67 123 6 9 5 28 -3 56 -7 24 -20 74 -29 111 -10
42 -23 71 -32 75 -39 15 -104 68 -197 164 -103 105 -174 215 -174 271 0 34 88
170 178 272 59 68 92 97 135 118 56 28 57 29 57 72 0 23 9 62 20 86 24 53 25
92 4 110 -30 25 -82 144 -99 229 -11 52 -23 65 -53 53z m-385 -378 c3 -9 3
-19 -1 -22 -8 -9 -37 18 -30 28 8 14 24 11 31 -6z"/>
<path d="M10905 23546 c-48 -102 -94 -157 -153 -181 -39 -17 -82 -52 -82 -68
0 -5 16 3 36 18 33 25 37 26 46 11 5 -9 27 -24 49 -32 26 -11 41 -24 45 -41 7
-28 19 -20 28 19 5 22 1 30 -23 47 -16 12 -36 21 -45 21 -17 0 -22 25 -7 34 4
3 27 -4 50 -15 23 -11 45 -17 50 -15 4 3 11 33 15 68 5 52 12 68 38 95 34 35
75 44 84 18 10 -25 24 -17 24 14 0 16 -6 31 -15 35 -8 3 -15 12 -15 20 0 8
-15 20 -32 27 -18 7 -36 15 -41 17 -4 2 -28 -39 -52 -92z"/>
<path d="M5217 23540 c-59 -29 -107 -72 -88 -78 5 -2 19 1 30 7 67 36 128 -14
145 -120 l6 -35 80 0 c44 1 80 4 80 7 0 3 -9 14 -19 23 -11 10 -46 52 -78 94
-32 43 -61 79 -65 80 -5 2 -8 15 -8 28 0 30 -11 30 -83 -6z"/>
<path d="M4710 23522 c0 -9 7 -11 23 -7 36 12 40 22 8 21 -18 -1 -31 -6 -31
-14z"/>
<path d="M9040 23532 c0 -5 6 -16 13 -26 12 -16 14 -16 26 -3 10 13 9 17 -8
26 -24 13 -31 14 -31 3z"/>
<path d="M10510 23494 c0 -17 48 -84 62 -88 22 -5 24 -26 3 -26 -10 0 -15 -10
-15 -28 0 -15 -5 -33 -12 -40 -7 -7 -8 -12 -2 -12 18 1 43 27 49 53 9 34 17
39 61 39 31 0 34 3 34 29 0 27 -2 28 -24 18 -33 -15 -69 -5 -110 31 -32 29
-46 36 -46 24z"/>
<path d="M11615 23462 c-12 -9 -34 -37 -50 -62 -15 -25 -36 -57 -47 -72 -15
-23 -17 -36 -9 -80 5 -29 9 -44 10 -32 1 27 71 168 105 213 38 51 33 69 -9 33z"/>
<path d="M6676 23400 c-20 -22 -70 -56 -111 -76 -69 -34 -78 -36 -153 -33
l-80 4 -6 -50 c-4 -27 -9 -65 -12 -82 -5 -28 -3 -33 12 -33 34 0 122 -59 158
-106 19 -25 42 -66 52 -92 9 -26 19 -54 22 -62 3 -8 9 5 13 29 17 91 93 162
184 171 65 7 70 28 14 55 -37 18 -45 28 -66 85 -30 80 -31 111 -4 174 12 27
20 50 18 52 -2 2 -20 -14 -41 -36z"/>
<path d="M9579 23411 c12 -16 21 -37 21 -48 0 -39 -47 -148 -78 -182 -18 -19
-36 -48 -39 -63 -5 -26 -4 -28 30 -28 50 0 79 -13 126 -56 33 -29 41 -43 42
-73 0 -20 4 -54 8 -76 l8 -40 12 45 c38 142 111 227 238 275 1 0 -6 29 -16 65
-9 36 -16 78 -15 95 2 16 0 25 -4 18 -5 -8 -36 -11 -92 -10 -95 2 -159 27
-205 79 -14 15 -32 28 -41 28 -13 0 -12 -5 5 -29z"/>
<path d="M11040 23421 c-13 -26 -13 -31 5 -31 9 0 15 9 15 25 0 30 -6 32 -20
6z"/>
<path d="M4401 23414 c0 -11 3 -14 6 -6 3 7 2 16 -1 19 -3 4 -6 -2 -5 -13z"/>
<path d="M8031 23408 c-26 -7 -31 -12 -20 -19 8 -5 23 -9 35 -9 11 0 25 -5 32
-12 17 -17 28 18 12 37 -14 17 -13 17 -59 3z"/>
<path d="M8183 23409 c-25 -25 -15 -41 20 -34 17 4 36 11 41 16 5 4 26 -1 47
-12 22 -11 39 -16 39 -12 0 4 12 -8 26 -28 24 -34 28 -36 67 -32 39 5 45 2 90
-43 40 -41 48 -54 45 -79 -3 -28 -1 -31 24 -29 16 1 28 -2 28 -7 0 -5 11 -15
25 -21 19 -8 22 -14 13 -20 -10 -6 -8 -8 4 -8 24 0 41 -37 34 -73 -5 -24 0
-36 29 -68 44 -49 52 -82 33 -135 l-15 -42 34 -4 c30 -4 33 -2 33 23 0 41 -30
150 -50 184 -10 17 -21 41 -25 55 -8 24 -59 98 -80 112 -5 4 -6 8 -1 8 5 0
-26 35 -70 78 -56 54 -102 88 -154 114 -75 37 -88 41 -145 54 -70 14 -81 15
-92 3z"/>
<path d="M5625 23385 c-48 -23 -48 -24 -19 -24 20 -1 38 7 54 24 28 30 28 30
-35 0z"/>
<path d="M11135 23367 c-11 -22 -33 -58 -48 -80 -25 -34 -32 -38 -65 -36 -28
2 -36 0 -33 -11 2 -8 7 -33 11 -55 8 -49 39 -119 74 -164 14 -19 29 -49 32
-67 6 -34 18 -50 43 -56 10 -2 14 14 17 67 3 78 12 124 26 142 16 20 10 127
-12 215 -11 45 -21 83 -23 84 -1 1 -11 -16 -22 -39z m27 -211 c-2 -21 -9 -45
-17 -52 -8 -8 -17 -23 -20 -34 -14 -44 -35 -14 -35 51 0 57 15 81 48 77 25 -3
27 -6 24 -42z"/>
<path d="M7894 23366 c-205 -84 -352 -287 -394 -540 -6 -37 -9 -71 -6 -74 3
-2 19 1 36 8 21 9 27 16 22 27 -11 19 4 130 23 170 8 17 15 38 15 46 0 25 11
47 24 47 6 0 19 12 29 26 15 20 16 28 7 39 -11 14 -7 19 12 16 12 -1 48 51 48
71 0 37 89 98 144 98 11 0 32 12 45 25 13 14 30 25 38 25 8 0 12 4 8 10 -3 5
7 16 22 24 48 26 12 17 -73 -18z"/>
<path d="M11247 23368 c-2 -7 2 -36 9 -63 20 -77 33 -211 23 -252 -4 -21 -6
-39 -4 -41 6 -6 75 71 75 84 0 6 7 17 15 24 13 11 20 9 39 -10 14 -12 30 -35
36 -51 14 -33 22 -35 44 -13 31 30 17 69 -35 93 -46 23 -56 43 -39 78 8 15 27
38 42 51 31 26 37 62 13 82 -9 8 -38 10 -84 8 -45 -3 -77 0 -93 8 -29 17 -35
17 -41 2z"/>
<path d="M5023 23337 c-30 -44 -63 -150 -70 -222 -5 -55 -2 -67 30 -130 19
-39 49 -83 65 -99 30 -27 30 -28 41 -8 6 12 11 27 11 35 0 8 7 28 16 46 9 18
18 51 21 74 2 23 14 61 25 83 l20 42 -47 43 c-51 47 -76 87 -84 136 l-6 33
-22 -33z"/>
<path d="M4622 23330 l-22 -18 39 -49 c62 -79 76 -111 59 -142 -7 -14 -19 -32
-26 -39 -7 -8 -19 -26 -27 -42 -13 -25 -12 -29 4 -44 17 -16 19 -15 35 8 9 14
16 29 16 33 1 18 41 55 54 50 8 -3 49 -49 91 -102 42 -53 79 -95 81 -92 3 2
-7 28 -22 56 -20 41 -27 72 -31 144 -4 82 0 120 22 195 7 21 6 22 -69 22 -75
0 -166 16 -176 31 -3 4 -15 -1 -28 -11z"/>
<path d="M4520 23317 c0 -10 71 -127 77 -127 5 0 -43 92 -61 115 -8 11 -16 16
-16 12z"/>
<path d="M12190 23310 c-7 -72 -10 -150 -5 -150 3 0 19 14 35 30 33 33 40 36
40 16 0 -7 7 -19 15 -26 27 -22 13 -43 -35 -55 -57 -14 -57 -9 -4 -230 4 -14
-2 -23 -20 -31 -22 -10 -23 -10 -14 5 8 13 4 26 -16 55 -22 32 -37 73 -51 131
-6 27 -17 72 -21 84 -3 10 -11 5 -24 -17 -27 -44 -69 -43 -61 2 1 5 -5 6 -14
2 -9 -3 -20 -6 -23 -6 -4 0 -13 -12 -20 -27 -6 -16 -36 -57 -66 -91 -30 -35
-69 -93 -86 -129 -37 -75 -54 -170 -35 -193 7 -8 28 -42 47 -75 40 -70 94
-143 139 -187 18 -18 29 -39 27 -51 -5 -33 -26 -31 -44 5 -22 44 -21 44 -43
24 -19 -17 -20 -17 -35 13 -10 18 -14 41 -10 55 6 27 -3 66 -16 66 -4 0 -18
-11 -31 -24 l-23 -24 -19 35 c-18 35 -18 36 2 57 l21 22 -24 44 c-18 33 -31
46 -50 48 -21 3 -26 8 -26 33 0 18 6 32 15 36 16 6 80 121 72 129 -13 14 -62
-13 -79 -42 -11 -19 -26 -34 -33 -34 -7 0 -29 32 -49 70 -21 39 -32 70 -27 70
6 0 16 -9 23 -20 7 -11 17 -20 21 -20 5 0 15 -7 24 -15 19 -20 47 -16 51 7 2
11 -2 15 -15 12 -26 -6 -149 150 -165 210 -6 25 -18 48 -26 51 -7 2 -10 0 -7
-5 3 -6 1 -10 -6 -10 -10 0 -10 -3 -1 -12 7 -7 12 -20 12 -30 0 -10 9 -32 20
-50 24 -40 25 -66 4 -96 -14 -20 -13 -25 15 -66 17 -25 31 -47 31 -50 0 -3 14
-28 30 -54 17 -27 30 -57 30 -67 0 -22 -54 -121 -82 -151 -15 -17 -18 -30 -13
-58 4 -20 11 -38 15 -41 5 -3 27 27 49 67 22 40 47 82 55 93 15 20 15 20 35 0
29 -29 55 -133 41 -164 -14 -31 -7 -36 35 -24 33 10 36 9 55 -17 11 -15 20
-31 20 -35 0 -19 44 -65 77 -81 41 -20 60 -19 83 2 49 44 88 73 94 67 3 -3 6
-28 6 -54 0 -26 5 -51 11 -54 17 -11 24 4 11 25 -10 17 -10 20 3 20 16 0 18 5
41 145 18 114 21 120 40 104 17 -14 18 -62 3 -91 -11 -20 -14 -206 -4 -217 4
-3 9 -1 13 5 4 6 17 16 30 23 32 17 37 -4 18 -70 -21 -69 -20 -111 4 -215 22
-95 38 -134 41 -99 3 47 -4 82 -22 111 -26 43 -25 121 3 198 24 66 38 86 61
86 9 0 17 -6 20 -12 4 -10 7 -10 18 0 23 21 39 14 39 -18 0 -16 -5 -30 -11
-30 -15 0 -5 -113 11 -118 6 -2 10 -38 10 -86 0 -68 -3 -86 -18 -99 -22 -20
-32 -13 -32 21 0 14 -3 22 -7 19 -3 -4 -6 -21 -5 -38 0 -23 -3 -29 -14 -25
-19 7 -48 -38 -41 -64 4 -17 2 -20 -16 -15 -37 11 -125 118 -133 161 -9 50
-16 55 -49 38 -16 -8 -47 -14 -69 -12 -41 3 -41 3 -48 51 -7 53 -18 75 -18 37
0 -22 -2 -23 -74 -17 l-74 5 -37 -80 c-20 -44 -40 -91 -45 -104 -15 -38 -42
-28 -83 29 -64 89 -87 111 -100 98 -6 -6 -20 -11 -31 -11 -15 0 -11 -8 22 -36
62 -53 71 -76 78 -217 6 -103 4 -129 -9 -153 -9 -16 -18 -40 -21 -54 -8 -40
-66 -119 -99 -136 -38 -20 -101 -13 -136 15 -14 12 -39 26 -54 32 -16 6 -40
30 -55 53 -26 39 -27 47 -27 171 0 101 4 138 17 165 15 31 63 78 107 104 21
13 82 25 75 15 -3 -5 1 -10 8 -11 7 0 18 -2 23 -2 6 -1 16 -5 23 -9 13 -9 17
11 4 28 -24 34 -66 47 -151 47 l-88 1 -41 -41 c-23 -23 -48 -42 -56 -42 -8 0
-17 -8 -20 -18 -3 -10 -28 -41 -56 -70 -27 -29 -50 -56 -50 -61 0 -13 -43 -30
-83 -33 l-37 -3 27 -38 c17 -24 27 -51 27 -73 0 -40 8 -43 30 -10 23 36 54 42
77 17 12 -12 32 -21 50 -21 l30 0 -26 27 c-14 15 -25 32 -25 38 0 5 -9 21 -20
35 -18 24 -27 80 -14 93 11 11 61 -14 94 -48 40 -41 51 -96 43 -209 -6 -77 -6
-79 -55 -127 -35 -35 -57 -49 -77 -49 -41 0 -114 42 -131 76 -8 16 -16 31 -18
34 -2 3 -74 7 -160 10 -136 5 -163 9 -199 28 -24 12 -50 33 -59 47 -21 32 -32
32 -36 -1 -3 -27 -59 -81 -88 -84 -52 -7 -108 2 -127 19 -12 11 -23 17 -26 14
-4 -3 -17 -3 -31 1 -17 4 -26 15 -32 38 l-7 33 -18 -42 c-31 -74 -184 -160
-357 -203 -65 -16 -110 -21 -146 -17 l-53 5 -50 -51 c-67 -71 -83 -99 -83
-150 0 -94 -61 -323 -108 -407 -54 -95 -82 -111 -195 -111 -121 1 -254 33
-336 83 -20 12 -40 28 -44 35 -12 19 -32 16 -133 -20 l-92 -32 -47 -70 c-27
-38 -66 -96 -88 -128 -31 -46 -105 -114 -171 -159 -6 -4 -4 -14 7 -26 9 -10
17 -29 17 -41 0 -12 11 -39 25 -59 14 -20 25 -44 25 -52 0 -13 22 -15 154 -15
l153 0 95 -48 c128 -64 245 -177 303 -290 l40 -78 140 2 c77 1 148 -1 158 -6
10 -4 36 -3 56 4 47 14 128 14 136 1 3 -5 17 -10 30 -10 23 0 35 -17 35 -49 0
-23 -42 -45 -74 -39 -39 8 -51 -6 -22 -26 21 -13 26 -25 26 -56 0 -47 -14 -88
-42 -117 -16 -17 -18 -25 -9 -41 28 -52 3 -114 -55 -138 -32 -13 -34 -17 -34
-61 0 -42 -4 -50 -45 -89 -25 -23 -45 -46 -45 -51 0 -6 -13 -27 -30 -48 -16
-21 -30 -46 -30 -56 0 -39 -9 -46 -51 -39 -37 7 -40 5 -60 -26 -32 -52 -76
-84 -115 -84 -23 0 -34 -5 -34 -15 0 -8 -14 -30 -31 -50 -28 -32 -36 -35 -85
-35 -30 0 -54 -3 -54 -8 0 -4 -13 -22 -29 -40 -34 -37 -65 -41 -117 -16 -34
16 -36 16 -63 -10 -20 -19 -42 -28 -79 -33 -50 -6 -53 -4 -85 29 l-33 36 -11
-28 c-7 -19 -24 -32 -56 -45 -43 -16 -50 -16 -79 -2 -24 11 -36 12 -49 4 -10
-6 -17 -15 -16 -21 1 -5 -13 -14 -31 -19 -26 -8 -36 -7 -52 8 -11 10 -20 30
-20 44 l0 25 -16 -22 c-9 -13 -26 -22 -42 -22 -21 0 -30 -7 -39 -30 -21 -56
-69 -23 -57 38 4 17 1 32 -5 36 -6 4 -11 16 -11 27 0 24 -18 25 -27 2 -11 -33
-46 -53 -95 -53 -40 0 -50 4 -72 31 -14 17 -26 35 -26 40 0 5 -11 4 -26 -1
-68 -26 -143 3 -165 64 -11 31 -16 35 -38 28 -70 -19 -134 19 -148 88 -5 27
-9 30 -45 28 -50 -2 -86 25 -116 86 l-23 47 -18 -22 c-14 -17 -24 -20 -44 -15
-22 5 -27 12 -27 35 0 16 -3 31 -7 33 -25 10 -63 73 -63 102 0 29 -4 34 -38
44 -60 18 -86 53 -85 113 1 43 -3 52 -21 59 -39 14 -51 40 -52 106 -1 52 -5
68 -27 94 -20 24 -27 43 -27 75 0 24 -3 50 -6 59 -4 10 1 18 12 22 11 3 30 10
44 16 24 10 24 11 5 18 -13 5 -29 1 -47 -11 -34 -25 -53 -24 -72 2 -18 27 -5
66 31 93 20 15 44 20 97 20 61 0 292 -15 409 -28 37 -4 38 -3 63 47 40 77 129
184 187 222 103 68 152 80 342 80 163 0 171 1 193 23 12 12 26 22 31 22 5 0
11 14 15 30 3 17 18 42 32 55 18 17 22 25 12 25 -8 0 -23 9 -33 20 -11 12 -45
37 -77 56 -68 42 -176 163 -213 240 -24 51 -26 52 -92 69 -38 9 -81 21 -98 26
-25 8 -33 6 -51 -13 -28 -31 -59 -48 -88 -48 -13 0 -46 -9 -73 -21 -34 -15
-87 -24 -185 -31 -127 -10 -138 -10 -168 8 -38 22 -35 17 -99 154 -66 142 -73
168 -73 266 0 67 -3 87 -17 97 -9 6 -28 28 -42 47 -15 20 -43 44 -63 55 -20
11 -36 27 -36 37 0 16 -7 17 -57 12 -39 -4 -77 0 -118 11 -33 9 -89 25 -125
35 -65 17 -224 83 -247 102 -7 6 -12 24 -10 41 1 23 -3 32 -15 35 -11 2 -18
-3 -18 -11 0 -8 -21 -25 -46 -36 -25 -12 -55 -31 -67 -42 -24 -22 -53 -24
-109 -7 -42 12 -108 70 -108 94 0 20 -8 18 -42 -11 -16 -14 -42 -25 -56 -25
-15 0 -43 -4 -62 -10 -19 -5 -96 -11 -171 -14 -135 -4 -179 -15 -179 -43 0 -7
-8 -17 -18 -22 -10 -5 -24 -21 -31 -35 -32 -59 -112 -33 -151 49 -11 22 -30
53 -42 68 -45 56 -18 176 57 250 49 49 79 48 83 -4 2 -26 -3 -41 -21 -60 -55
-56 -77 -129 -24 -82 56 51 95 52 124 2 24 -40 33 -36 33 15 0 25 5 48 10 51
16 10 12 33 -7 40 -10 3 -47 33 -82 65 -35 33 -66 60 -70 60 -13 0 -42 60 -35
72 4 7 3 8 -5 4 -6 -4 -14 0 -17 8 -9 25 -128 76 -177 76 -54 1 -187 -65 -187
-92 0 -10 5 -18 10 -18 6 0 10 4 10 9 0 5 14 17 32 25 126 63 243 -84 219
-274 -19 -156 -46 -206 -128 -241 -86 -37 -127 -18 -239 112 -23 26 -29 147
-10 211 9 31 16 77 16 102 0 49 14 82 43 104 22 17 22 42 -1 42 -12 0 -31 -24
-58 -77 -27 -53 -47 -79 -60 -81 -14 -2 -43 22 -97 78 -42 45 -85 95 -94 112
-15 25 -23 29 -47 24 -48 -10 -150 31 -161 64 -8 26 -57 28 -54 3 3 -35 -1
-44 -27 -55 -23 -11 -28 -9 -49 18 -13 16 -25 27 -28 24 -3 -3 -6 -34 -8 -69
-3 -50 -9 -70 -27 -91 -13 -15 -34 -44 -45 -65 -23 -39 -26 -42 -92 -71 -34
-15 -42 -15 -64 -3 -60 34 -84 113 -87 287 -1 94 0 104 19 117 12 8 29 15 39
15 10 0 18 7 18 15 0 10 10 15 30 15 17 0 30 5 30 10 0 20 15 9 38 -25 33 -52
55 -158 47 -231 -4 -35 -2 -64 3 -68 12 -7 24 186 16 260 -7 61 -32 99 -79
119 -19 8 -19 9 5 13 16 3 30 -3 42 -18 17 -21 18 -21 18 -3 0 11 -7 28 -15
39 -8 10 -15 38 -15 61 0 23 -9 65 -20 93 -11 28 -20 57 -20 65 0 22 -39 59
-45 43 -2 -7 -12 -38 -21 -68 -9 -30 -20 -59 -24 -63 -19 -22 -70 37 -70 82 0
24 -33 84 -72 129 -21 24 -26 37 -19 46 6 7 8 21 5 32 -3 12 1 26 10 33 9 8
16 19 16 26 0 7 7 18 15 25 8 7 15 21 15 31 0 13 7 19 21 19 18 0 20 -4 14
-30 -4 -16 -1 -37 5 -47 9 -14 10 -6 7 39 -3 45 0 59 12 64 9 4 19 6 24 6 4
-1 7 2 7 8 0 5 -3 10 -7 10 -10 0 -33 49 -33 68 0 8 -9 25 -20 39 -18 23 -19
43 -2 43 4 0 20 -12 36 -26 22 -20 26 -28 16 -34 -10 -6 -7 -18 13 -53 23 -39
25 -48 13 -60 -9 -9 -11 -19 -5 -28 7 -11 9 -11 9 4 0 22 9 21 39 -3 15 -13
22 -27 18 -40 -3 -11 -1 -20 4 -20 5 0 12 13 15 29 4 17 13 32 21 36 13 4 15
-1 9 -37 -12 -71 -12 -83 2 -80 6 1 12 -2 12 -8 0 -5 -7 -10 -15 -10 -19 0
-19 -9 1 -31 12 -13 16 -35 15 -73 -1 -42 6 -69 29 -118 17 -35 30 -70 30 -79
0 -9 7 -33 15 -52 8 -20 15 -50 15 -66 0 -42 9 -61 31 -61 13 0 19 7 19 24 0
20 16 36 36 36 2 0 23 -17 46 -37 23 -21 38 -32 34 -25 -10 17 9 15 24 -3 14
-17 30 -20 30 -5 0 6 -39 50 -87 99 -49 49 -97 107 -108 128 -11 21 -22 40
-25 43 -11 11 -69 128 -65 132 2 2 6 21 8 42 2 21 8 41 13 44 5 4 20 32 34 62
13 30 32 62 41 70 22 19 79 129 79 152 0 20 -5 23 -49 33 -23 5 -31 4 -27 -4
9 -14 -37 -36 -58 -28 -9 4 -16 18 -16 32 0 15 -4 24 -10 20 -16 -10 -12 -62
5 -69 8 -3 26 -1 39 3 21 9 23 7 19 -17 -4 -25 -3 -26 10 -9 24 29 30 20 24
-35 -7 -55 -37 -104 -37 -60 0 12 -4 22 -10 22 -5 0 -10 8 -10 17 0 33 -19 -2
-22 -40 -2 -33 -5 -37 -30 -37 -23 0 -28 4 -28 25 0 16 -6 25 -15 25 -8 0 -15
5 -15 10 0 6 -8 10 -17 10 -30 1 -56 47 -50 87 6 34 34 66 49 57 5 -3 8 11 8
30 0 40 -4 43 -27 21 -22 -22 -38 -13 -41 23 -2 18 -7 30 -12 27 -5 -3 -28 1
-52 10 -57 19 -55 20 -50 -20 3 -22 0 -35 -7 -35 -7 0 -16 -10 -21 -22 -9 -23
-9 -23 -10 2 -1 15 -9 -3 -20 -43 -10 -37 -23 -73 -29 -81 -6 -7 -12 -25 -13
-39 -3 -36 -24 -18 -53 48 -22 50 -98 145 -116 145 -7 0 -6 -25 5 -85 1 -5 8
-21 15 -34 8 -14 11 -38 7 -61 -5 -30 1 -52 26 -106 29 -62 33 -78 32 -154 -1
-70 -5 -95 -27 -141 -25 -55 -25 -57 -5 -51 14 3 19 1 14 -6 -20 -32 -85 3
-100 55 -8 24 -32 37 -42 22 -3 -5 5 -21 19 -35 24 -24 37 -63 37 -113 0 -15
7 -36 15 -47 14 -18 14 -17 15 13 0 19 10 43 24 60 27 31 44 27 26 -8 -8 -13
-10 -39 -6 -66 5 -39 3 -46 -13 -50 -17 -4 -18 -8 -8 -31 6 -15 22 -41 34 -58
55 -74 73 -226 33 -277 -22 -28 -46 -27 -53 1 -3 13 -5 11 -6 -4 -1 -17 -11
-24 -43 -32 -47 -12 -56 -6 -69 48 -16 61 -10 97 21 127 27 26 29 32 15 43 -8
7 -15 18 -15 25 0 20 -27 37 -67 42 -21 3 -43 9 -50 15 -11 9 -67 -45 -289
-282 -43 -47 -82 -86 -86 -88 -5 -2 -8 -8 -8 -12 0 -5 -23 -30 -50 -56 -28
-26 -113 -109 -190 -185 -76 -76 -203 -197 -282 -271 -79 -73 -163 -151 -186
-173 -24 -22 -51 -44 -60 -49 -10 -5 -19 -12 -22 -16 -10 -13 -172 -155 -200
-175 -15 -11 -61 -47 -101 -80 -41 -33 -90 -71 -109 -84 -19 -13 -37 -27 -40
-30 -3 -4 -34 -29 -70 -56 -36 -26 -80 -62 -98 -79 -18 -17 -36 -30 -40 -29
-4 1 -16 -5 -27 -15 -11 -9 -37 -25 -58 -34 -21 -10 -40 -25 -43 -33 -4 -8
-12 -15 -20 -15 -8 0 -14 -4 -14 -9 0 -5 -14 -14 -31 -21 -17 -7 -36 -18 -43
-24 -24 -23 -76 -56 -86 -56 -6 0 -13 -6 -16 -14 -3 -8 -19 -19 -36 -25 -17
-6 -68 -34 -114 -61 -46 -28 -94 -55 -106 -60 -13 -6 -52 -33 -88 -60 -36 -27
-90 -66 -120 -86 -67 -45 -212 -195 -237 -244 -10 -19 -24 -43 -32 -52 -8 -10
-11 -18 -8 -18 4 0 -13 -30 -38 -66 -25 -36 -45 -71 -46 -77 -2 -30 -9 -48
-28 -76 -12 -16 -21 -38 -21 -49 0 -12 -4 -23 -9 -26 -14 -9 -59 -165 -75
-261 -8 -49 -18 -101 -22 -115 -17 -66 -22 -243 -18 -670 2 -269 8 -492 15
-530 6 -36 14 -128 19 -205 9 -146 23 -290 41 -435 6 -47 12 -125 14 -175 2
-49 7 -115 10 -145 3 -30 8 -84 11 -120 3 -36 9 -81 14 -100 5 -19 11 -84 15
-145 7 -126 32 -334 45 -385 5 -19 12 -63 15 -97 2 -35 9 -82 15 -105 5 -24
14 -90 20 -148 12 -122 22 -185 44 -295 8 -44 27 -165 42 -270 14 -104 37
-253 50 -330 13 -77 29 -178 35 -225 11 -88 24 -124 39 -115 4 3 16 -3 26 -12
17 -17 17 -18 -4 -21 -20 -3 -22 -9 -22 -61 0 -31 7 -83 15 -114 8 -32 15 -68
15 -80 0 -13 8 -34 17 -47 13 -19 17 -40 14 -83 -3 -55 -2 -59 17 -53 12 4 24
0 33 -10 12 -15 11 -19 -8 -31 -24 -16 -24 -17 3 -148 8 -38 16 -83 18 -100 2
-16 5 -30 6 -30 1 0 3 -9 5 -20 53 -335 47 -311 76 -307 49 7 53 7 57 -9 4
-21 -26 -33 -45 -17 -34 28 -32 -56 4 -162 8 -25 21 -81 29 -125 14 -81 30
-157 59 -275 8 -36 22 -94 30 -130 7 -36 23 -105 35 -155 11 -49 30 -135 40
-190 11 -55 25 -108 30 -117 6 -10 10 -28 10 -40 0 -19 11 -64 34 -143 2 -5 6
-23 10 -40 8 -29 66 -226 86 -291 6 -17 10 -45 10 -63 0 -18 13 -76 29 -129
16 -54 35 -128 41 -167 6 -38 18 -90 25 -115 37 -123 44 -151 39 -164 -3 -8 2
-28 10 -45 9 -16 16 -40 16 -51 0 -20 4 -22 51 -18 39 2 54 -1 62 -13 18 -29
2 -49 -36 -42 -19 3 -37 1 -40 -4 -6 -9 32 -170 52 -223 6 -14 12 -41 14 -60
5 -36 51 -165 66 -184 5 -6 25 -78 46 -161 21 -82 46 -167 57 -188 11 -22 17
-41 14 -44 -2 -3 9 -42 26 -87 54 -143 60 -160 64 -194 2 -19 15 -59 28 -90
13 -31 27 -75 31 -97 4 -22 13 -51 20 -65 7 -14 16 -49 20 -78 4 -29 13 -56
20 -58 7 -3 16 -31 20 -62 4 -31 11 -62 17 -69 19 -24 50 -89 63 -133 15 -51
44 -135 57 -165 4 -11 10 -31 13 -44 2 -13 13 -42 25 -65 11 -23 22 -55 24
-72 5 -40 41 -132 61 -154 9 -10 16 -37 17 -66 1 -27 5 -53 9 -59 4 -5 8 -14
9 -20 1 -5 8 -25 17 -42 8 -18 13 -40 9 -48 -3 -9 1 -18 8 -21 8 -3 20 -20 26
-37 7 -18 22 -57 33 -87 12 -30 24 -59 27 -65 4 -5 13 -32 20 -60 8 -27 24
-68 37 -90 12 -22 23 -46 23 -53 0 -8 9 -27 21 -43 11 -16 19 -35 16 -42 -2
-6 11 -41 29 -77 17 -36 35 -81 38 -101 4 -20 15 -44 26 -54 11 -10 20 -28 20
-39 0 -12 7 -30 15 -40 8 -11 15 -31 16 -45 0 -14 13 -48 29 -76 16 -27 36
-64 45 -81 9 -17 29 -44 44 -60 22 -23 30 -42 35 -87 3 -35 14 -71 27 -88 11
-16 19 -37 18 -46 -3 -33 1 -42 31 -74 16 -18 27 -35 25 -39 -2 -3 4 -20 15
-37 10 -17 30 -63 44 -102 43 -119 65 -152 79 -118 3 6 3 -2 1 -18 -4 -22 4
-49 30 -99 20 -38 36 -76 36 -85 0 -9 9 -27 20 -41 11 -14 20 -32 20 -40 0
-17 73 -100 87 -100 4 0 14 -9 20 -19 8 -13 19 -18 33 -14 16 4 20 1 20 -18 0
-14 -9 -30 -20 -37 -20 -12 -20 -13 12 -55 44 -56 68 -100 68 -126 0 -12 5
-21 10 -21 6 0 10 -7 10 -15 0 -8 12 -23 27 -32 36 -23 63 -50 63 -63 0 -5 5
-10 10 -10 6 0 22 -12 35 -26 24 -26 30 -42 26 -72 -3 -19 30 -54 46 -48 9 4
11 -3 7 -22 -8 -39 15 -87 55 -114 19 -13 39 -37 45 -55 6 -18 27 -44 46 -58
49 -35 90 -115 60 -115 -5 0 -10 -5 -10 -11 0 -6 7 -9 15 -5 9 3 15 0 15 -9 0
-8 4 -15 9 -15 5 0 14 -15 21 -34 6 -18 21 -43 35 -56 13 -12 21 -28 19 -34
-3 -7 7 -18 21 -26 14 -7 25 -17 25 -22 0 -4 8 -16 17 -26 10 -10 24 -29 32
-44 7 -14 20 -25 29 -24 10 1 18 -9 22 -26 3 -14 27 -49 53 -77 45 -47 58 -56
81 -52 5 1 6 -6 2 -15 -6 -16 9 -44 25 -44 4 0 5 16 2 35 -5 29 -1 39 17 55
22 19 24 19 42 4 22 -21 24 -77 4 -116 -16 -30 -7 -38 39 -38 27 0 37 -25 21
-53 -9 -14 -7 -21 7 -31 9 -7 17 -16 17 -20 0 -9 26 -36 35 -36 3 0 3 5 -1 12
-5 7 -3 8 5 4 7 -5 21 0 31 9 18 16 19 16 25 -8 4 -14 4 -30 1 -36 -4 -5 -2
-12 4 -16 5 -3 10 -15 10 -26 0 -29 26 -66 94 -135 34 -34 81 -85 106 -115 61
-73 128 -139 140 -139 6 0 19 -9 30 -20 11 -11 26 -17 35 -13 11 4 18 -1 22
-16 5 -19 15 -25 35 -22 4 0 11 -11 14 -27 4 -15 17 -42 31 -59 l24 -32 -25
-7 c-31 -7 -46 1 -46 27 0 14 -7 19 -30 19 -28 0 -30 -3 -30 -34 0 -19 -5 -38
-10 -41 -6 -4 -8 -10 -5 -15 3 -5 1 -19 -6 -31 -6 -12 -13 -36 -16 -53 -2 -17
-11 -41 -19 -54 -8 -12 -14 -41 -13 -65 1 -37 -14 -94 -41 -152 -9 -20 -36
-151 -44 -210 -2 -16 -11 -51 -20 -76 -9 -26 -17 -60 -17 -75 -1 -16 -5 -38
-9 -49 -22 -57 -60 -196 -65 -240 -4 -27 -10 -59 -15 -70 -11 -23 -70 -267
-73 -299 -2 -11 -8 -31 -15 -44 -7 -12 -10 -27 -7 -32 3 -5 1 -11 -4 -14 -4
-3 -11 -23 -15 -44 -3 -21 -15 -66 -26 -101 -11 -34 -25 -93 -31 -129 -6 -37
-17 -76 -24 -87 -7 -11 -16 -41 -20 -65 -4 -25 -18 -76 -30 -115 -13 -38 -26
-93 -29 -121 -3 -28 -10 -63 -16 -78 -5 -15 -10 -45 -10 -66 0 -21 -4 -41 -9
-44 -9 -6 -20 -49 -28 -106 -2 -19 -13 -73 -24 -120 -11 -47 -22 -112 -25
-145 -3 -33 -8 -67 -11 -75 -10 -30 -15 -118 -16 -320 -1 -184 2 -214 22 -290
29 -106 78 -209 105 -220 12 -5 17 -9 13 -9 -4 -1 1 -11 12 -22 11 -12 28 -42
38 -65 10 -24 23 -44 28 -44 12 0 96 -80 140 -133 17 -19 47 -43 67 -53 30
-13 36 -20 27 -31 -6 -7 -8 -13 -3 -14 5 0 20 -3 34 -5 33 -6 60 4 41 15 -22
14 -4 51 25 51 13 0 24 -4 24 -10 0 -5 7 -10 15 -10 23 0 18 -13 -15 -36 l-30
-21 37 -1 c20 -1 41 2 47 7 26 20 68 21 114 2 26 -11 72 -22 102 -26 104 -12
175 -23 215 -33 55 -14 322 -20 485 -11 74 4 171 8 215 8 44 0 125 5 180 11
54 6 129 12 165 15 36 3 139 11 230 18 91 6 365 13 610 14 245 0 531 6 635 12
105 7 235 14 290 16 367 14 593 23 615 23 67 0 480 14 529 18 31 3 187 6 346
8 160 2 335 7 390 11 133 9 226 14 430 23 94 4 175 11 180 14 11 7 113 14 317
24 116 6 140 10 154 25 22 24 41 24 54 0 10 -20 64 -27 85 -11 18 14 128 31
138 21 6 -6 16 -5 27 2 14 8 22 7 35 -3 18 -15 190 -22 210 -9 6 3 47 9 92 12
73 6 93 12 170 53 49 25 93 51 98 58 20 24 85 68 85 58 0 -6 -4 -14 -10 -17
-5 -3 -10 -15 -10 -25 0 -10 -14 -30 -30 -43 -16 -14 -30 -30 -30 -36 0 -6 -5
-11 -10 -11 -6 0 -6 -7 2 -19 6 -10 17 -17 24 -14 6 2 15 0 19 -6 3 -6 18 -11
33 -11 23 1 25 2 9 11 -9 6 -15 15 -11 20 4 6 11 6 20 -2 11 -9 25 -9 59 1 52
15 65 28 68 67 2 19 11 32 27 40 14 6 38 25 54 42 24 25 29 40 32 92 4 71 10
82 30 55 9 -13 12 -34 8 -65 -7 -60 -8 -150 -3 -156 3 -2 30 -8 62 -13 49 -8
59 -7 73 9 9 10 26 18 38 17 33 -2 131 30 184 60 54 31 109 52 139 52 77 0
191 94 239 198 19 41 29 52 47 52 26 0 39 26 66 135 12 46 15 78 9 93 -4 13
-6 28 -3 32 3 5 7 60 9 123 4 101 2 118 -16 147 -11 19 -15 35 -10 39 15 9 33
85 28 122 -2 19 -7 63 -10 99 -7 68 -51 190 -68 190 -6 0 -7 7 -4 15 4 11 -3
19 -22 27 -21 9 -23 12 -9 15 18 5 23 28 7 38 -5 3 -10 14 -10 25 0 10 -7 21
-16 24 -26 10 -29 7 -8 -10 18 -15 18 -15 -6 -10 -14 3 -34 6 -45 6 -14 0 -26
14 -39 43 -11 23 -26 47 -33 52 -11 8 -12 17 -4 38 15 39 14 44 -9 50 -11 3
-20 9 -19 14 5 30 -3 63 -15 63 -8 0 -27 11 -42 25 -15 14 -33 25 -39 25 -15
0 -28 28 -19 41 4 6 11 6 19 -1 8 -7 19 -9 25 -5 6 3 10 -3 10 -14 0 -12 7
-21 15 -21 19 0 19 9 -2 32 -12 13 -13 22 -6 29 13 13 38 -54 29 -78 -6 -13
-4 -14 9 -3 9 7 14 19 11 27 -3 7 -1 13 4 13 16 0 11 37 -5 44 -17 6 -22 86
-5 86 19 0 3 60 -21 80 -4 3 -21 34 -40 70 -30 57 -34 62 -39 40 -4 -17 -8
-21 -14 -12 -4 6 -4 17 -1 22 11 19 16 60 6 60 -5 0 -14 19 -19 42 -18 74 -39
123 -56 126 -17 4 -22 22 -6 22 6 0 7 6 1 18 -9 17 -58 123 -100 216 -17 36
-25 46 -34 37 -20 -20 -37 -12 -37 19 0 17 5 30 10 30 21 0 8 45 -40 144 -70
144 -120 254 -120 264 0 5 -6 15 -14 21 -8 7 -18 26 -21 43 -4 17 -19 52 -34
77 -14 25 -41 84 -60 131 -50 126 -60 150 -86 205 -13 28 -29 65 -36 83 -14
40 -47 56 -70 36 -8 -8 -36 -17 -62 -20 -42 -6 -45 -5 -41 14 3 11 21 35 40
53 19 18 34 40 34 48 0 9 19 24 44 35 26 12 42 25 39 32 -2 7 10 20 28 30 53
27 119 94 119 121 0 19 4 22 23 18 31 -7 55 15 59 56 2 26 8 34 23 34 15 0 21
8 23 31 3 29 6 31 60 40 48 8 56 12 54 28 -3 14 1 17 12 13 17 -7 96 56 96 75
0 6 11 19 25 30 14 11 25 25 25 31 0 7 16 30 35 52 19 22 35 34 35 27 0 -23
21 -12 38 19 9 18 28 43 41 58 13 14 35 41 49 59 14 19 36 38 49 43 13 5 23
16 23 25 0 9 18 34 40 55 25 24 40 48 40 63 0 15 7 26 20 29 11 3 20 1 20 -4
0 -5 4 -9 10 -9 5 0 7 7 4 14 -3 8 4 25 16 38 12 13 29 40 37 61 16 39 59 77
87 77 9 0 16 6 16 14 0 7 7 19 15 26 8 7 15 20 15 29 1 19 34 61 49 61 6 0 11
11 11 24 0 24 22 51 33 40 4 -4 11 6 17 21 6 15 26 44 45 64 19 19 35 46 35
58 0 24 34 66 44 56 3 -4 6 1 6 10 0 10 4 17 9 17 10 0 23 72 22 123 -1 20 3
37 9 37 5 0 10 -14 10 -31 0 -17 5 -29 11 -27 6 2 9 6 7 8 -3 6 3 14 47 64 14
16 28 40 31 53 4 14 14 23 25 23 12 0 19 7 19 20 0 11 5 20 11 20 7 0 8 11 4
31 -6 26 -4 30 12 27 13 -2 19 4 21 25 2 15 12 32 23 37 10 6 19 18 19 27 0 9
10 45 21 80 19 56 25 63 48 63 33 1 64 26 81 67 7 18 16 33 21 33 5 0 9 12 9
28 0 38 34 123 54 134 9 5 16 16 16 25 0 9 6 13 15 9 21 -8 45 32 45 76 0 27
4 38 15 38 8 0 15 5 15 10 0 6 11 28 25 50 14 22 23 40 20 40 -4 0 1 10 9 22
11 15 12 25 5 34 -13 16 -3 35 14 28 14 -5 67 97 67 128 0 9 6 18 14 21 8 3
17 19 21 35 3 16 15 39 27 52 17 18 18 24 7 31 -8 5 -9 9 -3 9 12 0 46 99 38
112 -3 4 -1 8 4 8 5 0 12 8 16 18 3 9 14 31 25 47 11 17 20 38 20 47 1 9 12
29 26 44 24 26 45 85 80 222 15 59 15 67 0 104 -14 36 -14 43 -2 56 13 12 18
9 41 -24 l25 -37 11 29 c6 16 17 48 23 72 6 23 14 42 18 42 3 0 14 21 23 48
10 26 21 54 25 62 8 15 7 41 -3 113 -4 24 -2 36 4 32 5 -3 10 -13 10 -21 0 -8
5 -14 10 -14 6 0 10 5 10 10 0 6 7 10 15 10 10 0 15 10 15 29 0 36 -15 48 -29
24 -10 -17 -12 -17 -26 2 -9 11 -13 26 -10 34 3 8 0 18 -7 23 -10 6 -8 12 8
26 11 10 19 23 16 30 -2 6 1 12 6 12 13 0 42 -34 42 -49 0 -21 24 -7 38 22 7
15 18 53 25 84 6 32 17 62 24 66 7 4 13 13 13 20 0 31 22 87 34 87 16 0 28 70
15 84 -5 5 3 19 16 32 16 15 25 34 25 55 0 17 6 45 14 62 19 43 46 124 46 141
0 8 7 27 15 42 8 16 15 39 15 51 0 12 5 25 11 28 6 4 8 13 5 21 -3 8 0 17 8
20 7 3 19 32 26 65 7 33 17 62 21 65 5 3 9 12 9 20 0 8 9 33 19 57 26 55 61
161 61 184 0 10 9 43 19 73 10 31 22 79 26 108 4 28 11 55 16 58 16 9 40 77
45 123 2 24 8 49 13 55 17 21 41 112 39 147 -1 22 8 52 20 74 12 20 25 55 28
78 4 23 10 47 15 52 10 13 26 83 34 150 4 28 13 66 22 85 9 19 17 54 19 78 2
24 13 56 24 72 12 17 20 44 20 68 0 21 4 52 9 68 5 16 19 63 32 104 12 41 24
79 27 84 2 4 6 27 8 50 2 22 5 48 5 56 1 8 6 20 11 26 12 16 50 183 49 218 0
16 -5 34 -11 40 -16 16 -12 26 12 23 19 -2 24 5 31 38 5 22 13 55 18 72 6 18
12 55 14 82 2 32 11 60 24 77 12 15 22 37 22 50 1 13 2 27 3 32 1 4 6 29 10
57 4 27 14 62 22 77 8 15 14 52 14 82 0 30 5 58 10 61 6 4 8 10 5 15 -3 5 -1
18 5 30 5 11 14 28 19 39 6 10 7 28 5 38 -3 11 1 36 9 56 20 47 46 176 52 260
1 15 5 30 8 34 4 3 7 17 7 29 0 13 5 26 11 29 6 4 8 14 5 22 -3 8 1 24 9 37 8
12 12 26 9 29 -4 4 -2 12 3 19 6 7 16 58 22 113 7 55 19 119 27 143 8 23 14
65 14 93 0 28 5 60 12 72 6 12 15 56 20 97 12 111 19 154 28 165 5 6 11 33 15
60 4 28 12 60 16 73 5 13 9 57 10 98 1 41 5 77 10 80 5 3 9 16 9 30 0 14 4 33
9 42 5 9 19 76 30 147 12 72 24 139 26 150 2 11 8 42 13 68 5 27 8 57 5 67 -3
10 5 39 16 65 12 26 21 65 21 86 0 21 5 41 11 45 7 4 9 26 6 58 -2 28 1 71 9
96 12 42 24 165 28 273 1 25 4 49 8 52 4 4 4 13 1 21 -3 8 -1 20 5 27 5 6 10
41 10 77 0 36 10 99 21 140 12 41 21 95 21 120 0 25 4 61 10 80 5 19 12 53 14
75 3 22 10 55 16 74 5 19 7 44 4 57 -3 12 0 33 7 46 15 28 20 79 9 93 -4 6 -4
37 0 70 4 33 5 72 3 88 -2 15 0 27 5 27 5 0 10 12 11 28 8 145 14 199 23 209
7 9 7 13 -1 13 -13 0 -15 46 -1 55 5 3 8 29 7 58 -2 29 0 61 4 73 9 26 28 210
34 340 3 55 8 135 12 179 3 44 7 118 9 165 6 150 14 214 30 223 16 9 20 57 4
57 -5 0 -10 9 -10 20 0 11 4 20 9 20 5 0 9 16 8 35 -1 19 -5 35 -9 35 -4 0 -8
21 -8 48 0 26 -4 64 -9 85 -5 22 -5 39 0 43 5 3 9 17 9 32 0 15 3 44 6 65 5
29 3 36 -7 32 -17 -6 -53 41 -39 50 6 3 13 -1 16 -9 8 -20 24 -21 24 -1 0 8
-5 15 -11 15 -5 0 -8 4 -5 9 3 5 -3 20 -14 32 -11 13 -19 20 -20 15 0 -5 -7
-3 -15 4 -11 9 -12 16 -2 33 18 33 30 38 45 16 21 -30 27 -23 27 29 0 33 -6
55 -18 66 -9 10 -17 19 -17 20 0 9 33 66 40 71 13 8 12 1002 -1 1010 -6 4 -6
12 -2 18 17 23 2 127 -18 127 -5 0 -9 8 -9 18 0 9 -7 26 -15 36 -8 11 -15 39
-15 63 0 35 -3 43 -19 43 -29 0 -52 58 -45 113 4 28 2 47 -5 51 -15 10 -14 37
2 33 17 -3 21 48 4 65 -8 8 -17 45 -21 88 -3 41 -11 79 -16 84 -6 6 -10 16
-10 23 0 7 -11 36 -25 65 -14 28 -25 58 -25 65 0 8 -25 66 -56 129 -50 103
-68 128 -151 214 -52 54 -116 113 -144 130 -51 33 -64 60 -29 60 25 0 25 4 -2
41 l-23 31 -83 -7 c-80 -7 -86 -6 -146 24 -45 22 -75 30 -110 29 -33 0 -51 4
-59 16 -10 14 -97 39 -172 50 -11 1 -30 8 -43 15 -12 6 -26 10 -31 7 -5 -3
-39 5 -76 19 -38 13 -71 22 -75 20 -4 -3 -13 2 -20 10 -7 8 -21 15 -31 15 -10
0 -26 8 -36 18 -10 10 -52 35 -93 56 -41 21 -84 46 -95 55 -36 32 -118 84
-132 84 -7 0 -13 4 -13 8 0 4 -42 37 -92 74 -152 108 -188 135 -308 237 -63
54 -120 98 -127 98 -7 0 -13 4 -13 8 0 5 -34 35 -75 68 -42 32 -107 88 -146
124 -39 36 -78 69 -87 74 -10 5 -53 41 -97 81 -44 39 -93 82 -109 96 -53 43
-158 140 -266 243 -186 178 -177 171 -202 158 -32 -16 -108 -42 -124 -42 -21
0 -17 38 5 45 11 3 22 13 25 22 5 12 1 14 -16 9 -13 -3 -34 -6 -47 -6 -23 0
-23 -2 -18 -48 10 -87 -26 -99 -38 -12 -6 41 -10 50 -27 50 -17 0 -19 4 -13
33 4 17 11 37 15 42 4 6 10 55 12 110 4 77 11 115 32 164 28 69 24 88 -16 78
-17 -5 -29 -20 -42 -57 -10 -28 -24 -50 -32 -50 -8 0 -14 -9 -14 -20 0 -11 -4
-20 -10 -20 -5 0 -10 8 -10 18 0 9 -9 32 -20 50 -12 19 -28 54 -36 79 -15 44
-15 47 17 137 40 113 56 137 87 129 26 -6 28 10 9 74 -16 55 -40 81 -35 39 2
-17 -2 -31 -9 -33 -17 -6 -27 41 -14 65 15 29 14 34 -8 27 -11 -3 -22 -1 -25
4 -6 8 -45 7 -51 -1 -4 -7 -47 -135 -52 -155 -11 -46 -49 -21 -59 38 -8 46
-25 89 -35 89 -4 0 -5 -22 -2 -50 4 -37 2 -56 -11 -75 -10 -15 -16 -41 -15
-58 2 -18 -2 -42 -9 -53 -10 -20 -6 -28 44 -80 50 -51 54 -60 45 -81 -6 -13
-15 -23 -21 -23 -7 0 -7 7 0 21 17 30 6 33 -24 7 -20 -16 -34 -46 -49 -103
-22 -77 -33 -93 -48 -64 -51 99 -69 155 -64 198 16 120 41 205 58 194 5 -3 8
-2 4 3 -8 14 21 75 35 72 25 -6 30 128 5 159 -12 16 -2 43 17 43 23 0 31 52
10 67 -25 18 -29 17 -57 -16 -17 -21 -32 -29 -49 -27 -33 4 -48 14 -48 32 0 8
-5 14 -11 14 -5 0 -7 -4 -4 -10 3 -5 3 -15 -1 -22 -5 -7 -16 8 -30 38 -12 27
-23 42 -24 34z m450 -212 c0 -7 -11 -35 -24 -63 l-24 -50 -1 33 c-1 19 7 47
16 63 18 30 33 38 33 17z m-9002 -82 c-2 -30 -8 -42 -22 -44 -31 -6 -37 11
-25 66 12 50 13 51 31 35 14 -12 18 -28 16 -57z m8672 -12 c0 -26 -8 -34 -26
-27 -8 3 -14 19 -14 39 0 32 1 33 20 22 11 -7 20 -22 20 -34z m-305 -23 c8
-14 25 -39 39 -56 15 -16 35 -40 46 -53 14 -16 26 -21 40 -17 15 5 21 0 26
-20 3 -14 4 -34 1 -44 -3 -13 0 -18 7 -15 7 3 18 -7 26 -20 11 -22 11 -29 -4
-51 -12 -18 -13 -24 -4 -23 7 2 13 -4 13 -12 0 -9 -11 -16 -25 -18 -20 -2 -31
-14 -45 -47 -11 -25 -24 -43 -30 -41 -5 1 -21 -5 -34 -15 -13 -11 -30 -19 -37
-19 -11 0 -10 -7 3 -34 17 -36 13 -66 -10 -66 -13 0 -81 80 -136 160 -14 19
-28 37 -32 40 -3 3 -17 26 -29 52 -18 39 -20 53 -12 75 33 87 61 144 90 180
17 23 32 46 32 51 0 15 31 31 47 25 8 -3 20 -17 28 -32z m-8537 -15 c12 -24
22 -56 23 -72 0 -16 4 -38 9 -49 8 -18 9 -18 9 4 1 26 47 101 62 101 13 0 11
-8 -13 -72 -22 -56 -24 -58 -59 -58 -31 0 -39 4 -47 28 -6 15 -17 44 -27 65
-9 22 -12 36 -6 33 5 -4 12 -2 15 3 4 5 2 12 -4 16 -15 9 -12 45 3 45 8 0 23
-20 35 -44z m9132 -100 c0 -12 -6 -30 -14 -41 -12 -17 -13 -17 -20 9 -7 29 9
70 25 61 5 -4 9 -16 9 -29z m-329 -52 c-2 -16 -4 -63 -5 -104 -1 -61 -4 -75
-18 -78 -23 -4 -31 14 -18 39 9 16 8 24 -5 39 -17 19 -15 36 16 118 13 33 35
22 30 -14z m269 -4 c0 -5 -2 -10 -4 -10 -3 0 -8 5 -11 10 -3 6 -1 10 4 10 6 0
11 -4 11 -10z m-9026 -53 c7 -11 6 -23 -4 -41 -18 -35 -25 -33 -28 10 -1 19
-7 45 -14 57 -11 21 -10 21 12 6 13 -9 28 -23 34 -32z m9066 -43 c0 -15 -6
-24 -15 -24 -15 0 -21 40 -9 53 12 11 24 -3 24 -29z m20 -73 c0 -9 7 -26 15
-37 8 -10 15 -27 15 -36 0 -10 4 -18 9 -18 5 0 12 -7 15 -16 5 -14 4 -15 -8
-5 -12 10 -17 8 -26 -8 -6 -12 -17 -21 -25 -21 -11 0 -14 17 -12 84 1 46 5 82
10 79 4 -2 7 -12 7 -22z m-9095 9 c5 -8 11 -8 20 0 16 13 23 4 63 -75 22 -45
38 -63 60 -71 21 -8 33 -21 38 -39 7 -30 -5 -76 -21 -82 -12 -4 -35 52 -35 83
0 11 -12 31 -26 45 -14 13 -31 38 -38 54 -17 39 -56 46 -56 10 0 -22 -22 -40
-34 -28 -8 8 -8 61 0 91 7 24 19 29 29 12z m8793 -83 c2 -10 -3 -17 -12 -17
-18 0 -29 16 -21 31 9 14 29 6 33 -14z m-8736 -44 c15 -20 31 -52 34 -72 4
-20 16 -54 26 -75 27 -53 30 -153 5 -171 -9 -6 -17 -24 -17 -39 0 -15 -6 -37
-14 -49 -7 -12 -17 -35 -20 -51 -6 -26 -5 -27 9 -13 8 9 15 22 15 30 0 8 7 20
15 27 8 7 15 19 15 26 0 8 5 14 10 14 14 0 12 -22 -5 -44 -8 -11 -15 -32 -15
-47 0 -15 -9 -48 -20 -73 -15 -37 -24 -46 -44 -46 l-25 0 6 83 c5 74 3 89 -22
150 -15 38 -38 81 -51 97 -20 23 -22 32 -14 60 5 18 7 36 5 40 -3 5 2 10 10
14 8 3 15 14 15 24 0 10 9 35 20 57 11 22 20 52 20 67 0 37 9 35 42 -9z m9014
-18 c19 -62 10 -89 -20 -59 -42 41 -28 -22 20 -97 19 -29 34 -64 34 -78 0 -33
-21 -101 -32 -101 -4 0 -8 -5 -8 -11 0 -5 5 -7 12 -3 8 5 9 0 5 -17 -4 -13 -7
-29 -7 -35 0 -7 -11 -19 -25 -28 -25 -17 -25 -16 -13 3 10 17 10 23 -4 33 -21
16 -78 157 -78 190 1 36 47 161 64 174 9 6 16 20 16 32 0 20 9 52 15 52 2 0
11 -25 21 -55z m154 26 c0 -24 -18 -37 -32 -23 -8 8 -7 16 2 27 17 21 30 19
30 -4z m-8964 -94 c-24 -48 -43 -70 -55 -62 -15 9 -14 25 2 19 8 -3 13 4 14
16 1 12 12 44 25 72 l23 52 3 -33 c2 -18 -4 -47 -12 -64z m8304 68 c-7 -9 -15
-13 -17 -11 -7 7 7 26 19 26 6 0 6 -6 -2 -15z m193 -39 c24 -19 21 -59 -8 -86
-21 -20 -25 -21 -31 -7 -3 9 -3 33 0 54 3 21 5 41 6 46 0 11 13 8 33 -7z m185
-23 c-4 -44 -23 -55 -31 -17 -6 35 1 54 20 54 10 0 13 -10 11 -37z m254 -27
c-6 -10 -31 33 -32 54 0 8 8 2 19 -15 10 -16 16 -34 13 -39z m-578 -1 c-4 -8
-8 -15 -10 -15 -2 0 -4 7 -4 15 0 8 4 15 10 15 5 0 7 -7 4 -15z m512 -53 c-10
-9 -17 5 -21 40 l-4 33 15 -34 c8 -18 13 -36 10 -39z m-252 52 c9 -3 16 -13
16 -21 0 -20 -34 -12 -38 10 -4 19 -1 20 22 11z m356 -44 c0 -25 -10 -50 -20
-50 -5 0 -6 9 -3 20 3 11 0 20 -6 20 -12 0 -15 32 -4 43 10 10 33 -13 33 -33z
m-800 -10 c0 -5 -7 -10 -16 -10 -8 0 -12 5 -9 10 3 6 10 10 16 10 5 0 9 -4 9
-10z m-8252 -43 c16 -44 15 -57 -2 -57 -17 0 -21 5 -30 43 -4 19 -3 26 3 22 7
-3 8 0 5 9 -3 9 -2 16 3 16 5 0 14 -15 21 -33z m8978 -13 c4 -17 2 -29 -7 -35
-19 -12 -33 -6 -37 15 -9 46 33 65 44 20z m44 -85 c-12 -21 -8 -124 4 -137 3
-3 14 2 23 11 22 19 53 6 53 -24 0 -18 2 -19 15 -5 8 8 15 20 15 26 0 19 24 5
37 -21 20 -39 16 -87 -7 -94 -13 -4 -20 -15 -20 -30 0 -23 -2 -24 -27 -14 -16
5 -34 18 -41 27 -11 14 -14 15 -21 3 -17 -28 -38 -1 -65 83 -26 80 -28 90 -16
133 9 29 20 48 32 51 10 2 18 9 18 15 0 6 3 8 6 5 3 -4 0 -16 -6 -29z m-124
-227 c-20 -21 -39 -7 -25 19 8 17 13 18 25 8 13 -11 13 -14 0 -27z m-143 -123
c-6 -6 -7 3 -4 23 4 28 6 29 9 9 2 -13 0 -27 -5 -32z m-1523 -359 c12 -8 11
-10 -7 -10 -13 0 -23 5 -23 10 0 13 11 13 30 0z m5350 -2285 c-7 -8 -17 -15
-23 -15 -6 0 -2 7 9 15 25 19 30 19 14 0z m80 -715 c0 -5 -2 -10 -4 -10 -3 0
-8 5 -11 10 -3 6 -1 10 4 10 6 0 11 -4 11 -10z m-1590 -105 c0 -8 -9 -15 -20
-15 -20 0 -26 11 -13 23 12 13 33 7 33 -8z m1590 -315 c0 -5 -5 -10 -11 -10
-5 0 -7 5 -4 10 3 6 8 10 11 10 2 0 4 -4 4 -10z m-60 -434 c0 -20 -28 -28 -53
-14 -21 11 -21 11 -2 19 32 12 55 10 55 -5z m-16050 -116 c0 -5 -4 -10 -10
-10 -5 0 -10 5 -10 10 0 6 5 10 10 10 6 0 10 -4 10 -10z m1528 -2908 c2 -7 -6
-12 -17 -12 -21 0 -27 11 -14 24 9 9 26 2 31 -12z m14132 -609 c26 -34 23 -67
-7 -71 -17 -3 -23 2 -23 16 0 10 -9 27 -20 37 -27 25 -25 45 4 45 15 0 33 -11
46 -27z m-15237 -129 c11 -11 -5 -34 -23 -34 -22 0 -34 15 -25 30 7 11 38 14
48 4z m15035 -1172 c3 -9 -3 -13 -19 -10 -12 1 -24 9 -27 16 -3 9 3 13 19 10
12 -1 24 -9 27 -16z m-14294 -657 c3 -9 -1 -18 -10 -22 -19 -7 -39 11 -30 26
10 16 33 13 40 -4z m3706 -284 c0 -14 -5 -18 -20 -14 -21 5 -25 15 -13 26 13
14 33 6 33 -12z m10314 -10 c13 -14 14 -24 7 -45 -14 -36 -26 -33 -39 11 -16
53 -1 70 32 34z m-13774 -1726 c0 -20 -22 -65 -31 -65 -17 0 -19 40 -3 64 16
26 34 26 34 1z m74 -271 c9 -22 8 -24 -9 -18 -8 4 -15 12 -15 20 0 19 16 18
24 -2z m176 -250 c14 -35 12 -64 -3 -64 -13 0 -39 69 -31 82 10 15 25 8 34
-18z m12870 -334 c0 -5 -4 -10 -10 -10 -5 0 -10 5 -10 10 0 6 5 10 10 10 6 0
10 -4 10 -10z m-86 -75 c3 -9 0 -15 -9 -15 -8 0 -15 7 -15 15 0 8 4 15 9 15 5
0 11 -7 15 -15z m-12694 -10 c19 -23 4 -45 -29 -45 -37 0 -44 11 -25 38 18 26
37 28 54 7z m200 -752 c0 -20 -24 -11 -28 10 -2 12 1 15 12 11 9 -3 16 -13 16
-21z m230 -438 c0 -8 -4 -15 -9 -15 -13 0 -22 16 -14 24 11 11 23 6 23 -9z
m70 -236 c19 -34 -20 -65 -47 -38 -9 9 -8 18 5 35 21 29 28 30 42 3z m11390
-809 c0 -5 -4 -10 -10 -10 -5 0 -10 5 -10 10 0 6 5 10 10 10 6 0 10 -4 10 -10z
m-6420 -1815 c0 -8 -4 -15 -9 -15 -13 0 -22 16 -14 24 11 11 23 6 23 -9z
m4570 -259 c0 -3 -4 -8 -10 -11 -5 -3 -10 -1 -10 4 0 6 5 11 10 11 6 0 10 -2
10 -4z m20 -26 c0 -5 -2 -10 -4 -10 -3 0 -8 5 -11 10 -3 6 -1 10 4 10 6 0 11
-4 11 -10z m-7476 -176 c9 -24 7 -34 -6 -34 -23 0 -39 16 -32 33 8 21 30 22
38 1z m7669 -1781 c-5 -13 -7 -13 -21 0 -8 8 -11 20 -7 27 10 16 35 -7 28 -27z
m167 -7 c0 -16 -18 -31 -27 -22 -8 8 5 36 17 36 5 0 10 -6 10 -14z m-4944
-421 c7 -30 1 -40 -21 -32 -20 8 -20 57 0 57 8 0 17 -11 21 -25z m5120 -18 c3
-3 -3 -16 -15 -28 -11 -12 -24 -19 -28 -14 -5 4 -2 10 5 12 10 4 10 9 -3 23
-16 17 -15 18 9 16 15 -2 29 -6 32 -9z m-22 -130 c4 -19 3 -26 -4 -22 -5 3
-10 18 -10 32 0 32 5 28 14 -10z m201 -467 c-3 -6 1 -7 10 -4 10 4 22 -1 30
-12 20 -26 18 -34 -4 -34 -11 0 -22 -4 -25 -9 -10 -15 -47 0 -56 23 -11 30 -2
46 27 46 13 0 21 -4 18 -10z m19 -186 c4 -9 4 -19 2 -22 -10 -9 -36 8 -36 23
0 20 26 19 34 -1z m26 -294 c0 -13 -7 -20 -19 -20 -14 0 -18 5 -14 20 3 11 12
20 19 20 8 0 14 -9 14 -20z m-7740 -140 c0 -11 -7 -20 -15 -20 -17 0 -18 2 -9
24 9 23 24 20 24 -4z m-407 -269 c5 -22 0 -31 -20 -31 -13 0 -18 31 -6 43 11
12 21 8 26 -12z m7205 -283 c-2 -5 -8 -9 -13 -9 -5 0 -11 4 -13 9 -1 5 4 9 13
9 9 0 14 -4 13 -9z m-35 -96 c-6 -24 -23 -30 -23 -9 0 13 21 39 26 34 2 -2 1
-13 -3 -25z"/>
<path d="M12024 22873 c3 -8 6 -17 6 -19 0 -2 7 -4 15 -4 23 0 18 27 -6 33
-15 4 -19 2 -15 -10z"/>
<path d="M11966 22815 c-3 -8 4 -21 16 -29 27 -19 32 -14 24 19 -7 27 -31 34
-40 10z"/>
<path d="M12040 22760 c0 -5 5 -10 10 -10 17 0 11 -44 -10 -70 -17 -22 -20
-23 -20 -6 0 11 -3 17 -6 13 -3 -3 -3 -15 1 -27 7 -22 7 -22 35 5 16 15 27 32
25 39 -2 6 -6 23 -9 39 -6 25 -26 39 -26 17z"/>
<path d="M12731 22031 c-1 -24 2 -32 9 -25 7 7 7 19 1 35 -9 23 -10 22 -10
-10z"/>
<path d="M12815 22038 c-3 -9 -1 -27 6 -40 10 -17 14 -19 16 -7 2 8 0 26 -6
40 -7 20 -10 21 -16 7z"/>
<path d="M3798 23263 c-4 -34 4 -52 24 -53 8 0 -2 72 -12 83 -4 5 -10 -9 -12
-30z"/>
<path d="M10696 23284 c-7 -17 9 -44 26 -44 13 0 6 53 -8 57 -6 2 -14 -4 -18
-13z"/>
<path d="M11898 23288 c-37 -13 -37 -38 0 -38 30 0 52 16 52 37 0 15 -14 15
-52 1z"/>
<path d="M5410 23255 c-27 -29 -21 -31 21 -10 16 9 27 20 24 25 -10 15 -20 12
-45 -15z"/>
<path d="M10632 23249 c-8 -13 -9 -25 -3 -36 7 -13 10 -10 16 16 8 39 4 47
-13 20z"/>
<path d="M8197 23248 c-11 -31 3 -55 29 -50 13 2 24 0 24 -6 0 -12 106 -49
115 -40 3 3 -2 22 -11 43 -11 28 -18 35 -27 26 -16 -16 -59 -14 -85 5 -12 8
-22 12 -23 7 0 -4 -4 1 -8 11 -6 17 -8 17 -14 4z"/>
<path d="M8058 23220 l-26 -30 24 -6 c32 -8 36 -3 32 35 l-3 32 -27 -31z"/>
<path d="M4088 23233 c7 -3 16 -2 19 1 4 3 -2 6 -13 5 -11 0 -14 -3 -6 -6z"/>
<path d="M5560 23234 c0 -5 9 -20 20 -34 14 -18 20 -21 20 -9 0 9 -9 24 -20
34 -11 10 -20 14 -20 9z"/>
<path d="M11754 23220 c3 -14 5 -33 5 -42 1 -10 6 -18 11 -18 14 0 12 31 -5
60 l-15 25 4 -25z"/>
<path d="M7920 23192 c0 -18 -58 -71 -95 -87 -32 -14 -79 -59 -56 -53 7 2 16
-3 18 -11 4 -9 0 -11 -16 -6 -18 5 -24 -1 -45 -47 -22 -50 -43 -118 -54 -180
-3 -23 -1 -28 17 -28 17 0 21 6 21 29 0 44 57 169 106 231 37 48 89 87 174
130 8 4 16 14 18 21 2 11 -9 14 -43 14 -30 0 -45 -4 -45 -13z"/>
<path d="M12082 23197 c-10 -11 -9 -17 3 -27 20 -17 27 -8 17 19 -7 19 -10 21
-20 8z"/>
<path d="M8983 23170 c-30 -37 -29 -54 3 -75 20 -13 25 -23 22 -45 -3 -17 0
-28 6 -27 6 1 12 -18 14 -43 2 -24 9 -51 15 -59 7 -8 12 -35 12 -60 0 -44 1
-46 30 -49 27 -3 32 1 43 30 20 55 110 138 203 189 23 12 25 18 18 45 -9 30
-9 30 -83 32 -48 2 -102 11 -152 28 -83 27 -107 41 -98 55 13 21 -13 5 -33
-21z"/>
<path d="M11902 23150 c-12 -11 -30 -20 -40 -20 -11 0 -22 -8 -25 -17 -3 -10
-13 -29 -21 -43 -15 -24 -33 -67 -34 -83 -1 -4 -11 -17 -24 -27 -13 -11 -18
-19 -11 -20 6 0 15 5 19 11 4 6 20 9 39 6 l32 -5 -1 56 -1 57 38 -3 c36 -4 38
-3 25 17 -15 25 -9 32 34 35 18 2 36 4 41 5 4 0 7 12 7 26 0 21 -5 25 -28 25
-16 0 -38 -9 -50 -20z"/>
<path d="M7218 23140 c-42 -33 -78 -42 -193 -48 -101 -6 -110 -9 -113 -28 -2
-16 9 -27 50 -49 82 -45 174 -140 189 -196 l12 -46 41 12 41 12 6 79 c5 69 21
123 64 227 6 14 1 18 -24 23 -17 4 -31 13 -31 20 0 19 -13 17 -42 -6z"/>
<path d="M8223 23136 c-10 -17 -47 -25 -165 -35 -107 -8 -121 -15 -166 -86
-64 -99 -84 -138 -106 -212 -20 -64 -19 -94 2 -160 15 -43 27 -59 72 -92 30
-22 60 -45 67 -51 7 -5 18 -10 25 -10 9 0 9 -3 1 -11 -8 -8 -17 -8 -31 0 -26
14 -35 14 -27 1 4 -6 -3 -6 -21 0 -34 13 -43 6 -12 -11 12 -6 40 -27 62 -47
45 -40 118 -74 197 -91 50 -10 62 -10 106 7 102 39 174 104 239 217 29 49 36
74 43 145 10 107 4 190 -16 212 -8 9 -12 22 -8 27 3 6 -1 14 -9 17 -9 3 -16
13 -16 20 0 21 -41 74 -58 74 -7 0 -20 7 -28 15 -9 8 -25 15 -37 15 -12 0 -41
9 -64 20 -31 14 -41 23 -37 34 8 20 -2 21 -13 2z m53 -110 c8 -9 23 -16 33
-16 9 0 34 -16 55 -35 21 -19 42 -35 47 -35 5 0 9 -9 9 -20 0 -11 6 -20 14
-20 24 0 30 -21 7 -27 -12 -3 -21 -9 -21 -14 0 -5 -8 -9 -18 -9 -24 0 -47 -27
-56 -62 -9 -38 5 -35 25 5 10 19 23 31 32 29 8 -1 18 2 22 8 3 5 17 10 30 10
18 0 26 -7 31 -25 3 -14 2 -31 -4 -38 -5 -6 -12 -25 -15 -42 -4 -16 -4 -24 -1
-17 3 6 13 12 22 12 13 0 12 -3 -5 -15 -12 -8 -27 -31 -33 -50 -9 -27 -19 -37
-40 -42 -19 -3 -27 -10 -23 -19 8 -22 -5 -61 -24 -69 -10 -5 -52 -9 -93 -11
-41 -2 -76 -8 -78 -14 -2 -5 -9 -10 -15 -10 -8 0 -8 3 0 11 6 6 8 30 5 54 -2
24 -1 52 4 62 4 10 8 44 9 76 2 55 1 57 -25 57 -30 0 -60 -19 -64 -40 -16 -84
-17 -111 -5 -144 7 -20 20 -36 29 -36 8 0 20 -10 25 -22 6 -13 20 -24 32 -26
21 -3 83 -66 83 -84 0 -4 -17 -1 -37 6 -21 8 -56 17 -77 21 -22 4 -69 20 -105
37 -36 17 -71 31 -78 31 -32 0 -113 124 -113 173 0 12 -7 30 -15 38 -12 11
-14 26 -10 53 12 70 14 73 50 73 30 0 38 -6 60 -44 34 -58 91 -120 103 -112
18 11 20 71 4 123 -17 58 -6 54 -143 54 -51 0 -56 2 -52 19 7 25 81 100 99
100 8 0 17 -7 20 -15 4 -8 14 -15 24 -15 10 0 23 -7 30 -15 7 -8 17 -12 22 -9
5 3 2 14 -7 24 -21 23 -27 60 -14 77 18 21 66 16 72 -7 3 -11 13 -20 22 -20
12 0 15 6 10 19 -4 15 0 21 17 24 41 8 108 -1 124 -17z m-241 -196 c9 -14 -15
-54 -26 -43 -10 10 -1 53 12 53 4 0 11 -4 14 -10z"/>
<path d="M8290 22821 c0 -12 5 -21 10 -21 6 0 10 6 10 14 0 8 -4 18 -10 21 -5
3 -10 -3 -10 -14z"/>
<path d="M8318 22721 c-14 -17 -15 -21 -2 -32 19 -16 26 -7 22 26 -3 26 -3 26
-20 6z"/>
<path d="M8280 22562 c0 -11 22 -32 32 -32 5 0 4 9 -2 20 -11 20 -30 28 -30
12z"/>
<path d="M10672 23100 c0 -14 2 -19 5 -12 2 6 2 18 0 25 -3 6 -5 1 -5 -13z"/>
<path d="M4120 23090 c0 -27 39 -65 52 -52 16 16 -10 72 -33 72 -12 0 -19 -7
-19 -20z"/>
<path d="M8420 23104 c0 0 11 -13 24 -29 28 -33 59 -29 54 7 -2 19 -9 23 -40
23 -21 0 -38 0 -38 -1z"/>
<path d="M3309 23038 c-3 -48 -1 -58 14 -62 10 -2 14 0 11 6 -4 5 -10 33 -13
62 l-7 51 -5 -57z"/>
<path d="M5535 23030 c-8 -16 -15 -36 -15 -45 0 -9 -7 -27 -16 -41 -9 -13 -14
-27 -11 -30 7 -8 35 47 52 102 15 51 12 56 -10 14z"/>
<path d="M6130 23041 c-55 -29 -131 -109 -188 -196 -37 -58 -48 -81 -38 -83
26 -6 66 28 66 56 0 55 77 142 170 192 16 9 18 8 14 -5 -4 -8 -2 -15 4 -15 9
0 22 32 22 58 0 16 -8 15 -50 -7z"/>
<path d="M10691 23044 c0 -11 3 -14 6 -6 3 7 2 16 -1 19 -3 4 -6 -2 -5 -13z"/>
<path d="M3336 23041 c-3 -5 1 -11 9 -15 9 -3 15 0 15 9 0 16 -16 20 -24 6z"/>
<path d="M6690 22998 c-18 -13 -36 -30 -38 -38 -4 -12 -1 -11 15 3 25 21 41
22 65 0 22 -19 25 -17 30 22 4 39 -25 45 -72 13z"/>
<path d="M3370 22992 c6 -13 14 -21 18 -18 3 4 -2 14 -12 24 -18 16 -18 16 -6
-6z"/>
<path d="M4219 22993 c-1 -13 -2 -26 -3 -31 -1 -10 43 -66 48 -61 17 19 12 48
-14 79 -27 33 -30 33 -31 13z"/>
<path d="M10130 23000 c-9 -6 -10 -10 -3 -10 6 0 15 5 18 10 8 12 4 12 -15 0z"/>
<path d="M9554 22975 c-4 -15 -1 -32 6 -40 15 -18 31 -20 29 -2 -4 31 1 48 14
40 27 -17 41 -11 18 8 -33 27 -59 24 -67 -6z"/>
<path d="M11426 22973 c-10 -25 11 -40 29 -22 13 13 12 16 -4 26 -16 10 -20 9
-25 -4z"/>
<path d="M4770 22958 c0 -7 13 -21 30 -30 28 -16 29 -16 18 1 -16 26 -48 45
-48 29z"/>
<path d="M8549 22963 c-3 -19 4 -49 14 -61 13 -16 27 1 27 34 0 24 -38 48 -41
27z"/>
<path d="M11218 22958 c-3 -7 1 -23 8 -36 11 -23 12 -23 16 12 3 24 0 36 -8
36 -6 0 -14 -6 -16 -12z"/>
<path d="M3291 22930 c-13 -39 -1 -39 21 0 13 24 14 30 4 30 -8 0 -19 -13 -25
-30z"/>
<path d="M4157 22915 c21 -18 40 -31 42 -29 10 9 -31 52 -53 56 -24 5 -24 3
11 -27z"/>
<path d="M4460 22913 c0 -4 5 -15 10 -23 8 -13 10 -13 10 2 0 9 -4 20 -10 23
-5 3 -10 3 -10 -2z"/>
<path d="M4527 22845 c-26 -41 -55 -75 -63 -75 -18 0 -70 34 -95 62 -15 17
-59 26 -59 12 0 -10 42 -67 82 -111 21 -24 38 -47 38 -52 0 -17 -23 -64 -53
-109 l-29 -44 21 -14 c12 -8 21 -23 22 -32 0 -9 6 1 13 23 13 42 56 115 68
115 3 0 38 -40 78 -90 57 -72 74 -87 84 -77 8 6 11 19 8 27 -6 17 -69 103
-101 136 -29 32 -36 86 -17 125 9 18 16 38 16 45 0 7 3 14 8 16 4 2 17 23 30
47 19 37 21 47 10 57 -11 11 -22 0 -61 -61z"/>
<path d="M9750 22894 c-18 -39 -22 -64 -10 -64 6 0 9 3 8 8 -1 4 4 20 11 36
16 39 9 56 -9 20z"/>
<path d="M10220 22918 c0 -3 18 -36 41 -74 23 -37 45 -79 51 -94 7 -20 14 -26
28 -23 31 8 32 33 1 71 -34 43 -121 129 -121 120z"/>
<path d="M11264 22892 c-26 -22 -74 -126 -74 -161 0 -17 10 -37 26 -52 26 -24
46 -57 58 -95 5 -17 2 -23 -15 -27 -16 -4 -20 -10 -14 -24 4 -10 11 -29 15
-43 4 -14 20 -61 34 -106 27 -82 34 -158 21 -226 -6 -34 -5 -38 14 -38 12 0
29 5 39 11 14 9 25 8 50 -5 17 -9 38 -16 47 -16 8 0 15 -7 15 -15 0 -8 3 -15
6 -15 13 0 52 49 50 62 -2 18 -46 81 -63 91 -15 9 -17 49 -4 63 6 5 25 38 44
75 l34 65 -33 0 c-26 0 -34 -4 -34 -18 0 -21 -47 -67 -68 -68 -19 0 -72 39
-72 53 0 7 -9 29 -20 50 -19 35 -27 77 -14 77 3 0 31 -25 62 -55 31 -30 59
-55 62 -55 3 0 11 9 17 20 10 16 10 18 -1 14 -38 -15 -226 235 -226 301 0 9
11 31 25 49 14 18 25 39 25 47 0 8 5 20 12 27 7 7 8 12 3 12 -6 0 -3 5 5 10 8
5 11 10 5 10 -5 -1 -19 -8 -31 -18z"/>
<path d="M12736 22898 c-12 -38 -13 -88 -3 -95 6 -3 12 -2 14 4 2 6 13 9 23 6
22 -6 28 13 8 19 -7 3 -13 11 -14 19 0 8 -2 24 -2 37 -2 23 -20 30 -26 10z"/>
<path d="M12798 22833 c2 -32 9 -67 14 -77 26 -49 27 -80 8 -155 -10 -42 -21
-103 -24 -136 l-5 -60 19 58 c10 32 26 67 36 78 18 20 33 75 41 151 4 43 2 49
-28 76 -29 26 -32 32 -19 46 12 15 10 21 -17 47 l-30 30 5 -58z"/>
<path d="M12367 22861 c-2 -10 -1 -25 4 -32 5 -8 9 -9 10 -4 0 6 2 18 4 27 4
24 -12 32 -18 9z"/>
<path d="M5202 22853 c-9 -16 -8 -23 2 -32 19 -16 28 1 18 30 l-9 23 -11 -21z"/>
<path d="M3752 22821 c-1 -47 14 -64 24 -27 3 15 0 33 -9 46 -14 20 -15 19
-15 -19z"/>
<path d="M9205 22852 c-6 -4 -17 -20 -25 -37 -8 -16 -20 -38 -28 -47 -7 -9
-12 -27 -10 -40 4 -20 6 -18 21 17 10 22 27 50 38 61 20 22 24 60 4 46z"/>
<path d="M11125 22813 c-34 -54 -68 -83 -96 -83 -16 0 -51 -5 -79 -11 -39 -8
-54 -17 -62 -35 -15 -32 -8 -37 44 -27 30 6 43 14 43 25 0 10 5 22 11 28 14
14 70 -14 120 -59 41 -37 74 -41 74 -8 0 12 -9 33 -20 47 -24 30 -25 52 -5 90
14 27 12 60 -5 60 -4 0 -16 -12 -25 -27z"/>
<path d="M4250 22815 c0 -5 18 -34 40 -63 22 -29 40 -60 40 -69 0 -9 3 -14 6
-10 13 13 -9 65 -46 107 -22 25 -40 41 -40 35z"/>
<path d="M5363 22792 c-47 -30 -53 -59 -13 -54 25 3 69 47 70 70 0 18 -10 15
-57 -16z"/>
<path d="M9740 22804 c0 -8 5 -12 10 -9 6 4 8 11 5 16 -9 14 -15 11 -15 -7z"/>
<path d="M5000 22802 c0 -5 15 -29 32 -53 38 -51 43 -76 19 -104 -26 -30 -56
-93 -48 -101 3 -4 9 1 12 10 17 53 14 51 29 31 13 -18 14 -18 20 3 7 21 117
82 149 82 9 0 17 5 17 10 0 6 -9 10 -20 10 -24 0 -70 21 -70 32 0 4 -6 8 -14
8 -8 0 -33 18 -56 40 -39 37 -70 51 -70 32z"/>
<path d="M3651 22781 c-8 -5 -11 -16 -8 -25 10 -25 27 -19 27 9 0 28 0 28 -19
16z"/>
<path d="M9627 22784 c-4 -4 -7 -37 -7 -73 1 -60 2 -64 15 -47 22 29 14 142
-8 120z"/>
<path d="M12745 22773 c4 -10 10 -26 12 -35 3 -10 9 -18 14 -18 15 0 10 37 -7
54 -20 21 -28 20 -19 -1z"/>
<path d="M12390 22761 c0 -11 5 -23 10 -26 6 -3 10 3 10 14 0 11 -4 23 -10 26
-5 3 -10 -3 -10 -14z"/>
<path d="M4967 22687 c3 -15 -15 -52 -52 -112 -31 -49 -59 -93 -62 -97 -12
-20 12 -4 46 31 22 22 45 57 51 78 7 21 16 42 21 48 11 12 12 62 0 69 -4 3 -6
-5 -4 -17z"/>
<path d="M3260 22685 c0 -8 5 -15 10 -15 6 0 16 -11 22 -25 6 -14 15 -25 20
-25 16 0 8 17 -22 48 -19 21 -30 26 -30 17z"/>
<path d="M7495 22690 c-7 -12 34 -188 46 -196 5 -3 9 -13 9 -23 0 -54 68 -157
163 -249 59 -57 95 -82 169 -116 133 -63 199 -71 211 -26 5 20 1 21 -72 20
-44 -1 -91 27 -91 55 0 6 -15 9 -38 7 -51 -5 -99 24 -133 80 -14 24 -34 44
-45 46 -35 5 -66 26 -75 50 -5 14 -14 20 -20 16 -8 -5 -10 10 -7 54 4 59 3 63
-29 94 -18 17 -33 38 -33 46 0 7 -4 11 -9 8 -4 -3 -7 15 -6 39 1 25 -2 45 -7
45 -4 0 -8 14 -8 30 0 29 -13 40 -25 20z"/>
<path d="M8731 22666 c16 -15 29 -35 29 -44 0 -36 -26 -95 -52 -117 -24 -20
-28 -31 -28 -74 0 -39 -6 -57 -27 -83 -15 -18 -28 -35 -29 -37 -2 -1 -13 -4
-26 -5 -20 -1 -24 -6 -24 -33 0 -18 -10 -46 -22 -63 -14 -18 -18 -30 -10 -30
18 0 121 115 158 177 43 71 87 197 95 276 l7 64 -50 -1 -51 -1 30 -29z"/>
<path d="M8590 22673 c0 -8 5 -13 12 -11 18 6 21 25 3 25 -8 0 -15 -7 -15 -14z"/>
<path d="M9111 22673 c-6 -11 -21 -18 -38 -18 -24 0 -28 -3 -25 -26 3 -29 -42
-209 -63 -250 -12 -22 -12 -29 0 -45 8 -11 15 -27 15 -36 0 -15 10 -12 68 17
69 35 180 57 250 49 27 -4 34 0 42 22 13 32 13 44 0 44 -20 0 -149 101 -195
152 -37 41 -46 58 -43 80 5 32 3 35 -11 11z"/>
<path d="M7667 22674 c-4 -4 2 -19 13 -34 14 -19 20 -44 20 -78 0 -47 2 -51
35 -71 l35 -20 -7 27 c-3 15 -15 42 -25 60 -10 18 -18 43 -18 55 0 40 -12 67
-29 67 -10 0 -21 -3 -24 -6z"/>
<path d="M5233 22648 c-14 -18 -22 -102 -11 -122 11 -19 30 -22 27 -3 -4 22
13 65 32 83 18 16 22 16 61 1 l43 -16 -24 19 c-13 11 -19 20 -15 20 5 0 0 6
-10 12 -31 18 -91 21 -103 6z"/>
<path d="M10990 22644 c0 -8 4 -12 10 -9 6 3 7 -1 4 -9 -9 -23 13 -20 26 3 14
28 13 31 -15 31 -16 0 -25 -6 -25 -16z"/>
<path d="M7139 22588 c-37 -56 -129 -136 -186 -163 -32 -15 -33 -18 -27 -53 7
-36 26 -61 32 -42 2 6 52 10 113 10 113 0 165 -14 198 -54 18 -21 33 -20 53 3
15 18 15 22 -3 57 -10 21 -19 51 -19 66 0 15 -9 37 -19 47 -14 14 -21 41 -26
95 -7 71 -9 76 -30 76 -13 0 -29 2 -37 5 -8 3 -27 -15 -49 -47z"/>
<path d="M11090 22583 c1 -16 2 -59 1 -96 -1 -62 -3 -68 -20 -62 -25 8 -37
-11 -43 -67 -3 -25 -15 -60 -27 -76 -27 -38 -26 -44 2 -37 40 9 127 -87 127
-141 0 -48 24 -43 40 9 8 23 16 47 20 52 4 6 12 29 20 52 16 52 7 200 -15 243
-8 16 -15 38 -15 50 0 13 -7 20 -18 20 -26 0 -42 20 -42 52 0 19 -5 28 -16 28
-11 0 -15 -8 -14 -27z"/>
<path d="M4290 22580 c-6 -11 -8 -20 -6 -20 3 0 10 9 16 20 6 11 8 20 6 20 -3
0 -10 -9 -16 -20z"/>
<path d="M5417 22588 c-2 -7 10 -29 28 -49 40 -45 94 -136 124 -212 22 -55 41
-81 41 -57 0 21 -74 176 -115 240 -48 75 -71 98 -78 78z"/>
<path d="M8554 22548 c-49 -88 -54 -116 -12 -63 11 14 26 25 34 25 10 0 14 13
14 45 0 25 -2 45 -3 45 -2 0 -17 -24 -33 -52z"/>
<path d="M10987 22594 c-4 -4 -7 -14 -7 -23 0 -11 3 -12 11 -4 6 6 10 16 7 23
-2 6 -7 8 -11 4z"/>
<path d="M6560 22548 c-29 -115 -80 -183 -174 -230 -34 -17 -63 -32 -65 -34
-2 -1 7 -41 20 -88 26 -93 28 -95 93 -71 64 22 167 -7 254 -72 25 -19 32 -21
32 -9 0 9 -3 16 -7 16 -15 0 -13 87 2 130 18 51 70 110 97 110 14 0 18 8 18
33 0 32 -1 33 -35 29 -47 -6 -91 13 -138 57 -48 45 -67 80 -67 125 0 51 -17
53 -30 4z"/>
<path d="M9700 22568 c0 -35 -53 -113 -101 -148 -31 -22 -53 -30 -86 -30 -41
0 -43 -1 -43 -30 0 -17 5 -30 13 -30 6 0 29 -16 51 -35 21 -19 44 -35 51 -35
30 0 32 -50 5 -131 -12 -34 -18 -64 -15 -67 3 -3 20 8 38 25 17 18 56 44 86
59 49 24 61 26 137 21 l82 -5 5 32 c3 17 12 54 20 82 l14 51 -51 22 c-84 35
-163 125 -175 198 -7 42 -31 58 -31 21z"/>
<path d="M11693 22545 c0 -11 4 -12 14 -4 7 6 13 13 13 15 0 2 -6 4 -13 4 -8
0 -14 -7 -14 -15z"/>
<path d="M5054 22503 c-4 -21 -15 -58 -24 -83 -42 -109 -33 -216 31 -342 l31
-61 27 63 c21 51 35 69 75 97 26 18 41 33 33 33 -18 0 -47 53 -47 86 0 13 -4
26 -10 29 -5 3 -10 14 -10 24 0 24 -79 191 -90 191 -5 0 -12 -17 -16 -37z"/>
<path d="M11643 22518 c-19 -25 -24 -38 -14 -38 12 0 41 28 41 41 0 13 -16 11
-27 -3z"/>
<path d="M4490 22501 c0 -6 19 -30 43 -54 48 -50 134 -174 150 -218 9 -24 8
-35 -7 -61 l-18 -33 21 25 c36 43 36 65 2 117 -17 25 -31 52 -31 59 0 7 -4 14
-8 16 -4 2 -29 30 -54 64 -45 59 -98 105 -98 85z"/>
<path d="M4930 22478 c-1 -12 -21 -54 -74 -155 -24 -46 -52 -43 -106 12 -37
38 -80 59 -80 39 0 -3 24 -37 53 -77 52 -70 74 -117 56 -117 -5 0 -9 -6 -9
-13 0 -7 -15 -29 -32 -48 -18 -19 -29 -31 -24 -27 4 4 20 -7 36 -23 26 -29 27
-30 41 -10 19 27 169 42 169 17 0 -9 5 -16 10 -16 15 0 12 22 -10 68 -11 22
-20 47 -20 55 0 7 -5 18 -11 24 -13 13 -7 188 9 246 5 21 6 37 1 37 -5 0 -9
-6 -9 -12z"/>
<path d="M4206 22454 c-10 -14 -16 -29 -14 -34 2 -4 11 7 20 26 21 40 17 45
-6 8z"/>
<path d="M4286 22423 c-4 -11 -1 -22 8 -29 9 -6 13 -14 9 -17 -3 -4 -3 -7 2
-7 17 0 33 35 24 52 -12 23 -35 23 -43 1z"/>
<path d="M7793 22420 c4 -14 7 -31 7 -37 0 -18 71 -46 84 -33 5 5 8 11 5 13
-2 2 -26 21 -53 43 -47 37 -49 38 -43 14z"/>
<path d="M8459 22403 c-34 -36 -126 -93 -183 -113 -27 -10 -53 -25 -57 -33
-15 -25 20 -29 66 -7 23 11 47 20 53 20 7 0 30 18 53 40 24 23 55 42 74 46 36
6 52 40 29 61 -9 9 -18 5 -35 -14z"/>
<path d="M11574 22400 c-19 -7 -39 -58 -28 -69 7 -8 34 22 34 38 0 9 5 22 12
29 14 14 11 14 -18 2z"/>
<path d="M4200 22315 c-14 -16 -6 -35 16 -35 8 0 14 -6 15 -12 0 -7 5 -2 10
11 17 44 -13 70 -41 36z"/>
<path d="M6888 22306 c-16 -5 -28 -12 -28 -15 0 -11 83 -6 87 5 5 16 -27 22
-59 10z"/>
<path d="M7940 22289 c16 -17 36 -29 43 -26 8 3 34 -8 58 -24 56 -37 69 -37
69 1 0 25 -4 30 -24 30 -13 0 -49 11 -80 25 -31 14 -65 25 -76 25 -18 0 -17
-3 10 -31z"/>
<path d="M11803 22269 c-2 -29 1 -37 13 -32 17 6 18 40 1 57 -11 11 -13 6 -14
-25z"/>
<path d="M3369 22278 c0 -13 -1 -39 -3 -59 -2 -28 1 -36 13 -35 11 1 17 -9 19
-29 2 -16 8 -34 14 -40 8 -7 9 -5 5 7 -3 10 -2 20 2 23 12 7 4 119 -9 123 -6
2 -17 10 -25 19 -13 13 -15 12 -16 -9z"/>
<path d="M3291 22274 c0 -11 3 -14 6 -6 3 7 2 16 -1 19 -3 4 -6 -2 -5 -13z"/>
<path d="M11536 22268 c3 -13 13 -35 20 -50 8 -15 14 -34 14 -43 0 -22 33 -65
112 -149 40 -42 68 -64 68 -55 0 9 -11 28 -25 43 -14 15 -25 29 -25 31 0 2
-18 23 -40 45 -51 52 -85 105 -101 158 -7 23 -16 42 -21 42 -5 0 -6 -10 -2
-22z"/>
<path d="M9483 22253 c-7 -3 -13 -16 -13 -29 0 -13 -4 -24 -9 -24 -6 0 -6 -12
1 -31 l10 -30 24 22 c29 27 30 36 7 62 -10 11 -12 17 -5 13 6 -4 12 -3 12 3 0
13 -12 19 -27 14z"/>
<path d="M12225 22227 c4 -19 3 -43 -3 -53 -11 -22 6 -154 21 -154 5 0 6 17 3
38 -3 20 -2 66 3 102 7 58 6 67 -11 83 -19 19 -19 18 -13 -16z"/>
<path d="M11970 22236 c0 -17 -35 -27 -49 -13 -13 13 -25 -34 -17 -68 8 -29
22 -33 29 -6 4 18 57 36 57 20 0 -20 18 -7 24 16 4 16 0 31 -11 45 -20 23 -33
26 -33 6z"/>
<path d="M12101 22209 c-25 -23 -39 -29 -60 -25 -14 3 -20 3 -13 0 6 -3 13
-20 13 -37 1 -25 3 -27 6 -9 6 30 71 61 84 40 6 -8 9 0 9 25 0 20 -1 37 -2 37
-2 0 -18 -14 -37 -31z"/>
<path d="M5595 22184 c-23 -27 -40 -37 -72 -41 -41 -5 -43 -7 -43 -38 0 -19
-6 -35 -14 -38 -16 -6 -73 5 -103 21 -33 18 -36 15 -29 -33 4 -24 4 -60 1 -79
-13 -67 -72 -98 -112 -58 -10 10 -26 24 -35 31 -35 27 -20 -28 20 -70 33 -35
44 -41 95 -46 53 -5 57 -4 57 15 0 11 5 24 10 27 6 3 10 14 10 25 0 31 43 102
76 123 17 11 38 33 47 49 9 15 24 28 34 28 10 0 38 18 63 39 37 33 43 42 35
59 -10 20 -11 20 -40 -14z"/>
<path d="M8846 22139 c-27 -39 -65 -82 -83 -96 -18 -15 -33 -35 -33 -46 0 -10
-9 -21 -20 -24 -21 -6 -27 -37 -10 -48 6 -3 10 -14 10 -24 0 -14 7 -16 35 -13
46 5 115 -18 206 -69 75 -43 100 -44 107 -6 3 16 -53 108 -70 115 -4 2 -8 10
-8 18 0 8 -4 14 -10 14 -5 0 -10 13 -10 29 0 15 -5 42 -11 58 -8 24 -7 39 5
68 20 47 20 56 -1 48 -10 -4 -23 2 -37 19 l-21 26 -49 -69z"/>
<path d="M4166 22173 c-12 -12 -6 -33 9 -33 8 0 15 6 15 14 0 17 -14 28 -24
19z"/>
<path d="M4235 22170 c-8 -13 3 -30 20 -30 8 0 11 7 8 20 -6 22 -18 26 -28 10z"/>
<path d="M7366 22155 c-16 -12 -19 -25 -17 -68 1 -32 -4 -70 -15 -95 -10 -26
-14 -54 -10 -72 5 -27 -8 -44 -16 -20 -1 5 -16 -15 -31 -44 -27 -52 -28 -55
-12 -80 l17 -25 36 24 c86 58 234 112 272 100 14 -5 23 3 36 30 16 35 16 37
-4 51 -12 8 -29 22 -38 32 -10 9 -20 17 -23 17 -7 0 -71 44 -88 61 -7 7 -13
18 -13 24 0 6 -11 22 -25 36 -14 14 -25 29 -25 34 0 14 -22 12 -44 -5z"/>
<path d="M8428 22153 c-25 -3 -42 -11 -48 -24 -6 -10 -17 -19 -25 -19 -8 0
-15 -5 -15 -10 0 -7 -6 -7 -20 0 -14 7 -20 7 -20 0 0 -18 -66 -11 -93 10 -21
17 -27 18 -36 6 -8 -10 -9 -16 -1 -21 5 -3 10 -3 10 1 0 4 10 -6 21 -21 23
-28 20 -28 124 -9 66 12 211 100 153 92 -7 -1 -30 -3 -50 -5z"/>
<path d="M10890 22130 c-14 -5 -51 -14 -82 -20 -32 -6 -58 -16 -58 -21 0 -11
-37 -12 -44 0 -7 10 -96 -18 -96 -30 0 -5 -5 -9 -11 -9 -10 0 -49 -37 -49 -47
0 -2 12 5 28 17 29 21 71 27 113 16 21 -6 30 -2 48 19 20 27 22 27 47 11 33
-22 102 -129 110 -171 5 -26 11 -32 30 -32 13 0 27 3 30 8 3 5 14 9 24 9 27 0
80 57 80 87 0 23 -3 24 -32 18 -18 -4 -35 -7 -38 -7 -26 -1 -38 7 -59 37 -18
26 -22 44 -19 80 2 25 3 45 3 44 0 -1 -11 -5 -25 -9z"/>
<path d="M4617 22073 c-20 -33 -43 -66 -52 -73 -8 -7 -15 -19 -15 -26 0 -24
38 16 76 79 20 31 34 62 32 68 -2 6 -20 -16 -41 -48z"/>
<path d="M6338 22055 c-27 -19 -48 -41 -47 -48 0 -9 2 -9 6 1 2 6 16 12 29 12
14 0 23 4 20 9 -6 10 45 31 75 31 11 0 19 5 19 10 0 6 -6 10 -14 10 -8 0 -20
2 -28 5 -7 2 -34 -11 -60 -30z"/>
<path d="M5185 22068 c-9 -23 2 -51 17 -46 18 6 20 22 4 43 -14 19 -15 19 -21
3z"/>
<path d="M9924 22065 c-10 -8 -16 -15 -11 -16 17 -3 23 -5 45 -13 32 -11 39 0
17 24 -22 24 -25 24 -51 5z"/>
<path d="M5570 22028 c0 -35 2 -39 15 -28 9 8 28 10 50 6 19 -4 37 -7 40 -6
11 1 85 -91 85 -106 0 -8 5 -14 10 -14 15 0 12 16 -9 58 -24 46 -66 87 -75 73
-7 -11 -56 6 -56 20 0 4 -13 14 -30 23 l-30 14 0 -40z"/>
<path d="M3332 22035 c0 -16 2 -22 5 -12 2 9 2 23 0 30 -3 6 -5 -1 -5 -18z"/>
<path d="M9593 22008 c-21 -28 -44 -90 -41 -111 3 -19 7 -16 30 23 30 51 45
100 30 100 -5 0 -14 -6 -19 -12z"/>
<path d="M6480 21981 c0 -4 28 -9 62 -9 42 -1 58 2 48 8 -19 12 -110 13 -110
1z"/>
<path d="M11412 21927 c-28 -16 -18 -29 13 -17 24 9 62 4 81 -12 8 -5 14 -3
18 7 6 17 -16 31 -33 21 -5 -4 -12 -2 -16 4 -8 13 -35 12 -63 -3z"/>
<path d="M3700 21920 c0 -7 9 -23 20 -37 11 -14 20 -31 20 -38 0 -28 27 -37
60 -20 37 19 31 35 -15 35 -28 0 -37 6 -50 29 -16 33 -35 49 -35 31z"/>
<path d="M4819 21904 c-8 -10 -24 -14 -44 -12 -27 3 -31 1 -27 -14 3 -14 8
-15 22 -8 10 6 32 10 49 10 20 0 31 5 31 14 0 23 -16 28 -31 10z"/>
<path d="M10037 21875 c2 -27 9 -65 15 -83 5 -18 7 -44 4 -58 -4 -16 -3 -23 3
-20 10 7 24 -10 28 -33 2 -19 21 -36 30 -28 3 4 -4 26 -16 48 -19 33 -21 45
-13 64 8 18 8 25 -4 29 -8 3 -14 19 -14 40 0 19 -6 41 -13 48 -8 7 -16 20 -20
28 -3 8 -3 -7 0 -35z"/>
<path d="M7759 21838 c-12 -29 -11 -36 15 -81 21 -38 30 -72 37 -142 5 -50 9
-100 8 -111 -5 -54 1 -74 24 -74 17 0 27 13 47 58 18 41 49 81 108 139 71 72
82 88 82 117 0 19 5 38 10 41 26 16 8 27 -33 21 -24 -4 -64 -2 -88 4 -24 6
-64 16 -89 22 -25 6 -54 17 -65 24 -29 21 -41 17 -56 -18z"/>
<path d="M8500 21857 c-25 -5 -55 -10 -67 -11 -13 0 -23 -4 -23 -7 0 -12 -53
-29 -93 -29 -80 0 -86 -5 -85 -66 1 -30 4 -52 6 -49 18 18 189 -148 221 -215
8 -17 22 -30 32 -30 15 0 17 13 18 98 2 117 10 157 46 218 15 25 23 49 18 53
-5 3 -13 15 -18 27 -9 18 -14 19 -55 11z"/>
<path d="M10430 21791 c0 -35 19 -91 31 -91 8 0 3 76 -7 108 -7 23 -24 12 -24
-17z"/>
<path d="M10387 21796 c-10 -8 -14 -16 -10 -19 5 -3 14 3 21 14 14 22 13 23
-11 5z"/>
<path d="M6860 21789 c0 -9 7 -36 15 -59 34 -96 5 -239 -62 -312 l-25 -26 60
-61 c34 -34 66 -61 71 -61 6 0 18 11 27 25 9 13 41 36 72 51 47 22 73 26 148
27 l90 2 -30 33 c-48 52 -55 72 -56 144 0 57 4 71 25 97 l26 30 -21 21 -21 21
-35 -22 c-39 -23 -88 -27 -152 -9 -29 7 -54 25 -86 63 -27 30 -46 45 -46 36z"/>
<path d="M9407 21771 c-43 -73 -149 -97 -236 -52 -38 20 -45 21 -58 8 -13 -12
-10 -18 17 -46 31 -30 32 -33 25 -99 -3 -37 -15 -85 -25 -108 -32 -65 -29 -69
48 -70 70 -1 111 -16 195 -72 l39 -26 53 55 c30 30 54 59 55 65 0 6 -12 21
-26 35 -52 48 -68 96 -68 194 0 50 4 102 8 118 11 36 -5 35 -27 -2z"/>
<path d="M5827 21764 c-4 -4 -7 -20 -7 -35 0 -15 -4 -39 -10 -53 -11 -30 0
-34 23 -8 18 20 23 41 14 62 -3 8 -7 21 -9 28 -2 7 -7 10 -11 6z"/>
<path d="M8930 21749 c-7 -11 -9 -24 -5 -27 7 -7 35 25 35 40 0 16 -19 8 -30
-13z"/>
<path d="M5747 21685 c-22 -45 -31 -55 -52 -55 -14 0 -25 -4 -25 -9 0 -5 -17
-19 -37 -31 -31 -18 -48 -21 -90 -17 -50 5 -67 -3 -42 -19 21 -13 143 -4 167
12 40 26 81 77 98 122 25 62 12 60 -19 -3z"/>
<path d="M5882 21718 c-18 -23 -13 -105 8 -130 25 -31 37 -16 15 19 -18 28
-25 64 -14 73 3 3 9 15 13 28 8 24 -5 30 -22 10z"/>
<path d="M6255 21721 c-3 -5 -1 -12 5 -16 5 -3 10 1 10 9 0 18 -6 21 -15 7z"/>
<path d="M10560 21661 c0 -18 61 -60 95 -67 19 -3 60 -3 92 0 32 4 76 8 98 10
52 5 51 4 38 17 -7 7 -30 6 -76 -2 -75 -14 -146 -3 -210 31 -20 11 -37 16 -37
11z"/>
<path d="M5900 21648 c0 -4 4 -8 9 -8 6 0 12 4 15 8 3 5 -1 9 -9 9 -8 0 -15
-4 -15 -9z"/>
<path d="M10000 21636 c0 -19 4 -23 20 -19 23 6 25 14 8 31 -18 18 -28 14 -28
-12z"/>
<path d="M10351 21641 c-18 -12 -7 -28 18 -26 28 2 38 14 21 25 -18 12 -22 12
-39 1z"/>
<path d="M5132 21548 c-17 -17 -15 -45 3 -52 17 -6 39 29 31 50 -7 17 -18 18
-34 2z"/>
<path d="M11518 21544 c-12 -18 -94 -27 -118 -14 -12 7 -24 9 -27 6 -13 -13
20 -34 73 -45 64 -15 88 -3 82 40 -2 15 -6 20 -10 13z"/>
<path d="M4734 21518 c-4 -7 -4 -10 1 -6 4 4 14 0 21 -10 7 -9 15 -14 18 -11
3 3 -2 14 -13 23 -15 14 -21 15 -27 4z"/>
<path d="M9010 21475 c0 -17 4 -23 14 -19 8 3 12 13 9 25 -7 27 -23 24 -23 -6z"/>
<path d="M4801 21481 c-51 -9 -52 -31 -2 -31 34 0 41 3 41 20 0 11 -1 19 -2
19 -2 -1 -18 -4 -37 -8z"/>
<path d="M8566 21445 c-3 -8 0 -29 6 -47 11 -30 12 -30 19 -10 5 12 4 33 -1
47 -11 29 -16 31 -24 10z"/>
<path d="M6660 21410 c0 -5 7 -10 15 -10 8 0 15 5 15 10 0 6 -7 10 -15 10 -8
0 -15 -4 -15 -10z"/>
<path d="M8506 21351 c-4 -5 -8 -30 -11 -55 -9 -92 -72 -170 -145 -182 -48 -8
-59 -28 -17 -31 17 -1 45 -13 63 -26 60 -42 165 -149 163 -166 -4 -45 0 -51
40 -51 22 0 44 6 51 15 7 8 18 15 25 15 13 0 25 51 25 105 0 16 9 59 19 95 11
36 22 77 25 91 3 14 22 38 43 53 21 16 29 25 18 21 -11 -3 -49 -9 -85 -11 -80
-7 -116 13 -162 86 -31 50 -42 58 -52 41z"/>
<path d="M9100 21350 c-105 -25 -112 -29 -164 -86 -63 -71 -91 -118 -100 -168
-6 -29 -4 -37 6 -34 7 3 15 20 19 40 7 43 37 87 87 126 52 42 128 75 154 69
12 -3 31 -1 42 5 12 6 35 14 51 18 l30 7 -39 16 c-21 10 -41 16 -45 16 -3 -1
-22 -5 -41 -9z"/>
<path d="M7765 21303 c-16 -26 -44 -55 -62 -66 -45 -26 -134 -32 -173 -12 -45
23 -38 0 14 -46 24 -21 51 -57 60 -79 17 -43 24 -168 12 -211 -7 -23 -4 -27
33 -39 45 -15 120 -8 132 12 5 7 15 36 24 64 13 46 20 54 55 68 31 12 39 20
37 38 -2 19 6 25 51 38 28 8 52 18 52 22 0 3 -16 12 -35 18 -81 27 -149 123
-134 190 4 19 7 35 6 36 -1 1 -11 4 -22 7 -16 5 -26 -3 -50 -40z"/>
<path d="M7395 21208 c9 -15 21 -25 27 -22 5 3 8 7 6 8 -2 0 -14 10 -27 21
l-24 20 18 -27z"/>
<path d="M7957 20964 c-9 -9 4 -35 14 -28 5 3 9 12 9 20 0 14 -12 19 -23 8z"/>
<path d="M9342 20869 c-7 -11 -29 -27 -48 -35 -18 -8 -34 -18 -34 -23 0 -4 -9
-18 -20 -31 -21 -24 -26 -55 -11 -64 11 -7 94 81 116 123 19 37 17 62 -3 30z"/>
<path d="M7060 20710 c0 -7 24 -20 36 -20 13 0 1 19 -16 23 -11 3 -20 2 -20
-3z"/>
<path d="M7193 20713 c-23 -9 -14 -18 17 -18 33 0 39 9 14 19 -9 3 -16 6 -17
5 -1 0 -8 -3 -14 -6z"/>
<path d="M7872 20675 c6 -14 15 -25 20 -25 4 0 8 11 8 25 0 18 -5 25 -20 25
-17 0 -18 -3 -8 -25z"/>
<path d="M8308 20496 c-20 -6 -52 -26 -70 -44 -19 -17 -40 -32 -47 -32 -7 0
-11 -8 -9 -17 1 -10 -1 -24 -5 -30 -14 -22 -1 -14 39 23 22 19 57 47 79 62 76
51 78 59 13 38z"/>
<path d="M8122 20103 c3 -26 7 -28 51 -31 56 -4 67 19 17 37 -16 5 -30 8 -30
5 0 -3 -9 0 -21 6 -19 11 -20 9 -17 -17z"/>
<path d="M8270 20057 c0 -10 7 -20 15 -23 8 -4 13 -10 10 -14 -3 -5 -1 -11 5
-15 17 -11 11 19 -10 45 -16 21 -20 22 -20 7z"/>
<path d="M8225 19997 c-8 -19 10 -47 31 -47 19 0 17 14 -5 41 -18 22 -20 22
-26 6z"/>
<path d="M8082 19979 c-12 -18 -11 -20 5 -17 10 2 19 11 21 21 5 23 -10 21
-26 -4z"/>
<path d="M8303 19973 c2 -5 11 -24 20 -44 18 -40 110 -129 133 -129 8 0 -1 14
-21 32 -20 17 -54 58 -76 90 -22 32 -44 58 -50 58 -6 0 -8 -3 -6 -7z"/>
<path d="M8006 19931 c-3 -5 -14 -7 -24 -4 -12 3 -24 -4 -35 -21 -20 -29 -129
-108 -172 -123 -16 -6 -52 -17 -80 -24 -66 -16 -80 -29 -20 -18 69 13 168 50
183 67 6 9 12 13 12 9 0 -13 96 57 124 91 15 17 25 32 22 32 -2 0 -7 -4 -10
-9z"/>
<path d="M8122 19849 c-19 -17 -32 -32 -30 -34 2 -2 21 12 42 31 21 19 34 34
30 34 -5 0 -24 -14 -42 -31z"/>
<path d="M7911 19786 c-32 -34 -165 -83 -254 -95 -83 -10 -198 0 -279 24 -58
17 -61 10 -22 -68 110 -216 328 -391 584 -467 153 -45 204 -54 219 -36 8 10
-1 20 -39 45 -65 42 -131 119 -177 206 l-38 70 0 125 c0 110 3 130 23 167 12
23 22 45 22 48 0 12 -18 3 -39 -19z"/>
<path d="M8400 19783 c0 -4 10 -37 21 -73 43 -132 22 -291 -53 -405 -18 -27
-62 -71 -98 -98 -36 -27 -66 -52 -68 -57 -11 -31 155 -22 285 16 232 67 423
228 495 416 26 70 25 71 -29 62 -174 -29 -447 29 -510 109 -21 26 -43 42 -43
30z"/>
<path d="M7047 19773 c-10 -10 -8 -61 3 -68 9 -6 40 44 40 65 0 11 -33 14 -43
3z"/>
<path d="M7183 19736 c20 -18 46 -51 58 -72 13 -25 18 -30 14 -14 -4 14 -10
40 -15 58 -11 46 -28 62 -64 62 l-31 0 38 -34z"/>
<path d="M7578 19738 c9 -9 15 -9 24 0 9 9 7 12 -12 12 -19 0 -21 -3 -12 -12z"/>
<path d="M8949 19713 c-12 -15 -12 -16 4 -10 10 4 23 7 28 7 6 0 7 5 4 10 -9
15 -21 12 -36 -7z"/>
<path d="M9276 19663 c9 -36 13 -40 23 -24 12 18 2 51 -15 51 -11 0 -13 -7 -8
-27z"/>
<path d="M7972 19627 c-7 -18 -12 -46 -12 -62 0 -33 38 -165 52 -183 20 -24
19 -4 -4 59 -17 48 -22 83 -21 142 1 42 1 77 -1 77 -1 0 -7 -15 -14 -33z"/>
<path d="M9390 19645 c0 -8 4 -15 8 -15 5 0 9 7 9 15 0 8 -4 15 -9 15 -4 0 -8
-7 -8 -15z"/>
<path d="M6955 19626 c-20 -15 -20 -15 7 -42 34 -35 42 -28 25 20 -12 34 -14
36 -32 22z"/>
<path d="M9231 19512 c-6 -11 -11 -31 -11 -43 0 -13 -16 -38 -39 -59 -30 -29
-39 -46 -43 -78 -2 -23 -1 -42 3 -42 8 0 98 152 112 190 14 38 -4 65 -22 32z"/>
<path d="M9340 19484 c-13 -39 -11 -47 13 -38 20 7 30 35 21 58 -10 25 -21 19
-34 -20z"/>
<path d="M7006 19471 c-10 -15 3 -35 29 -48 22 -10 25 -9 25 6 0 10 -8 25 -18
34 -21 19 -28 21 -36 8z"/>
<path d="M7172 19461 c-16 -10 -7 -33 18 -49 18 -11 20 -10 20 12 0 28 -21 48
-38 37z"/>
<path d="M9004 19425 c-9 -14 -14 -28 -11 -31 10 -10 47 21 47 38 0 26 -17 22
-36 -7z"/>
<path d="M7410 19380 c0 -5 5 -10 10 -10 6 0 10 5 10 10 0 6 -4 10 -10 10 -5
0 -10 -4 -10 -10z"/>
<path d="M9280 19340 c-16 -38 -9 -46 19 -23 15 12 20 24 16 36 -10 25 -21 21
-35 -13z"/>
<path d="M8952 19343 c-7 -2 -17 -13 -22 -24 -9 -15 -7 -19 6 -19 10 0 14 3
11 7 -4 3 0 15 10 25 17 19 16 20 -5 11z"/>
<path d="M7102 19305 c2 -21 12 -30 43 -41 21 -7 41 -11 43 -9 11 11 -11 36
-48 55 l-41 21 3 -26z"/>
<path d="M7284 19303 c3 -22 26 -29 36 -12 11 17 3 29 -20 29 -11 0 -17 -6
-16 -17z"/>
<path d="M7397 19233 c-4 -3 -7 -11 -7 -17 0 -6 5 -5 12 2 6 6 9 14 7 17 -3 3
-9 2 -12 -2z"/>
<path d="M9190 19209 c-22 -18 -22 -19 -3 -10 12 6 25 16 28 21 9 15 3 12 -25
-11z"/>
<path d="M8945 19141 c0 -34 2 -38 18 -30 21 12 21 18 -1 46 -17 23 -17 23
-17 -16z"/>
<path d="M7264 19135 c-9 -19 -8 -22 7 -18 22 6 32 30 16 36 -7 3 -17 -5 -23
-18z"/>
<path d="M7793 19125 c0 -8 4 -12 9 -9 5 3 6 10 3 15 -9 13 -12 11 -12 -6z"/>
<path d="M7541 19101 c-12 -8 -10 -12 12 -22 31 -14 45 -6 27 16 -14 17 -20
18 -39 6z"/>
<path d="M7960 19066 c0 -20 5 -26 21 -26 15 0 20 5 17 22 -5 34 -38 37 -38 4z"/>
<path d="M8800 19051 c-13 -25 -13 -31 1 -31 14 0 39 25 39 39 0 18 -29 12
-40 -8z"/>
<path d="M9001 19044 c-25 -23 -25 -23 -4 -24 12 0 26 6 30 14 4 7 18 13 30
12 12 0 23 4 25 9 6 20 -55 12 -81 -11z"/>
<path d="M8210 19035 c0 -3 6 -16 14 -28 9 -13 14 -43 13 -74 -2 -51 -2 -53
25 -53 38 0 42 15 12 45 -23 23 -26 32 -20 71 5 42 4 44 -19 44 -14 0 -25 -2
-25 -5z"/>
<path d="M7412 19013 c2 -13 15 -19 43 -21 39 -3 39 -3 21 17 -24 26 -69 29
-64 4z"/>
<path d="M7714 19009 c-8 -13 13 -29 39 -29 20 0 22 11 5 28 -15 15 -35 15
-44 1z"/>
<path d="M8653 18993 c-18 -6 -16 -33 1 -33 19 0 31 19 20 30 -5 4 -15 5 -21
3z"/>
<path d="M8921 18973 c-5 -10 -12 -17 -15 -15 -13 5 -27 1 -22 -7 5 -7 25 -8
59 -2 11 2 9 41 -3 41 -5 0 -13 -8 -19 -17z"/>
<path d="M8451 18941 c-15 -28 -14 -31 12 -31 33 0 51 14 35 27 -29 22 -37 23
-47 4z"/>
<path d="M7560 18930 c0 -28 12 -35 56 -31 l45 3 -28 15 c-33 18 -73 25 -73
13z"/>
<path d="M8813 18918 c-15 -19 -34 -58 -29 -58 8 0 48 61 44 66 -3 2 -10 -1
-15 -8z"/>
<path d="M7758 18869 c-15 -4 -30 -4 -34 0 -4 3 0 -4 7 -16 14 -24 34 -29 58
-14 24 15 0 39 -31 30z"/>
<path d="M8590 18826 c0 -15 37 -32 47 -22 3 3 3 12 0 21 -8 19 -47 20 -47 1z"/>
<path d="M7926 18815 c-3 -9 -1 -26 5 -38 l12 -21 19 24 c10 12 17 28 15 34
-6 18 -44 19 -51 1z"/>
<path d="M8180 18805 c-11 -13 -10 -14 4 -9 9 3 16 10 16 15 0 13 -6 11 -20
-6z"/>
<path d="M8410 18801 c0 -24 25 -34 40 -16 15 18 5 35 -21 35 -12 0 -19 -7
-19 -19z"/>
<path d="M16342 18005 c-15 -33 -15 -35 3 -35 10 0 15 10 15 30 0 37 -3 37
-18 5z"/>
<path d="M16305 17830 c-3 -5 -1 -10 4 -10 6 0 11 5 11 10 0 6 -2 10 -4 10 -3
0 -8 -4 -11 -10z"/>
<path d="M4075 4880 c3 -5 10 -10 16 -10 5 0 9 5 9 10 0 6 -7 10 -16 10 -8 0
-12 -4 -9 -10z"/>
<path d="M10815 270 c-3 -5 1 -10 10 -10 9 0 13 5 10 10 -3 6 -8 10 -10 10 -2
0 -7 -4 -10 -10z"/>
<path d="M9804 138 c-4 -5 -13 -7 -20 -4 -19 7 -217 -15 -224 -26 -3 -4 -23
-3 -44 3 -20 6 -43 8 -49 5 -7 -2 -2 -5 10 -5 12 -1 25 -6 28 -11 8 -13 125
-10 125 3 0 5 32 8 73 7 117 -4 143 -1 168 20 l24 19 -43 -1 c-24 -1 -45 -5
-48 -10z"/>
<path d="M8922 120 c-19 -4 -39 -13 -44 -18 -8 -8 55 -11 215 -11 124 1 230
-2 235 -5 6 -3 37 -3 70 0 45 5 59 10 55 20 -6 16 -33 19 -33 4 0 -12 -85 -13
-108 -1 -22 11 -347 20 -390 11z"/>
<path d="M9330 119 c0 -5 11 -9 25 -9 14 0 25 2 25 4 0 2 -11 6 -25 8 -14 3
-25 1 -25 -3z"/>
</g>
</svg>
